<svg xmlns="http://www.w3.org/2000/svg">
<defs>
<font id="BadScript-Regular" horiz-adv-x="0" >
  <font-face 
    font-family="Bad Script"
    font-weight="400"
    font-style="italic"
    font-stretch="normal"
    units-per-em="1000"
    panose-1="0 0 5 0 0 0 0 0 0 0"
    ascent="800"
    descent="-200"
    x-height="503.999"
    cap-height="979"
    bbox="-879.004 -647.999 1576 1455"
    underline-thickness="50"
    underline-position="-50"
    slope="-10"
    unicode-range="U+000D-U+FB02"
  />
<missing-glyph horiz-adv-x="965" 
d="M524 -31c-8 1.33301 -16.6641 1.99609 -25.9971 1.99609c-8 0 -22.667 -2.33301 -44 -7c-2 2.66699 -3 5.33398 -3 8.00098c9.33301 7.33301 23.666 11 42.999 11l7 1h7l-26 19c-6 2.66699 -12 6.66699 -18 12c-20.667 12.667 -31 21 -31 25s1.66699 7 5 9l8 6
c-5.33301 5.33301 -8 11 -8 17c0 7.33301 0.333008 12.333 1 15c-54 29.333 -98.667 66.666 -134 111.999c-23.333 28 -43 55.333 -59 82l-21 34l-42 14l-28 10c-10 2.66699 -17.667 5.33398 -23 8.00098l-36 15c-20 8 -35.333 16.333 -46 25s-16 16 -16 22s3.66699 9 11 9
l256 -22l78 16c63.333 11.333 118.333 22.333 165 33c50 12 81.333 27.333 94 46c37.333 65.333 79.666 98 126.999 98c20 0 38.667 -2.33301 56 -7v1l74 26c2 0 3 -0.666992 3 -2v-1l-25 -69l70 3c1.33301 0 2 -0.333008 2 -1v-2l-64 -66l-1 1
c-2 -158 -82.333 -291 -241 -399c0 -7.33301 -1.83301 -13.166 -5.5 -17.499s-7.83398 -6.5 -12.501 -6.5l-12 -12c42 -14.667 73.667 -27.334 95 -38.001l21 1c23.333 0 44 -6.33301 62 -19v-2c0 -1.33301 -0.333008 -2.33301 -1 -3l-3 -2c-19.333 8.66699 -32 13 -38 13
c-4 0.666992 -8 0.833984 -12 0.500977s-6.66699 -0.5 -8 -0.5c16.667 -8 29 -18 37 -30c-0.666992 -2.66699 -3.66699 -4.66699 -9 -6c-21.333 21.333 -42 32 -62 32l-17 -1c-2 -0.666992 -4.33301 -1 -7 -1l-12 -4l-8 -4l-8 -3h-4c-2 0 -3 1.66699 -3 5
c4.66699 5.33301 8.83398 9 12.501 11s7.16699 3.33301 10.5 4s5.66602 1.33398 6.99902 2.00098l13 4c-22.667 11.333 -41 19.333 -55 24c-21.333 7.33301 -32 12 -32 14c0 4 3.66699 9 11 15c-4.66699 0 -8.66699 2 -12 6s-5.66602 8.33301 -6.99902 13h-27

<glyph glyph-name="fi" unicode="fi" horiz-adv-x="526" 
d="M518 781c0 -10 -5.67188 -20.668 -17.0049 -32.001c-10 -8 -20.667 -12 -32 -12s-21.833 4.66699 -31.5 14s-14.5 19.666 -14.5 30.999c0 6.66699 1 12.334 3 17.001c-10 2 -21.667 3 -35 3c-32.667 0 -63.167 -13.167 -91.5 -39.5s-52.166 -62.333 -71.499 -108
s-33.333 -97.167 -42 -154.5l263 19h3c6 0 10 -2 12 -6c4.66699 -4 8.33398 -9.83301 11.001 -17.5s4 -15.834 4 -24.501c0 -13.333 -15.333 -85.333 -46 -216s-46 -200 -46 -208c0 -7.33301 3.33301 -11 10 -11c3.33301 0 9.33301 4.33301 18 13c8 8 14.667 12 20 12
c10.667 0 16 -6.66699 16 -20c0 -8 -4.66699 -16 -14 -24s-20 -14.5 -32 -19.5s-21.333 -7.5 -28 -7.5c-22.667 0 -34 18.333 -34 55c0 9.33301 1.66699 17.666 5 24.999c3.33301 11.333 6.33301 24.333 9 39l15 67l20 88c6.66699 32.667 14.667 69.334 24 110.001
c1.33301 4 2.66602 10.667 3.99902 20c6.66699 28.667 10 45.334 10 50.001v10l-1 10l-95 -4l-158 -6c-8.66699 -48 -26 -158.667 -52 -332l-28 -181c-23.333 -142.667 -69.666 -242.334 -138.999 -299.001c-42 -35.333 -99.333 -53 -172 -53
c-24 0 -51.167 4.66699 -81.5 14s-56.166 20.833 -77.499 34.5s-32 26.5 -32 38.5c0 6.66699 3 12 9 16s14.667 5.66699 26 5c36 -26 63.667 -42.5 83 -49.5s45 -10.5 77 -10.5c58.667 0 106.334 17.833 143.001 53.5s65.667 84.167 87 145.5c14 40 28.333 104.5 43 193.5
s31.334 198.167 50.001 327.5l15 99l-93 -2c-13.333 1.33301 -20 7.33301 -20 18c0 9.33301 3.16699 15.833 9.5 19.5s17 6 32 7s42.167 1.5 81.5 1.5c20.667 83.333 40.5 149.333 59.5 198s44.167 86.834 75.5 114.501s72 41.5 122 41.5c37.333 0 66.5 -6 87.5 -18
s32.833 -27.667 35.5 -47c0.666992 -1.33301 1 -3.66602 1 -6.99902v-1v0z" />
    <glyph glyph-name="fl" unicode="fl" horiz-adv-x="593" 
d="M574 893.5c12.667 -3 18.998 -11.166 18.998 -24.499c0 -4 -0.333008 -7.33301 -1 -10v-2l-26 -105l-88.5 -421c-30.333 -148.667 -45.5 -234.334 -45.5 -257.001c0 -13.333 2.66699 -23.333 8 -30s12.666 -10 21.999 -10c10.667 0 19.334 1.33301 26.001 4
s13 6.66699 19 12c5.33301 4 9.83301 6.83301 13.5 8.5s8.16699 2.5 13.5 2.5c6 0 11 -1.83301 15 -5.5s6 -9.16699 6 -16.5c0 -14.667 -9.33301 -26.167 -28 -34.5s-41 -12.5 -67 -12.5c-24 0 -42.167 6.33301 -54.5 19s-18.5 29.334 -18.5 50.001
c0 44 16.333 144.667 49 302l6 30c10 49.333 26 123.833 48 223.5s39.667 175.167 53 226.5c-17.333 1.33301 -29.666 2 -36.999 2c-84 0 -153 -31.5 -207 -94.5s-91.667 -146.5 -113 -250.5h162c18.667 0 28 -6.33301 28 -19c0 -7.33301 -3.33301 -12.666 -10 -15.999
s-16.667 -6 -30 -8c-18 -0.666992 -44.167 -1.33398 -78.5 -2.00098s-61.5 -1 -81.5 -1c-8.66699 -48 -26 -158.667 -52 -332l-28 -181c-22.667 -140.667 -69 -240.334 -139 -299.001c-42 -35.333 -99.333 -53 -172 -53c-24 0 -51.167 4.66699 -81.5 14
s-56.166 20.833 -77.499 34.5s-32 26.5 -32 38.5c0 6.66699 3 12 9 16s14.667 5.66699 26 5c25.333 -18 46 -31.167 62 -39.5s31.667 -13.833 47 -16.5s35.666 -4 60.999 -4c100.667 0 174 66.333 220 199c14 40 28.333 104.5 43 193.5s31.334 198.167 50.001 327.5l15 99
l-93 -2c-13.333 1.33301 -20 7.33301 -20 18c0 9.33301 3.16699 15.833 9.5 19.5s17 6 32 7s42.167 1.5 81.5 1.5c29.333 94 57.833 168.333 85.5 223s64 97.5 109 128.5s103.5 46.5 175.5 46.5c32 0 54.333 -1.5 67 -4.5z" />
    <glyph glyph-name="f_f" unicode="ff" horiz-adv-x="684" 
d="M819 824c0 -10 -6.66895 -19.666 -20.002 -28.999c-18 3.33301 -44.667 5 -80 5c-46.667 0 -86.834 -27.833 -120.501 -83.5s-57.167 -127.834 -70.5 -216.501l127 -1c18.667 0 28 -6.33301 28 -19c0 -16 -16 -24.667 -48 -26h-31h-86
c-8.66699 -48 -26 -158.667 -52 -332l-28 -181c-23.333 -142.667 -69.666 -242.334 -138.999 -299.001c-42 -35.333 -99.333 -53 -172 -53c-26.667 0 -56.5 5.5 -89.5 16.5s-59.167 23.833 -78.5 38.5l-2 -2c-42 -35.333 -99.333 -53 -172 -53
c-24 0 -51.167 4.66699 -81.5 14s-56.166 20.833 -77.499 34.5s-32 26.5 -32 38.5c0 6.66699 3 12 9 16s14.667 5.66699 26 5c36 -26 63.667 -42.5 83 -49.5s45 -10.5 77 -10.5c58.667 0 106.334 17.833 143.001 53.5s65.667 84.167 87 145.5c14 40 28.333 104.5 43 193.5
s31.334 198.167 50.001 327.5l15 99l-93 -2c-13.333 1.33301 -20 7.33301 -20 18c0 9.33301 3.16699 15.833 9.5 19.5s17 6 32 7s42.167 1.5 81.5 1.5c20.667 83.333 40.5 149.333 59.5 198s44.167 86.834 75.5 114.501s72 41.5 122 41.5c55.333 0 83 -10 83 -30
c0 -10 -6.66699 -19.667 -20 -29c-18 3.33301 -44.667 5 -80 5c-46.667 0 -86.834 -27.833 -120.501 -83.5s-57.167 -127.834 -70.5 -216.501h293c20.667 83.333 40.5 149.333 59.5 198s44.167 86.834 75.5 114.501s72 41.5 122 41.5c55.333 0 83 -10 83 -30z
M403.998 29.501c14.667 89 31.3301 198.167 49.9971 327.5l15 99l-93 -2l-8 1l-192 -1c-8.66699 -48 -26 -158.667 -52 -332l-28 -181c-19.333 -115.333 -53 -202.333 -101 -261c26.667 -18 48.834 -29.667 66.501 -35s40.834 -8 69.501 -8
c58.667 0 106.334 17.833 143.001 53.5s65.667 84.167 87 145.5c14 40 28.333 104.5 43 193.5z" />
    <glyph glyph-name="f_f_i" unicode="ffi" horiz-adv-x="869" 
d="M861 781c0 -10 -5.67188 -20.668 -17.0049 -32.001c-10 -8 -20.667 -12 -32 -12s-21.833 4.66699 -31.5 14s-14.5 19.666 -14.5 30.999c0 6.66699 1 12.334 3 17.001c-10 2 -21.667 3 -35 3c-32.667 0 -63.167 -13.167 -91.5 -39.5s-52.166 -62.333 -71.499 -108
s-33.333 -97.167 -42 -154.5l263 19h3c6 0 10 -2 12 -6c4.66699 -4 8.33398 -9.83301 11.001 -17.5s4 -15.834 4 -24.501c0 -13.333 -15.333 -85.333 -46 -216s-46 -200 -46 -208c0 -7.33301 3.33301 -11 10 -11c3.33301 0 9.33301 4.33301 18 13c8 8 14.667 12 20 12
c10.667 0 16 -6.66699 16 -20c0 -8 -4.66699 -16 -14 -24s-20 -14.5 -32 -19.5s-21.333 -7.5 -28 -7.5c-22.667 0 -34 18.333 -34 55c0 9.33301 1.66699 17.666 5 24.999c3.33301 11.333 6.33301 24.333 9 39l15 67l20 88c6.66699 32.667 14.667 69.334 24 110.001
c1.33301 4 2.66602 10.667 3.99902 20c6.66699 28.667 10 45.334 10 50.001v10l-1 10l-95 -4l-158 -6c-8.66699 -48 -26 -158.667 -52 -332l-28 -181c-23.333 -142.667 -69.666 -242.334 -138.999 -299.001c-42 -35.333 -99.333 -53 -172 -53
c-26.667 0 -56.667 5.5 -90 16.5s-59.666 23.833 -78.999 38.5l-2 -2c-42 -35.333 -99.333 -53 -172 -53c-24 0 -51.167 4.66699 -81.5 14s-56.166 20.833 -77.499 34.5s-32 26.5 -32 38.5c0 6.66699 3 12 9 16s14.667 5.66699 26 5c36 -26 63.667 -42.5 83 -49.5
s45 -10.5 77 -10.5c58.667 0 106.334 17.833 143.001 53.5s65.667 84.167 87 145.5c14 40 28.333 104.5 43 193.5s31.334 198.167 50.001 327.5l15 99l-93 -2c-13.333 1.33301 -20 7.33301 -20 18c0 9.33301 3.16699 15.833 9.5 19.5s17 6 32 7s42.167 1.5 81.5 1.5
c20.667 83.333 40.5 149.333 59.5 198s44.167 86.834 75.5 114.501s72 41.5 122 41.5c55.333 0 83 -10 83 -30c0 -10 -6.66699 -19.667 -20 -29c-18 3.33301 -44.667 5 -80 5c-46.667 0 -86.834 -27.833 -120.501 -83.5s-57.167 -127.834 -70.5 -216.501h294
c20.667 83.333 40.5 149.333 59.5 198s44.167 86.834 75.5 114.501s72 41.5 122 41.5c37.333 0 66.5 -6 87.5 -18s32.833 -27.667 35.5 -47c0.666992 -1.33301 1 -3.66602 1 -6.99902v-1v0zM404.995 29.499c14.667 89 31.332 198.168 49.999 327.501l15 99l-93 -2l-8 1
l-193 -1c-8.66699 -48 -26 -158.667 -52 -332l-28 -181c-18 -112.667 -51.667 -199.334 -101 -260.001c28 -18.667 50.667 -30.667 68 -36s40.333 -8 69 -8c58.667 0 106.334 17.833 143.001 53.5s65.667 84.167 87 145.5c14 40 28.333 104.5 43 193.5z" />
    <glyph glyph-name="f_f_l" unicode="ffl" horiz-adv-x="953" 
d="M924 893.5c12.667 -3 18.998 -11.166 18.998 -24.499c0 -4 -0.333008 -7.33301 -1 -10v-2l-26 -105l-88.5 -421c-30.333 -148.667 -45.5 -234.334 -45.5 -257.001c0 -13.333 2.66699 -23.333 8 -30s12.666 -10 21.999 -10c10 0 18.5 1.33301 25.5 4s13.5 6.66699 19.5 12
c5.33301 4 9.83301 6.83301 13.5 8.5s8.16699 2.5 13.5 2.5c6 0 11 -1.83301 15 -5.5s6 -9.16699 6 -16.5c0 -14.667 -9.33301 -26.167 -28 -34.5s-41 -12.5 -67 -12.5c-24 0 -42.167 6.33301 -54.5 19s-18.5 29.334 -18.5 50.001c0 44 16.333 144.667 49 302l6 30
c10 49.333 26 123.833 48 223.5s39.667 175.167 53 226.5c-17.333 1.33301 -29.666 2 -36.999 2c-84 0 -153 -31.5 -207 -94.5s-91.667 -146.5 -113 -250.5h162c18.667 0 28 -6.33301 28 -19c0 -7.33301 -3.33301 -12.666 -10 -15.999s-16.667 -6 -30 -8
c-18 -0.666992 -44.167 -1.33398 -78.5 -2.00098s-61.5 -1 -81.5 -1c-8.66699 -48 -26 -158.667 -52 -332l-28 -181c-22.667 -140.667 -69 -240.334 -139 -299.001c-42 -35.333 -99.333 -53 -172 -53c-27.333 0 -58.333 5.83301 -93 17.5s-61 25.167 -79 40.5l-6 -5
c-42 -35.333 -99.333 -53 -172 -53c-24 0 -51.167 4.66699 -81.5 14s-56.166 20.833 -77.499 34.5s-32 26.5 -32 38.5c0 6.66699 3 12 9 16s14.667 5.66699 26 5c36 -26 63.667 -42.5 83 -49.5s45 -10.5 77 -10.5c58.667 0 106.334 17.833 143.001 53.5
s65.667 84.167 87 145.5c14 40 28.333 104.5 43 193.5s31.334 198.167 50.001 327.5l15 99l-93 -2c-13.333 1.33301 -20 7.33301 -20 18c0 9.33301 3.16699 15.833 9.5 19.5s17 6 32 7s42.167 1.5 81.5 1.5c20.667 83.333 40.5 149.333 59.5 198s44.167 86.834 75.5 114.501
s72 41.5 122 41.5c55.333 0 83 -10 83 -30c0 -10 -6.66699 -19.667 -20 -29c-18 3.33301 -44.667 5 -80 5c-46.667 0 -86.834 -27.833 -120.501 -83.5s-57.167 -127.834 -70.5 -216.501h300h1c29.333 94 57.833 168.333 85.5 223s64 97.5 109 128.5s103.5 46.5 175.5 46.5
c32 0 54.333 -1.5 67 -4.5zM411.998 29.501c14.667 89 31.334 198.167 50.001 327.5l15 99l-93 -2c-2.66699 0 -5.33398 0.666992 -8.00098 2l-200 -2c-8.66699 -48 -26 -158.667 -52 -332l-28 -181c-18 -112 -50.667 -197.667 -98 -257c29.333 -20 53.333 -32.833 72 -38.5
s45 -8.5 79 -8.5c100.667 0 174 66.333 220 199c14 40 28.333 104.5 43 193.5z" />
    <glyph glyph-name=".notdef" horiz-adv-x="965" 
d="M524 -31c-8 1.33301 -16.6641 1.99609 -25.9971 1.99609c-8 0 -22.667 -2.33301 -44 -7c-2 2.66699 -3 5.33398 -3 8.00098c9.33301 7.33301 23.666 11 42.999 11l7 1h7l-26 19c-6 2.66699 -12 6.66699 -18 12c-20.667 12.667 -31 21 -31 25s1.66699 7 5 9l8 6
c-5.33301 5.33301 -8 11 -8 17c0 7.33301 0.333008 12.333 1 15c-54 29.333 -98.667 66.666 -134 111.999c-23.333 28 -43 55.333 -59 82l-21 34l-42 14l-28 10c-10 2.66699 -17.667 5.33398 -23 8.00098l-36 15c-20 8 -35.333 16.333 -46 25s-16 16 -16 22s3.66699 9 11 9
l256 -22l78 16c63.333 11.333 118.333 22.333 165 33c50 12 81.333 27.333 94 46c37.333 65.333 79.666 98 126.999 98c20 0 38.667 -2.33301 56 -7v1l74 26c2 0 3 -0.666992 3 -2v-1l-25 -69l70 3c1.33301 0 2 -0.333008 2 -1v-2l-64 -66l-1 1
c-2 -158 -82.333 -291 -241 -399c0 -7.33301 -1.83301 -13.166 -5.5 -17.499s-7.83398 -6.5 -12.501 -6.5l-12 -12c42 -14.667 73.667 -27.334 95 -38.001l21 1c23.333 0 44 -6.33301 62 -19v-2c0 -1.33301 -0.333008 -2.33301 -1 -3l-3 -2c-19.333 8.66699 -32 13 -38 13
c-4 0.666992 -8 0.833984 -12 0.500977s-6.66699 -0.5 -8 -0.5c16.667 -8 29 -18 37 -30c-0.666992 -2.66699 -3.66699 -4.66699 -9 -6c-21.333 21.333 -42 32 -62 32l-17 -1c-2 -0.666992 -4.33301 -1 -7 -1l-12 -4l-8 -4l-8 -3h-4c-2 0 -3 1.66699 -3 5
c4.66699 5.33301 8.83398 9 12.501 11s7.16699 3.33301 10.5 4s5.66602 1.33398 6.99902 2.00098l13 4c-22.667 11.333 -41 19.333 -55 24c-21.333 7.33301 -32 12 -32 14c0 4 3.66699 9 11 15c-4.66699 0 -8.66699 2 -12 6s-5.66602 8.33301 -6.99902 13h-27
c-21.333 0 -39.666 1.33301 -54.999 4c-6 -16 -13.667 -24 -23 -24l-4 1c-2.66699 -1.33301 -5.66699 -3 -9 -5s-5.33301 -3.66699 -6 -5c43.333 -26.667 71.333 -45.667 84 -57c2 -0.666992 7.66699 -1.66699 17 -3c10 -1.33301 16.333 -2.66602 19 -3.99902
c14 -4 26 -12.667 36 -26c0 -2 -0.666992 -3.66699 -2 -5l-3 -2c-8.66699 8 -15.834 13.333 -21.501 16s-14.834 5 -27.501 7c13.333 -8 22.333 -21 27 -39c-0.666992 -2.66699 -2 -4 -4 -4h-4c-17.333 27.333 -35 43 -53 47zM569.003 229.996l92.9971 -71.999
c2.66699 0.666992 7.83398 6 15.501 16s11.5 16 11.5 18l-38 33l-52 45l73 97c-16 14 -28.333 22.667 -37 26l-74 -93c-46 36 -78.333 60.333 -97 73c-13.333 -15.333 -22 -28.333 -26 -39l91 -72l-72 -93c0.666992 -2.66699 5.83398 -7.83398 15.501 -15.501
s15.834 -11.5 18.501 -11.5z" />
    <glyph glyph-name="NULL" 
 />
    <glyph glyph-name="NULL" 
 />
    <glyph glyph-name="nonmarkingreturn" unicode="&#xd;" horiz-adv-x="260" 
 />
    <glyph glyph-name="space" unicode=" " horiz-adv-x="260" 
 />
    <glyph glyph-name="exclam" unicode="!" horiz-adv-x="327" 
d="M89 180c61.333 264.667 103.664 497.332 126.997 697.999c4 31.333 9 64.333 15 99c7.33301 33.333 11.333 66.333 12 99c2 6.66699 5.83301 12.334 11.5 17.001s11.5 7 17.5 7c8 0 13.667 -5.66699 17 -17c-1.33301 -28.667 -5.66602 -64 -12.999 -106
c-8.66699 -54 -16.334 -110 -23.001 -168c-7.33301 -68 -22.166 -160.833 -44.499 -278.5s-47.166 -234.5 -74.499 -350.5c-7.33301 -13.333 -16.666 -20 -27.999 -20c-10 0 -15.667 6.66699 -17 20zM76.998 -44.002c-3.33301 3.33301 -5.00098 7.33301 -5.00098 12
s0.333008 7.66699 1 9c-13.333 5.33301 -20 15 -20 29s5.83301 26 17.5 36s23.5 15 35.5 15c10.667 0 19 -3.5 25 -10.5s9 -16.5 9 -28.5c0 -14 -4.83301 -28.667 -14.5 -44s-21.5 -23 -35.5 -23c-5.33301 0 -9.66602 1.66699 -12.999 5z" />
    <glyph glyph-name="quotedbl" unicode="&#x22;" horiz-adv-x="260" 
d="M110 819c0 34.667 14.334 83.666 43.001 146.999c7.33301 13.333 16.666 20 27.999 20c12 0 18 -5 18 -15v-5l-14 -35c-10 -20.667 -19.667 -56 -29 -106c-2 -7.33301 -6 -13.166 -12 -17.499s-11.667 -6.5 -17 -6.5c-11.333 0 -17 6 -17 18zM204.001 824.999
c0 40.667 17.001 89 51.001 145c6.66699 8 15.667 12 27 12c10.667 0 16 -5.66699 16 -17v-4c0 -1.33301 -3 -7 -9 -17c-8 -13.333 -19 -43.333 -33 -90c-4.66699 -16.667 -9.33398 -28.667 -14.001 -36s-12 -11 -22 -11c-10.667 0 -16 6 -16 18z" />
    <glyph glyph-name="numbersign" unicode="#" horiz-adv-x="689" 
d="M318 80c11.333 34 20.834 69.8301 28.501 107.497s16.834 87.5 27.501 149.5l5 27c-33.333 -1.33301 -58.666 -2 -75.999 -2c-34.667 -1.33301 -60.334 -2.66602 -77.001 -3.99902l-49 -192c-6.66699 -26.667 -10 -52 -10 -76c-0.666992 -7.33301 -4 -13.833 -10 -19.5
s-11.667 -8.5 -17 -8.5c-12.667 0 -19 7 -19 21c0 40.667 19.667 131 59 271c-18 -2 -44.333 -6.33301 -79 -13c-24 -5.33301 -50.667 -8.66602 -80 -9.99902c-14 2 -21 7.66699 -21 17c0 6 3 12.167 9 18.5s14 9.83301 24 10.5c10.667 0.666992 24.667 2.33398 42 5.00098
s29.333 4.33398 36 5.00098c15.333 2.66699 42.666 7 81.999 13c1.33301 6.66699 5.66602 22.334 12.999 47.001l11 41c7.33301 28 12.666 50.333 15.999 67c-17.333 -0.666992 -37.666 -3.33398 -60.999 -8.00098c-14.667 -2.66699 -25.334 -4.33398 -32.001 -5.00098
l-23 -4c-14 -2 -29 -6.33301 -45 -13c-7.33301 -5.33301 -13 -8 -17 -8c-10.667 0 -17 6.66699 -19 20c9.33301 29.333 46 46.666 110 51.999c26 3.33301 38.667 5 38 5c6 1.33301 15.667 2.66602 29 3.99902l27 3l6 51c0.666992 4.66699 2.83398 24.834 6.50098 60.501
s10.167 67.167 19.5 94.5c8 23.333 19 35 33 35s21 -9.66699 21 -29c-0.666992 -8 -4.66699 -15 -12 -21c-5.33301 -25.333 -10 -58 -14 -98c-3.33301 -35.333 -7 -65.333 -11 -90l48 1c18.667 0 47.334 -0.666992 86.001 -2c20 88.667 41 157 63 205c8 10.667 17 16 27 16
c10.667 0 16 -8 16 -24c-22.667 -51.333 -43.334 -117.666 -62.001 -198.999c56.667 -3.33301 103 -5 139 -5s65.333 0.666992 88 2c11.333 -3.33301 17 -9 17 -17c0 -21.333 -22 -32 -66 -32c-43.333 0 -106 2 -188 6l-19 -106l-7 -39l184 -1c11.333 -3.33301 17 -9 17 -17
c0 -6 -2.33301 -11.833 -7 -17.5s-10.334 -9.5 -17.001 -11.5l-185 1c-22 -134 -42 -228.667 -60 -284c-7.33301 -13.333 -16.666 -20 -27.999 -20c-10 0 -15.667 6.66699 -17 20zM387.001 409.997c10.667 63.333 19.3311 112 25.998 146
c-19.333 1.33301 -42.666 2 -69.999 2h-39c-11.333 0 -19.666 -0.333008 -24.999 -1l-18 -72l-22 -80z" />
    <glyph glyph-name="dollar" unicode="$" horiz-adv-x="560" 
d="M153 -55l14.0029 51.998c-79.333 16.667 -132.666 55.667 -159.999 117c-9.33301 22 -14 44.667 -14 68c0 44.667 8 83.5 24 116.5s43.667 66.833 83 101.5c6.66699 5.33301 13 8 19 8c12.667 0 19 -5.33301 19 -16c0 -6.66699 -1.33301 -11.667 -4 -15
c-34 -31.333 -58 -60.833 -72 -88.5s-21 -60.834 -21 -99.501c0 -38 12.667 -70.167 38 -96.5s58.666 -44.166 99.999 -53.499l159 537c-40 96 -60 167.667 -60 215c0 50 12.333 91.833 37 125.5s60 50.5 106 50.5c5.33301 0 15.666 -1 30.999 -3c6 16.667 11.333 37 16 61
c2.66699 6.66699 6.83398 12.334 12.501 17.001s11.167 7 16.5 7c10.667 0 16 -6 16 -18c0 -20 -6 -47 -18 -81c37.333 -21.333 64 -57.666 80 -108.999c2.66699 -4.66699 4 -9.66699 4 -15c0 -6.66699 -2.83301 -12.5 -8.5 -17.5s-11.5 -7.5 -17.5 -7.5
c-10 0 -16 7.33301 -18 22c-2.66699 16.667 -8.83398 32.834 -18.501 48.501s-22.5 28.167 -38.5 37.5c-8.66699 -20.667 -18.334 -52.334 -29.001 -95.001l-63 -229l35 -83c44.667 -100 67 -183 67 -249c0 -46 -8.33301 -89 -25 -129s-43.334 -72.5 -80.001 -97.5
s-83 -37.5 -139 -37.5c-4 0 -15.333 0.666992 -34 2l-12 -46c-7.33301 -13.333 -16.333 -20 -27 -20s-16.667 6.66699 -18 20zM406.003 823.998c8.66699 35.333 18.999 68.332 30.999 98.999c-9.33301 1.33301 -18.333 2 -27 2c-23.333 0 -43.166 -10.667 -59.499 -32
s-24.5 -46.666 -24.5 -75.999c0 -46 11 -101 33 -165zM241.002 32.9971c64 0 114.667 23.667 152 71c31.333 39.333 47 90 47 152c0 28 -6.16699 61.833 -18.5 101.5s-31.5 91.167 -57.5 154.5l-71 -240l-27 -92c-30.667 -105.333 -45 -154.333 -43 -147h18z" />
    <glyph glyph-name="percent" unicode="%" horiz-adv-x="502" 
d="M56 -37c43.333 144 105.666 325 186.999 543c24 62.667 38.667 102.334 44 119.001c55.333 160 97 266 125 318c6.66699 5.33301 12.667 8 18 8c13.333 0 20 -5.33301 20 -16c0 -4.66699 -4.66699 -14.334 -14 -29.001c-9.33301 -13.333 -22 -41 -38 -83
s-33 -91.333 -51 -148c-14.667 -48 -35 -105.667 -61 -173c-72 -190 -133.667 -369.667 -185 -539c-7.33301 -13.333 -16.666 -20 -27.999 -20c-9.33301 0 -15 6.66699 -17 20zM75.5 765c-19.667 15.333 -29.5 33.332 -29.5 53.999c0 36.667 9.66699 65.334 29 86.001
s44 31 74 31c28.667 0 52 -9 70 -27s27 -41.333 27 -70c0 -29.333 -8.83301 -52.833 -26.5 -70.5s-41.167 -26.5 -70.5 -26.5s-53.833 7.66699 -73.5 23zM199 835.999c0 37.333 -17.666 56.001 -52.999 56.001c-16 0 -29 -5.33301 -39 -16s-15 -24.334 -15 -41.001
c0 -16 4.16699 -27.333 12.5 -34s21.166 -10 38.499 -10c37.333 0 56 15 56 45zM340.001 -1c-8 1.33301 -11.999 5.66602 -11.999 12.999c0 6.66699 2.66699 13.167 8 19.5s12 9.83301 20 10.5l34 -2c12 0 22.167 4 30.5 12s12.5 20.333 12.5 37
c0 18 -6.33301 35.333 -19 52s-26.667 25 -42 25s-28.833 -5.66699 -40.5 -17s-17.5 -22.666 -17.5 -33.999c0 -18.667 6.66699 -33 20 -43c2.66699 -6.66699 4 -11.667 4 -15c0 -6.66699 -2.83301 -12.5 -8.5 -17.5s-13.5 -7.5 -23.5 -7.5s-18.833 7.33301 -26.5 22
s-11.5 29.334 -11.5 44.001c0 18.667 5 37 15 55s23.167 32.5 39.5 43.5s34.166 16.5 53.499 16.5s36.5 -5.33301 51.5 -16s26.833 -24.334 35.5 -41.001s13 -33.667 13 -51c0 -39.333 -9 -67.333 -27 -84s-43.333 -25 -76 -25c-14.667 0 -25.667 1 -33 3z" />
    <glyph glyph-name="ampersand" unicode="&#x26;" horiz-adv-x="763" 
d="M207 36.5c-50.667 32.333 -89.9951 76.9922 -117.995 133.992s-42 120.5 -42 190.5c0 46 9.16699 89 27.5 129s38.833 71.333 61.5 94c30.667 31.333 69 56 115 74c-54 46 -81 100 -81 162c0 19.333 5.33301 39 16 59s25 36.667 43 50c34 27.333 79 41 135 41
c53.333 0 98.666 -9.66699 135.999 -29s63.666 -45 78.999 -77c0.666992 -12.667 -1.83301 -21.667 -7.5 -27s-12.167 -8 -19.5 -8s-13.333 5.33301 -18 16c-8.66699 24 -27.5 43.167 -56.5 57.5s-63.5 21.5 -103.5 21.5c-42.667 0 -80 -10.167 -112 -30.5
s-48 -47.5 -48 -81.5c0 -46 18.667 -83.667 56 -113c13.333 -11.333 29.666 -20.333 48.999 -27c28 0 49.667 -3.66699 65 -11s23 -17.333 23 -30c0 -7.33301 -3 -13.5 -9 -18.5s-13.333 -7.5 -22 -7.5c-40.667 8 -65.667 14.333 -75 19
c-37.333 -4 -71.833 -18.167 -103.5 -42.5s-56.834 -55.5 -75.501 -93.5s-28 -78.667 -28 -122c0 -62 12 -118.167 36 -168.5s57.333 -89.833 100 -118.5s90.667 -43 144 -43c63.333 0 118.333 13.333 165 40s82.167 60.334 106.5 101.001s36.5 80.667 36.5 120
c0 42.667 -8.16699 77.334 -24.5 104.001s-42.833 49 -79.5 67c-39.333 -17.333 -69.5 -41.666 -90.5 -72.999s-31.5 -64.333 -31.5 -99c0 -9.33301 1.16699 -17.166 3.5 -23.499s5.83301 -13.833 10.5 -22.5c5.33301 -10.667 8 -18 8 -22
c0 -6.66699 -2.83301 -12.834 -8.5 -18.501s-11.834 -8.5 -18.501 -8.5c-12.667 0 -23 11 -31 33c-6.66699 18.667 -10 37 -10 55c0 38 12.167 75.5 36.5 112.5s55.833 68.833 94.5 95.5c11.333 8.66699 45.333 23.334 102 44.001l34 13c56.667 24.667 85 60.334 85 107.001
l-9 81c2 6 5.83301 11.5 11.5 16.5s10.834 7.5 15.501 7.5c18 0 27 -37.333 27 -112c0 -12 -3.66699 -26.167 -11 -42.5s-18 -32.166 -32 -47.499c-34 -34 -79.333 -59.333 -136 -76c40.667 -22.667 67.5 -49.167 80.5 -79.5s19.5 -67.5 19.5 -111.5
c0 -51.333 -17 -101.166 -51 -149.499s-79 -87.166 -135 -116.499c-55.333 -28.667 -109.333 -43 -162 -43c-64.667 0 -122.334 16.167 -173.001 48.5z" />
    <glyph glyph-name="quotesingle" unicode="'" horiz-adv-x="141" 
d="M110 819c0 70.667 8.32812 126.668 24.9951 168.001c6.66699 10.667 14.334 16 23.001 16c6.66699 0 11.834 -1.5 15.501 -4.5s5.5 -6.16699 5.5 -9.5v-7l-2 -7c-3.33301 -6 -6.66602 -21.667 -9.99902 -47c-2.66699 -32 -4 -46 -4 -42
c-0.666992 -5.33301 -1.66699 -14.833 -3 -28.5s-3.16602 -24.834 -5.49902 -33.501s-5.16602 -14.667 -8.49902 -18c-7.33301 -5.33301 -13 -8 -17 -8c-12.667 0 -19 7 -19 21z" />
    <glyph glyph-name="parenleft" unicode="(" horiz-adv-x="284" 
d="M147 -261c-63.333 114 -95 252.664 -95 415.997c0 195.333 45.333 379.333 136 552c30.667 56.667 59 101.667 85 135c31.333 38 50.666 60.667 57.999 68c40.667 40.667 65.334 61 74.001 61c5.33301 3.33301 10.666 5 15.999 5c8 0 12 -3.66699 12 -11
c0 -6.66699 -2.66699 -13.5 -8 -20.5s-13 -14.833 -23 -23.5c-12 -9.33301 -21 -16.666 -27 -21.999c-10 -8 -18 -15.333 -24 -22c-123.333 -141.333 -201.666 -313.666 -234.999 -516.999c-10 -62.667 -15 -124.667 -15 -186c0 -124 20.333 -236.667 61 -338
c7.33301 -17.333 18 -37.666 32 -60.999s21 -37.333 21 -42v-3c0 -8 -3.33301 -15.5 -10 -22.5s-13 -10.5 -19 -10.5c-10 0 -23 14 -39 42z" />
    <glyph glyph-name="parenright" unicode=")" horiz-adv-x="271" 
d="M-205 -251c0 7.33301 5.83105 16.667 17.498 28s27.834 25.333 48.501 42c12 10 17.667 14.667 17 14c21.333 18 40.333 35.667 57 53s37 43 61 77c78.667 108.667 138.667 236.667 180 384c26 92 39 171.667 39 239c0 42 -2.16699 78.333 -6.5 109
s-9.33301 55.667 -15 75s-14.5 46.333 -26.5 81c-12 35.333 -18.333 64 -19 86c2 12.667 9.66699 22.667 23 30c4 1.33301 8.33301 2 13 2c4 0 8 -3.66699 12 -11c2 -22.667 10.667 -55 26 -97c14 -37.333 24.667 -81 32 -131s11 -92.333 11 -127
c0 -61.333 -11.167 -135.333 -33.5 -222s-51.5 -170.667 -87.5 -252c-38 -82.667 -75.667 -145.334 -113 -188.001c-6.66699 -6.66699 -12.667 -13.667 -18 -21l-26 -28c-20 -24 -37.333 -42.667 -52 -56c-9.33301 -9.33301 -28.333 -26.666 -57 -51.999l-50 -44
c-7.33301 -4 -13.666 -6 -18.999 -6c-9.33301 0 -14 5 -14 15z" />
    <glyph glyph-name="asterisk" unicode="*" horiz-adv-x="335" 
d="M272 586c-32 34.667 -54.3291 61.666 -66.9961 80.999l-42 -67c-4.66699 -8 -12.334 -12 -23.001 -12c-12 0 -18 5.66699 -18 17c0 2 0.666992 5.66699 2 11l50 79c-27.333 -6 -52.333 -17 -75 -33c-8 -4 -14 -6 -18 -6c-5.33301 0 -9.5 1.83301 -12.5 5.5
s-4.5 8.5 -4.5 14.5c0 6.66699 4 13.334 12 20.001c31.333 20 60 33.667 86 41c-4.66699 6 -11.667 19 -21 39s-17.333 33.667 -24 41c-1.33301 4 -2 8.33301 -2 13c0 6 2.66699 11.667 8 17s11.333 8 18 8c10.667 0 22.667 -12 36 -36c5.33301 -9.33301 11 -20.333 17 -33
l16 -31v-1c22 35.333 37.333 62 46 80c7.33301 10 15.666 15 24.999 15c12 0 18 -5.66699 18 -17c0 -6.66699 -5.66699 -19.667 -17 -39l-26 -45c40.667 4 62 6.33301 64 7c16 0 24 -5 24 -15c0 -6 -2.33301 -11.833 -7 -17.5s-10.334 -9.83398 -17.001 -12.501
c-10 -1.33301 -23.667 -2.66602 -41 -3.99902l-37 -3c17.333 -26 40 -53.667 68 -83c2.66699 -2.66699 4 -7.66699 4 -15c0 -6.66699 -2.66699 -12.667 -8 -18s-11 -8 -17 -8c-6.66699 0 -12.334 2.33301 -17.001 7z" />
    <glyph glyph-name="plus" unicode="+" horiz-adv-x="441" 
d="M166 189c0 26.667 6.66406 70.3311 19.9971 130.998l-15 -2c-3.33301 -1.33301 -10.333 -2.66602 -21 -3.99902c-8.66699 -1.33301 -18.334 -3.33301 -29.001 -6c-26 -11.333 -45 -17 -57 -17c-13.333 0 -20 5 -20 15c0 4.66699 1 8 3 10
c4 6.66699 9.33301 12.334 16 17.001s12.334 7 17.001 7c2.66699 0 5.33398 -0.666992 8.00098 -2c30 14 62.333 22 97 24h8c0.666992 4.66699 2.33398 14 5.00098 28l7 30c1.33301 4 2 12.667 2 26v22c0 18 6.66699 30.667 20 38c4 2.66699 8.33301 4 13 4
c12.667 0 19 -8 19 -24c0 -20.667 -2.66699 -43.667 -8 -69l-6 -27c-3.33301 -9.33301 -5.33301 -18 -6 -26h7c13.333 0 31 -1.66699 53 -5c16.667 -3.33301 32.334 -5 47.001 -5s25.667 0.666992 33 2c9.33301 -2 14 -7.33301 14 -16s-6.66699 -17 -20 -25l-11 -5l-131 11
c-10 -54.667 -15 -96.667 -15 -126v-14c-5.33301 -23.333 -16.333 -35 -33 -35c-11.333 0 -17 14.333 -17 43z" />
    <glyph glyph-name="comma" unicode="," horiz-adv-x="161" 
d="M-38 -168c0 5.33301 1.99707 11 5.99707 17c12.667 14.667 26.834 36.667 42.501 66s26.834 52 33.501 68c0 2 -1 3.66699 -3 5c-2.66699 0.666992 -4 3 -4 7c-8 -2.66699 -13.667 -4 -17 -4c-13.333 0 -20 7 -20 21c0 12.667 4.66699 24.5 14 35.5s21.333 16.5 36 16.5
c28.667 0 43 -18 43 -54c0 -24 -10.167 -54.833 -30.5 -92.5s-42.166 -70.167 -65.499 -97.5c-6 -4 -11.667 -6 -17 -6c-12 0 -18 6 -18 18z" />
    <glyph glyph-name="hyphen" unicode="-" horiz-adv-x="425" 
d="M114 268l-27.999 1l-19 -3c-0.666992 0 -1.16699 0.166992 -1.5 0.5l-0.5 0.5h-3c-12 0 -18 6.33301 -18 19c0 10 5.66699 17.833 17 23.5s25.666 8.5 42.999 8.5c14 0 35 -1.66699 63 -5c28.667 -3.33301 56.334 -5 83.001 -5c29.333 0 62.666 5 99.999 15h6
c6 0 10.5 -1.5 13.5 -4.5s4.5 -6.5 4.5 -10.5c0 -31.333 -66.333 -47 -199 -47c-28.667 0 -49 2.33301 -61 7z" />
    <glyph glyph-name="period" unicode="." horiz-adv-x="125" 
d="M-5 -12l-4 0.000976562c-19.333 0 -29 11.333 -29 34c0 11.333 4.83301 21.666 14.5 30.999s20.167 14 31.5 14s22 -4 32 -12c11.333 -11.333 17 -22.333 17 -33c0 -10 -3.83301 -18.833 -11.5 -26.5s-16.5 -11.5 -26.5 -11.5c-10.667 0 -18.667 1.33301 -24 4z" />
    <glyph glyph-name="slash" unicode="/" horiz-adv-x="398" 
d="M-115 -433c0 2 6.00293 18.665 18.0029 49.998c8 18.667 22 54.334 42 107.001l27 70l80 207l90 224c25.333 64 59.5 145.167 102.5 243.5l99.5 222.5c36 78 57 132.333 63 163c11.333 58.667 22.666 101 33.999 127c10 23.333 23.333 36.333 40 39h6
c12 0 18 -5.33301 18 -16c0 -10 -6 -19 -18 -27c-6.66699 -12.667 -11.5 -26.167 -14.5 -40.5s-5.83301 -30.833 -8.5 -49.5c-2.66699 -13.333 -8 -32.333 -16 -57c-13.333 -37.333 -45 -112 -95 -224c-44.667 -97.333 -82.334 -183 -113.001 -257l-108 -266l-48 -121.5
l-40 -102.5c-0.666992 -1.33301 -10 -25.666 -28 -72.999l-86 -216c-4.66699 -12.667 -13.334 -19 -26.001 -19s-19 5.33301 -19 16z" />
    <glyph glyph-name="zero" unicode="0" horiz-adv-x="455" 
d="M86.5 43c-22.333 36 -33.5 81.6641 -33.5 136.997c0 80.667 14.167 150.5 42.5 209.5s64.833 99.5 109.5 121.5c24.667 10.667 46.667 16 66 16c18.667 0 32.834 -2 42.501 -6s20.167 -10.333 31.5 -19c6 -4 15 -11.333 27 -22
c5.33301 -5.33301 14.666 -12.666 27.999 -21.999c2.66699 -5.33301 4 -11.333 4 -18c0 -8.66699 -5.33301 -15 -16 -19c18.667 -21.333 28 -55 28 -101c0 -47.333 -10.167 -97.166 -30.5 -149.499s-47.5 -95.166 -81.5 -128.499c-34.667 -35.333 -74.667 -53 -120 -53
c-42.667 0 -75.167 18 -97.5 54zM282 74.9971c28.667 32 50.3311 72.333 64.998 121c13.333 47.333 20 84.333 20 111c0 28.667 -5.33301 56 -16 82c-1.33301 5.33301 -2 10.333 -2 15c0 6 4.33301 12.667 13 20c-4 2.66699 -9.66699 7.66699 -17 15
c-27.333 26.667 -51.666 40 -72.999 40c-38 0 -70.667 -15 -98 -45s-47 -69.333 -59 -118c-11.333 -47.333 -17 -91 -17 -131c0 -66.667 14.667 -114 44 -142c10.667 -10.667 25.667 -16 45 -16c34.667 0 66.334 16 95.001 48z" />
    <glyph glyph-name="one" unicode="1" horiz-adv-x="358" 
d="M-50 8c0 18 3.99805 26.9941 11.998 26.9941c44.667 0 76.334 1 95.001 3c6 0 13.667 0.666992 23 2l21 1c10 94.667 18.667 160.334 26 197.001c6.66699 26.667 15.334 59.334 26.001 98.001c-28.667 -43.333 -62.667 -83.666 -102 -120.999c-6 -4 -11.667 -6 -17 -6
c-12 0 -18 6 -18 18c0 5.33301 2 11 6 17c32 32.667 54 56.334 66 71.001l23.5 31c11.667 15.333 22.167 32.333 31.5 51c23.333 46.667 40.333 77.334 51 92.001c9.33301 11.333 17.666 17 24.999 17c8.66699 0 13 -5.33301 13 -16v-5l-1 -5l-3 -10h1l-2 -3
c-42 -159.333 -69 -300.666 -81 -423.999c38.667 1.33301 66.334 2 83.001 2h42l14 -1l19 -1c11.333 -3.33301 17 -10 17 -20c0 -10.667 -6 -19 -18 -25c-4 -2 -8 -3 -12 -3l-69 5l-237 -4c-7.33301 -4 -13 -6 -17 -6c-12 0 -18 6 -18 18z" />
    <glyph glyph-name="two" unicode="2" horiz-adv-x="504" 
d="M2 12c-15.333 14 -22.999 31.334 -22.999 52.001c0 22 8.16699 40.167 24.5 54.5s36.833 21.5 61.5 21.5c19.333 0 38.5 -2.33301 57.5 -7s35.167 -12 48.5 -22c119.333 118.667 179 210.667 179 276c0 50.667 -33.333 76 -100 76c-24.667 0 -48.167 -4.5 -70.5 -13.5
s-40.333 -20.667 -54 -35s-20.5 -29.5 -20.5 -45.5c-2.66699 -6 -6.66699 -10.833 -12 -14.5s-10.333 -5.5 -15 -5.5c-12 0 -18 6 -18 18c0 24.667 10.833 47.834 32.5 69.501s48 39.167 79 52.5s59.167 20 84.5 20c92.667 0 139 -39.333 139 -118
s-61.333 -179.334 -184 -302.001c30.667 -18 55.167 -30.667 73.5 -38s37.166 -11 56.499 -11c18.667 0 31.667 6.66699 39 20s13.666 33 18.999 59c4.66699 25.333 10.667 44 18 56c4 7.33301 10.667 11 20 11c8.66699 0 14.334 -6 17.001 -18c-4 -50.667 -12 -87 -24 -109
c-24 -43.333 -53 -65 -87 -65c-20.667 0 -40.834 4.16699 -60.501 12.5s-43.167 20.5 -70.5 36.5c-13.333 8 -23.333 13.667 -30 17c-10.667 -14.667 -26.667 -29.834 -48 -45.501s-47 -23.5 -77 -23.5c-21.333 0 -39.666 7 -54.999 21zM140.001 80.001
c-28 11.333 -49.333 17.001 -64 17.001c-16 0 -28.833 -3.33301 -38.5 -10s-14.5 -14.334 -14.5 -23.001c0 -16.667 12.333 -25 37 -25c24 0 50.667 13.667 80 41z" />
    <glyph glyph-name="three" unicode="3" horiz-adv-x="454" 
d="M-36 -388c-38 15.333 -71.168 35.1689 -99.501 59.502s-48.833 50.166 -61.5 77.499c-9.33301 22 -14 40.667 -14 56c0 66.667 13 100 39 100c8 0 13.667 -5.66699 17 -17l-4 -33c-2 -11.333 -3 -24.666 -3 -39.999c0 -32.667 12.833 -63.334 38.5 -92.001
s58.5 -50.667 98.5 -66c38 -14.667 79.667 -22 125 -22c42.667 0 82 8.33301 118 25s66 39.667 90 69c45.333 56.667 68 127 68 211c0 33.333 -8 66.166 -24 98.499s-37.167 58.5 -63.5 78.5s-54.5 30 -84.5 30h-6c-34 -20 -66 -32 -96 -36c-13.333 1.33301 -20 7 -20 17
s9.33301 20.5 28 31.5s39.667 19.167 63 24.5l32 20c19.333 11.333 40.166 27.5 62.499 48.5s41.166 42.833 56.499 65.5s23 42.334 23 59.001c0 30 -5.66699 52.5 -17 67.5s-33.333 22.5 -66 22.5c-66 0 -125 -30.333 -177 -91c-6.66699 -8 -13.334 -12 -20.001 -12
c-13.333 0 -20 6 -20 18c0 16.667 11.833 35.167 35.5 55.5s52.5 37.5 86.5 51.5s65 21 93 21c27.333 0 51 -5.33301 71 -16s35.167 -24.5 45.5 -41.5s15.5 -35.167 15.5 -54.5c0 -28 -8.33301 -56.333 -25 -85c-17.333 -29.333 -44.666 -62 -81.999 -98
c-16 -14.667 -28.333 -25.334 -37 -32.001c52.667 -11.333 94.834 -40 126.501 -86s47.5 -100.333 47.5 -163c0 -66 -12.667 -125 -38 -177s-63.666 -93 -114.999 -123s-114.666 -45 -189.999 -45c-40 0 -79 7.66699 -117 23z" />
    <glyph glyph-name="four" unicode="4" horiz-adv-x="499" 
d="M246 -392c0 3.33301 1.33301 7.00195 4 11.002c2 2.66699 3.33301 7 4 13s1 12.667 1 20c0 6 5 34.667 15 86l7 40l37 208l-274 -3c-14.667 0 -22 6 -22 18c0 6 2 12 6 18l79 90l35 39l56.5 62.5c31.667 35 61.5 71.5 89.5 109.5c35.333 47.333 70.333 102.333 105 165
c6.66699 10.667 16 16 28 16c10 0 15 -8 15 -24c-9.33301 -16.667 -18 -31.334 -26 -44.001c5.33301 -3.33301 8 -8 8 -14l-2 -19c-4 -98 -20 -221 -48 -369c46.667 3.33301 77 6 91 8c16 0 24 -5 24 -15c0 -10.667 -5.66699 -19.667 -17 -27s-27 -11 -47 -11h-60
c-25.333 -138.667 -40.666 -242.334 -45.999 -311.001c0 -2.66699 -0.666992 -10.667 -2 -24c-4.66699 -40.667 -19.334 -61 -44.001 -61c-11.333 0 -17 6 -17 18zM196 27.002c64 0 105.667 0.667969 125 2.00098c22 143.333 38.667 259.666 50 348.999
c-42.667 -65.333 -94 -131.333 -154 -198l-133 -152c12 -0.666992 30.333 -1 55 -1h57z" />
    <glyph glyph-name="five" unicode="5" horiz-adv-x="652" 
d="M150.5 -382.5c-46.333 20.333 -83.666 50.001 -111.999 89.001s-42.5 84.833 -42.5 137.5c0 34 9.33301 51 28 51c7.33301 0 13 -3.66699 17 -11v-14c0 -49.333 11 -91.666 33 -126.999s52.5 -62.166 91.5 -80.499s83.167 -27.5 132.5 -27.5c124 0 207 46.333 249 139
c14.667 33.333 22 69 22 107c0 44.667 -10.167 84.667 -30.5 120s-47.833 62.833 -82.5 82.5s-73 29.5 -115 29.5s-77.333 -4.83301 -106 -14.5s-63.667 -27.834 -105 -54.501c-6 -4 -12 -6 -18 -6c-12 0 -18 6 -18 18c0 2.66699 0.666992 6 2 10
c38.667 53.333 68.667 99.666 90 138.999s37.666 80.333 48.999 123s17 91.334 17 146.001c2 8 6.33301 14 13 18c6 8 13.333 12 22 12c6.66699 0 13 -2.33301 19 -7l14 -13c28 -14 84 -21 168 -21c52 0 97 13 135 39c11.333 7.33301 19.333 11 24 11c11.333 0 17 -6 17 -18
c0 -10.667 -8.33301 -21.667 -25 -33s-35.834 -20.833 -57.501 -28.5s-38.834 -11.834 -51.501 -12.501c-12 -0.666992 -25.667 -1 -41 -1c-94 0 -158 6.66699 -192 20c-4.66699 -106.667 -39.667 -209.667 -105 -309c38 17.333 90.333 26 157 26
c45.333 0 88.833 -11.333 130.5 -34s75.334 -54.334 101.001 -95.001s38.5 -87 38.5 -139c0 -55.333 -12.333 -106 -37 -152s-61.167 -82.5 -109.5 -109.5s-106.166 -40.5 -173.499 -40.5c-52.667 0 -102.167 10.167 -148.5 30.5z" />
    <glyph glyph-name="six" unicode="6" horiz-adv-x="550" 
d="M91 54c-29.333 42.667 -43.9951 99.667 -43.9951 171c0 51.333 8.83301 123 26.5 215s39.5 175.667 65.5 251c28.667 83.333 64.667 150.666 108 201.999s90.666 77 141.999 77c52 0 93 -11.333 123 -34c13.333 -12 28.333 -31.5 45 -58.5s25 -45.5 25 -55.5
c0 -18 -9.66699 -27 -29 -27c-10 0 -16 2.33301 -18 7c-13.333 34.667 -26 60.834 -38 78.501s-25 29.5 -39 35.5s-32.333 9 -55 9c-29.333 0 -54.833 -7 -76.5 -21s-42.834 -34.667 -63.501 -62c-34.667 -47.333 -65.834 -111.833 -93.501 -193.5
s-47.5 -165.5 -59.5 -251.5c41.333 62 92 102.333 152 121c22 6.66699 43 10 63 10c43.333 0 78.166 -19 104.499 -57s39.5 -88.667 39.5 -152c0 -60.667 -9.83301 -116 -29.5 -166s-48.834 -89.667 -87.501 -119s-85 -44 -139 -44c-52 0 -92.667 21.333 -122 64z
M333.505 73.5c31.667 27.667 54.832 64.5 69.499 110.5c14 44 21 85 21 123c0 62 -10.5 106.333 -31.5 133s-51.5 40 -91.5 40c-26 0 -54.167 -10.333 -84.5 -31s-56.666 -49.167 -78.999 -85.5s-35.5 -76.833 -39.5 -121.5v-1c0 -94 20.333 -157.667 61 -191
c15.333 -12 35 -18 59 -18c45.333 0 83.833 13.833 115.5 41.5z" />
    <glyph glyph-name="seven" unicode="7" horiz-adv-x="474" 
d="M38 -405l-1.99902 10.999c0 19.333 5.33301 30.666 16 33.999c17.333 32 39.666 90.333 66.999 175l60 184h-26c-39.333 0 -72.666 1 -99.999 3c-2.66699 -1.33301 -6.33398 -2 -11.001 -2c-11.333 0 -17 6 -17 18c0 10.667 4 18.334 12 23.001h93l64 -1
c50 143.333 105 267.666 165 372.999l10 16c4 4.66699 7.66699 11.667 11 21l-253 4c-8 0 -19.333 -2.33301 -34 -7c-15.333 -5.33301 -27.333 -8 -36 -8c-24 0 -36 11.333 -36 34c0 12 5.66699 20 17 24c10.667 4 29 6 55 6l307 -3c21.333 0 32 -14.333 32 -43
c0 -15.333 -6.33301 -32.666 -19 -51.999c-52 -78 -108.667 -200.333 -170 -367h131c11.333 0 17 -6 17 -18c0 -7.33301 -3 -13.833 -9 -19.5s-13.333 -8.5 -22 -8.5c-46 5.33301 -88.667 8 -128 8h-3c-24.667 -66.667 -50.667 -141 -78 -223c-22 -70 -39 -120 -51 -150
c-6 -14.667 -12.167 -25.667 -18.5 -33s-13.833 -11.666 -22.5 -12.999c-11.333 2 -18.333 6.66699 -21 14z" />
    <glyph glyph-name="eight" unicode="8" horiz-adv-x="497" 
d="M130 7.5c-32 18.333 -58.001 44.165 -78.001 77.498s-30 71.333 -30 114c0 82.667 49.333 169.334 148 260.001l86 80c-24.667 26.667 -47.334 62.334 -68.001 107.001s-31 82.334 -31 113.001c0 63.333 16.333 113.666 49 150.999s77 56 133 56
c28.667 0 52.834 -9.66699 72.501 -29s34.334 -42.5 44.001 -69.5s14.5 -52.167 14.5 -75.5c0 -29.333 -3 -53.833 -9 -73.5s-15 -38.5 -27 -56.5c-19.333 -29.333 -60.333 -72.333 -123 -129l41 -72c58.667 -99.333 88 -181.333 88 -246c0 -42.667 -8.66699 -82 -26 -118
s-41.833 -64.5 -73.5 -85.5s-68.5 -31.5 -110.5 -31.5c-34.667 0 -68 9.16699 -100 27.5zM321.999 601.999c4 4.66699 15.999 17 35.999 37c8.66699 8 19.667 20 33 36c23.333 28.667 35 58.667 35 90c0 52 -10.667 92.667 -32 122c-16.667 22 -37 33 -61 33
c-88.667 0 -133 -50 -133 -150c0 -26 9.33301 -59.5 28 -100.5s37.334 -71.5 56.001 -91.5l5 -8zM304.998 54.999c26 16 46.834 37.668 62.501 65.001s23.5 57 23.5 89c0 49.333 -12 101 -36 155c-10.667 24.667 -36.334 71 -77.001 139l-73 -65
c-90 -82 -135 -154.667 -135 -218c0 -56.667 14 -102.334 42 -137.001s64.667 -52 110 -52c29.333 0 57 8 83 24z" />
    <glyph glyph-name="nine" unicode="9" horiz-adv-x="465" 
d="M-32.5 -416.5c-22.333 9 -42.499 23.6689 -60.499 44.002s-38.333 49.833 -61 88.5l-1 5v5c0.666992 7.33301 4 14 10 20s11.333 9 16 9c2.66699 0 4.83398 -0.666992 6.50098 -2s3 -2.83301 4 -4.5s2.16699 -3.5 3.5 -5.5c2 -4.66699 3.66699 -7 5 -7
c34 -72.667 73.667 -113 119 -121c12 -2 24.333 -3 37 -3c53.333 0 101.666 25 144.999 75c56 64.667 97.667 162 125 292c8 38.667 14 76 18 112c-56 -60.667 -115 -91 -177 -91c-29.333 0 -54.166 9.16699 -74.499 27.5s-35.5 41.166 -45.5 68.499s-15 53.666 -15 78.999
c0 6 0.666992 15 2 27c11.333 79.333 34.666 142.666 69.999 189.999c55.333 72 136 108 242 108c32 0 60.667 -7.33301 86 -22c7.33301 -4 15 -10 23 -18c10 -0.666992 16.667 -3.16699 20 -7.5s5 -11.833 5 -22.5l-1 -38c0 -20 -5.83301 -49.667 -17.5 -89
s-26.834 -76 -45.501 -110c-6 -24 -12.333 -54.333 -19 -91l-9 -44l-20 -96c-32 -155.333 -81.667 -265.666 -149 -330.999c-41.333 -40.667 -94.333 -61 -159 -61c-32.667 0 -60.167 4.5 -82.5 13.5zM318.001 135.002c15.333 18.667 27.999 37 37.999 55
c6.66699 24 14.667 63.333 24 118c10.667 60.667 18.667 100.334 24 119.001c-17.333 16.667 -38.666 25 -63.999 25c-50 0 -92.333 -7.33301 -127 -22s-64.667 -40 -90 -76c-26.667 -38.667 -44.334 -90.334 -53.001 -155.001c-1.33301 -6 -2 -19 -2 -39
c0 -16 4.66699 -35.333 14 -58c16.667 -37.333 46.334 -56 89.001 -56c50.667 0 99.667 29.667 147 89z" />
    <glyph glyph-name="colon" unicode=":" horiz-adv-x="237" 
d="M93.5 349c-8.33301 8.66699 -12.5 20.332 -12.5 34.999c0 16 5.5 31.333 16.5 46s22.833 22 35.5 22c13.333 0 26.333 -5.16699 39 -15.5s19 -21.166 19 -32.499c0 -18.667 -7.33301 -34.667 -22 -48s-30.667 -20 -48 -20c-10 0 -19.167 4.33301 -27.5 13zM23 -15.002
l-1.00098 -0.000976562c-6 0 -12.667 7.16699 -20 21.5s-11 27.833 -11 40.5s4.33301 22.667 13 30s20 11 34 11s27.833 -5 41.5 -15s20.5 -21 20.5 -33c0 -11.333 -3.66699 -21.666 -11 -30.999c-15.333 -17.333 -32.666 -26.666 -51.999 -27.999
c-8 1.33301 -12.667 2.66602 -14 3.99902z" />
    <glyph glyph-name="semicolon" unicode=";" horiz-adv-x="247" 
d="M89.5 362.5c-5 13.667 -7.49805 27.835 -7.49805 42.502c0 13.333 4.5 24.666 13.5 33.999s20.5 14 34.5 14c15.333 0 28.666 -4.83301 39.999 -14.5s17 -21.834 17 -36.501s-5.83301 -28 -17.5 -40s-24.834 -18 -39.501 -18h-5l-6 1c-3.33301 -2 -7 -3 -11 -3
c-7.33301 0 -13.5 6.83301 -18.5 20.5zM-27.498 -150.499c-3.66699 3 -5.5 6.83496 -5.5 11.502s2 11 6 19c30 37.333 49.333 65.666 58 84.999c10 22.667 15 39 15 49v1c-2 -6 -6 -11.333 -12 -16s-12.667 -7 -20 -7c-8 0 -14.333 3.66699 -19 11s-7 16 -7 26
s6.66699 21.5 20 34.5s26 19.5 38 19.5s23.167 -5.83301 33.5 -17.5s15.5 -22.834 15.5 -33.501c0 -26.667 -15.667 -67 -47 -121c-15.333 -26.667 -28 -44 -38 -52c-10.667 -9.33301 -18.667 -14 -24 -14s-9.83301 1.5 -13.5 4.5z" />
    <glyph glyph-name="less" unicode="&#x3c;" horiz-adv-x="456" 
d="M203 89.5c-23.333 24.333 -44.6689 50.9941 -64.002 79.9941s-29 50.833 -29 65.5c0 27.333 22 57 66 89c14.667 10.667 29 22.834 43 36.501s30.667 30.834 50 51.501c22 24 40.833 43 56.5 57s30.5 23.667 44.5 29c8 0 13.5 -0.666992 16.5 -2
s4.5 -3.66602 4.5 -6.99902c0 -15.333 -6 -25.666 -18 -30.999c-11.333 -4.66699 -55 -47 -131 -127c-14.667 -13.333 -27 -23.333 -37 -30c-12 -9.33301 -22.667 -18.333 -32 -27c-8 -7.33301 -12 -14 -12 -20s2.33301 -12.667 7 -20c10 -17.333 24 -37.166 42 -59.499
l33 -40.5l21 -25c1.33301 -1.33301 3.83301 -4.16602 7.5 -8.49902s5.83398 -8 6.50098 -11s1 -6.16699 1 -9.5c0 -6 -3.5 -12 -10.5 -18s-13.5 -9 -19.5 -9c-7.33301 0 -22.666 12.167 -45.999 36.5z" />
    <glyph glyph-name="equal" unicode="=" horiz-adv-x="456" 
d="M48 351c0 33.333 53.334 50 160.001 50s160 -8.66699 160 -26c0 -6 -2.33301 -11.833 -7 -17.5s-10.334 -9.5 -17.001 -11.5c-80 4.66699 -135 7 -165 7c-56 0 -88 -4.66699 -96 -14c-6 -4 -11.667 -6 -17 -6c-12 0 -18 6 -18 18zM58.001 220c0 15.333 12.333 28 37 38
c36.667 14.667 87 22 151 22c16.667 0 41.667 -0.666992 75 -2c25.333 -2 49.333 -3 72 -3c11.333 -4 17 -9.66699 17 -17c0 -6 -2.33301 -11.833 -7 -17.5s-10.334 -9.5 -17.001 -11.5l-146 6c-69.333 0 -120.666 -10.333 -153.999 -31c-5.33301 -1.33301 -9 -2 -11 -2
c-11.333 0 -17 6 -17 18z" />
    <glyph glyph-name="greater" unicode="&#x3e;" horiz-adv-x="456" 
d="M141 136c20 12 49.499 35.333 88.499 70s70.833 65 95.5 91c-28.667 25.333 -53.667 49.666 -75 72.999s-41.333 49.666 -60 78.999c-2 12 0.5 21.333 7.5 28s14.5 10 22.5 10c5.33301 0 9 -0.5 11 -1.5s3 -1.83301 3 -2.5c23.333 -40.667 43.833 -72.167 61.5 -94.5
s33.834 -37.833 48.501 -46.5c20 -12 30 -22.667 30 -32c0 -8.66699 -2.5 -16.167 -7.5 -22.5s-13.167 -14.833 -24.5 -25.5l-32 -30c-37.333 -35.333 -68.5 -63.666 -93.5 -84.999s-48.167 -38 -69.5 -50c-2 -1.33301 -5.33301 -2 -10 -2c-4 0 -7.5 1.33301 -10.5 4
s-4.5 6.33398 -4.5 11.001c0 9.33301 6.33301 18 19 26z" />
    <glyph glyph-name="question" unicode="?" horiz-adv-x="446" 
d="M154 173c15.333 90.667 28 153.001 38 187.001c8.66699 29.333 20 56.5 34 81.5s41.333 66.167 82 123.5c54 78 81 146.333 81 205c0 54.667 -11.167 94.167 -33.5 118.5s-50.5 36.5 -84.5 36.5c-38 0 -72 -5.66699 -102 -17s-53.667 -27.333 -71 -48
s-26 -44.334 -26 -71.001c0 -5.33301 2.66699 -17.666 8 -36.999s8 -30.333 8 -33c0 -8 -4.66699 -12 -14 -12c-29.333 0 -44 28.667 -44 86c0 36.667 11.5 68.667 34.5 96s52.667 48 89 62s73.833 21 112.5 21c77.333 0 129.333 -35.333 156 -106
c9.33301 -26.667 14 -55 14 -85c0 -29.333 -1.83301 -53.5 -5.5 -72.5s-9.16699 -37.167 -16.5 -54.5c-6 -14 -14 -28.667 -24 -44s-20.333 -30 -31 -44l-35 -45c-24.667 -32.667 -43.667 -60.667 -57 -84s-25.5 -54.833 -36.5 -94.5s-21.167 -93.834 -30.5 -162.501
c-0.666992 -7.33301 -4 -13.833 -10 -19.5s-12 -8.5 -18 -8.5c-10.667 0 -16.667 7 -18 21zM126 -4.99902c-6 8.66699 -9 21 -9 37c0 12.667 6.33301 24.5 19 35.5s25 16.5 37 16.5c23.333 0 35 -9.66699 35 -29c0 -10.667 -2.33301 -23 -7 -37
c-10 -18.667 -22.667 -30.667 -38 -36c-18.667 0 -31 4.33301 -37 13z" />
    <glyph glyph-name="at" unicode="@" horiz-adv-x="873" 
d="M262 -30c-98.667 58.667 -163.999 155.664 -195.999 290.997c-10.667 45.333 -16 94.333 -16 147c0 98 18 186.5 54 265.5s88.667 142.833 158 191.5c69.333 49.333 153.666 74 252.999 74c73.333 0 137.5 -18.833 192.5 -56.5s97.5 -92.167 127.5 -163.5
s45 -156 45 -254c0 -34.667 -7.16699 -69.667 -21.5 -105s-33.333 -66.666 -57 -93.999s-49.5 -47 -77.5 -59c-22 -10 -45.667 -15 -71 -15c-38.667 0 -64.667 15.167 -78 45.5s-20 75.5 -20 135.5v35c-30.667 -88 -62.667 -154.167 -96 -198.5s-64.666 -66.5 -93.999 -66.5
c-44 0 -66 40.333 -66 121c0 58.667 7.66699 122.5 23 191.5s38 127.667 68 176s65.667 72.5 107 72.5c16.667 0 33.834 -5.5 51.501 -16.5s26.5 -21.167 26.5 -30.5c0 -7.33301 -3.5 -13.5 -10.5 -18.5s-14.167 -7.5 -21.5 -7.5c-4.66699 0 -12.667 3.66699 -24 11
c-6 4 -12.333 7.5 -19 10.5s-13 4.5 -19 4.5c-10 0 -20.333 -5.33301 -31 -16c-10.667 -10 -22.334 -27 -35.001 -51c-15.333 -27.333 -30.833 -72.333 -46.5 -135s-23.5 -120.334 -23.5 -173.001c0 -58 9 -87 27 -87c16 0 35 17.833 57 53.5s42 75.834 60 120.501
s29 76 33 94c16 62 35.333 93 58 93c15.333 0 23 -31.333 23 -94l-1 -97c0 -40 3 -71 9 -93s17 -33 33 -33c42.667 0 79.667 14.333 111 43c56.667 50.667 85 122.334 85 215.001c0 27.333 -3.66699 58.333 -11 93s-17.333 66.667 -30 96
c-26.667 63.333 -64.5 113.166 -113.5 149.499s-104.167 54.5 -165.5 54.5c-83.333 0 -157 -20.667 -221 -62s-113.333 -98 -148 -170c-34 -70.667 -51 -146.667 -51 -228c0 -212 63 -352.667 189 -422c51.333 -28.667 110.666 -43 177.999 -43c86 0 160.333 26 223 78
c22.667 18.667 41.5 35.834 56.5 51.501s32.5 35.834 52.5 60.501l41 48c6.66699 5.33301 13.334 8 20.001 8c11.333 0 17 -5.33301 17 -16c0 -7.33301 -2.66699 -14.333 -8 -21c-18 -22 -27.667 -33.667 -29 -35c-44 -52 -81.333 -92.333 -112 -121
s-68.5 -52.667 -113.5 -72s-98.833 -29 -161.5 -29c-68.667 0 -132.334 17.667 -191.001 53z" />
    <glyph glyph-name="A" unicode="A" horiz-adv-x="702" 
d="M595.5 293c16.333 -2 26.833 -4.83008 31.5 -8.49707s7 -8.83398 7 -15.501c0 -6 -3.16699 -11.833 -9.5 -17.5s-12.833 -8.16699 -19.5 -7.5l-34 4c2.66699 -27.333 8 -72.833 16 -136.5s12.667 -93.834 14 -90.501c-0.666992 -6.66699 -3.66699 -12.334 -9 -17.001
s-11 -7 -17 -7c-12 0 -22 17 -30 51c-4 19.333 -8.33301 53.666 -13 102.999c-6 58 -9.66699 92.333 -11 103c-54.667 4.66699 -124.667 7.66699 -210 9l-60 1c-86 -129.333 -167 -211.666 -243 -246.999c-25.333 -12.667 -45.333 -19 -60 -19c-17.333 0 -26 8.33301 -26 25
c0 8 3 15.167 9 21.5s12 9.5 18 9.5s11 -2.66699 15 -8c45.333 18 85.666 44.167 120.999 78.5s74.333 81.166 117 140.499l-40 2c-31.333 1.33301 -53.666 3.16602 -66.999 5.49902s-20 7.83301 -20 16.5c0 6.66699 2.83301 13 8.5 19s12.167 9.66699 19.5 11
c16.667 -2.66699 60 -5.66699 130 -9c64 96 130 209.833 198 341.5s109.667 232.167 125 301.5c2.66699 6.66699 7 12.334 13 17.001s11.667 7 17 7c4.66699 0 9.16699 -3.66699 13.5 -11s6.5 -14.666 6.5 -21.999c0 -6.66699 -1.66699 -11.667 -5 -15
c-10.667 -39.333 -21.5 -111.333 -32.5 -216s-16.5 -179 -16.5 -223c0 -52.667 4 -117 12 -193c4.66699 -0.666992 15.167 -2 31.5 -4zM529 751.003c-36 -75.333 -77.667 -154.667 -125 -238s-88 -151.333 -122 -204c91.333 0 169.333 -2.33301 234 -7
c-5.33301 46 -8 105 -8 177c0 75.333 7 166 21 272zM601 24.002v-3v3z" />
    <glyph glyph-name="B" unicode="B" horiz-adv-x="514" 
d="M370 459.5c32.667 -22.333 58.999 -49.9971 78.999 -82.9971s30 -65.833 30 -98.5c0 -93.333 -35.667 -164.333 -107 -213s-170.666 -73 -297.999 -73l-21 1c-2 -9.33301 -3 -17.333 -3 -24c-2 -8 -5.66699 -14.833 -11 -20.5s-11 -8.5 -17 -8.5
c-11.333 0 -17.666 6.66699 -18.999 20c1.33301 13.333 3.66602 26.666 6.99902 39.999l-29 6c-26 4.66699 -43 10.167 -51 16.5s-12 14.166 -12 23.499c0 4 2 8.16699 6 12.5s7.66699 6.5 11 6.5c2 0 9 -2 21 -6c12.667 -4 23.5 -7.16699 32.5 -9.5s19.5 -3.5 31.5 -3.5
l97 422l-30 1c-10 0 -15 5.66699 -15 17c0 16 18 24 54 24c11.333 46.667 22.666 104.667 33.999 174c7.33301 47.333 14.5 87.666 21.5 120.999s16.167 67.333 27.5 102c-6 -2.66699 -16 -9.66699 -30 -21c-4.66699 -4.66699 -9.66699 -8.83398 -15 -12.501
s-10 -5.5 -14 -5.5s-7.83301 1.66699 -11.5 5s-5.5 8.33301 -5.5 15c0 14.667 9.33301 28 28 40s41.334 20.667 68.001 26c4 6.66699 9 10 15 10c5.33301 0 10.666 -2.66699 15.999 -8c62 -2 111.667 -23.333 149 -64s56 -94.667 56 -162c0 -36 -9.5 -71.167 -28.5 -105.5
s-43.833 -63.166 -74.5 -86.499s-62.667 -37.333 -96 -42c36.667 -2 71.334 -14.167 104.001 -36.5zM222.999 804.003c-6.66699 -34.667 -14.001 -76.665 -22.001 -125.998c-2 -10 -5.83301 -32.167 -11.5 -66.5s-12.167 -67.833 -19.5 -100.5
c44.667 0 85.834 9.83301 123.501 29.5s67.5 46.167 89.5 79.5s33 69.666 33 108.999c0 58.667 -15 103.667 -45 135s-70.333 47.666 -121 48.999c-11.333 -38 -20.333 -74.333 -27 -109zM280.498 65.5049c49.667 19 87.5 46.166 113.5 81.499s39 77 39 125
c0 32.667 -10.5 63.834 -31.5 93.501s-48.5 53.5 -82.5 71.5s-69.333 27 -106 27c-21.333 0 -39 0.666992 -53 2l-49 -214.5l-49 -212.5c12 -1.33301 25 -2 39 -2c70 0 129.833 9.5 179.5 28.5z" />
    <glyph glyph-name="C" unicode="C" horiz-adv-x="544" 
d="M131 29c-30.667 29.333 -53.834 65.999 -69.501 109.999s-23.5 87 -23.5 129c0 57.333 9 124.5 27 201.5s43.333 153.833 76 230.5c34.667 82 75.167 148.167 121.5 198.5s94.5 75.5 144.5 75.5c33.333 0 64.166 -10 92.499 -30s50.833 -45.5 67.5 -76.5
s25 -61.5 25 -91.5c-1.33301 -9.33301 -4 -16.333 -8 -21s-8.66699 -7 -14 -7c-6.66699 0 -12.667 3.33301 -18 10s-8.66602 16 -9.99902 28c-5.33301 42 -20.333 75.833 -45 101.5s-55 38.5 -91 38.5s-74.667 -24.667 -116 -74c-34.667 -41.333 -67.5 -97 -98.5 -167
s-55.833 -141.167 -74.5 -213.5s-28 -131.833 -28 -178.5c0 -74 13.667 -135.667 41 -185s66.666 -74 117.999 -74c40 0 85.667 18.667 137 56l17 12l18 13c9.33301 6.66699 16.333 10 21 10c11.333 0 17 -6 17 -18c0 -7.33301 -3.16699 -14 -9.5 -20
s-16.166 -13.333 -29.499 -22c-13.333 -9.33301 -20.666 -14.666 -21.999 -15.999c-56.667 -42.667 -109 -64 -157 -64c-42 0 -78.333 14.667 -109 44z" />
    <glyph glyph-name="D" unicode="D" horiz-adv-x="711" 
d="M63 -32c0 4.66699 0.667969 12.998 2.00098 24.998c-11.333 2.66699 -20.666 4.33398 -27.999 5.00098c-22.667 4 -39.334 8.33301 -50.001 13s-16 13.334 -16 26.001c0 3.33301 1.83301 7.16602 5.5 11.499s7.16699 6.5 10.5 6.5c8.66699 0 18.334 -2.66699 29.001 -8
c8.66699 -4 16.667 -7 24 -9s17.666 -3 30.999 -3c76 370 148.333 657 217 861c-22 -7.33301 -41.833 -15.5 -59.5 -24.5l-30.5 -15.5c-17.333 -9.33301 -27.666 -14 -30.999 -14c-12 0 -18 6 -18 18c0 9.33301 4.33301 17 13 23
c49.333 30.667 97.666 52.334 144.999 65.001c5.33301 8.66699 12.333 13 21 13c5.33301 0 9 -1.66699 11 -5c35.333 7.33301 67.333 11 96 11c83.333 0 147.5 -28.333 192.5 -85s67.5 -141.334 67.5 -254.001c0 -175.333 -36.833 -313.333 -110.5 -414
s-169.167 -167.667 -286.5 -201c-53.333 -15.333 -115.333 -23 -186 -23c-1.33301 -15.333 -4.33301 -26.666 -9 -33.999s-11.334 -11 -20.001 -11c-13.333 0 -20 7.66699 -20 23zM416.501 112.998c79 53.333 137.332 124.001 174.999 212.001s56.5 185 56.5 291
c0 103.333 -20.333 180.166 -61 230.499s-95 75.5 -163 75.5c-26 0 -55.667 -4.33301 -89 -13c-54.667 -172 -108 -376.667 -160 -614c-15.333 -68 -33.666 -155.333 -54.999 -262c118.667 0 217.5 26.667 296.5 80z" />
    <glyph glyph-name="E" unicode="E" horiz-adv-x="594" 
d="M305.5 -5.5c-68.333 2.33301 -118.5 3.83301 -150.5 4.5l-108 3l-34 -3c-18.667 0 -28 7 -28 21c0 4.66699 1 8.33398 3 11.001c4.66699 6.66699 12 24.834 22 54.501s18.667 60.5 26 92.5l53 246l97 450c-10.667 0.666992 -16 7.33398 -16 20.001c0 12 9.66699 23 29 33
c0 20.667 10 31 30 31c10.667 0 16.334 -5 17.001 -15c31.333 7.33301 74.833 13.333 130.5 18s106.834 7 153.501 7c30.667 0 53.667 -1 69 -3c12.667 -2 19 -7 19 -15c0 -9.33301 -2.66699 -16.5 -8 -21.5s-10.666 -7.5 -15.999 -7.5c-104.667 0 -182.834 -2 -234.501 -6
s-91.834 -10.667 -120.501 -20c-11.333 -39.333 -28.333 -114 -51 -224c-18 -86 -29 -137 -33 -153c24.667 -2.66699 75.334 -4 152.001 -4c53.333 0 94.666 0.666992 123.999 2c7.33301 0 12 -1.5 14 -4.5s3 -6.83301 3 -11.5c0 -14 -7 -23 -21 -27s-34.667 -6 -62 -6
l-220 5c-10 -36.667 -25.667 -102.334 -47 -197.001c-25.333 -115.333 -43.666 -192 -54.999 -230c44.667 -0.666992 82 -1.33398 112 -2.00098s54.667 -1.33398 74 -2.00098l240 -4c9.33301 0 15.666 0.333008 18.999 1s6.66602 1 9.99902 1c11.333 -3.33301 17 -9 17 -17
c0 -12.667 -5.66699 -21 -17 -25s-33 -6 -65 -6c-16.667 0 -59.167 1.16699 -127.5 3.5z" />
    <glyph glyph-name="F" unicode="F" horiz-adv-x="758" 
d="M146 -6c44.667 212.667 74.334 377.332 89.001 493.999c-5.33301 -1.33301 -15 -2 -29 -2c-14.667 0 -27.5 1.5 -38.5 4.5s-16.5 8.16699 -16.5 15.5c0 12 4.16699 19.5 12.5 22.5s17.166 4.33301 26.499 4s15.333 -0.5 18 -0.5l35 1l3 25c10.667 89.333 26 181 46 275
c-47.333 -12.667 -85.166 -25 -113.499 -37s-53.5 -24.333 -75.5 -37c-13.333 -7.33301 -22 -11 -26 -11c-12 0 -18 6 -18 18c0 16 15.5 31.833 46.5 47.5s56.833 26.5 77.5 32.5l121 35c7.33301 32.667 13 54.667 17 66c7.33301 10 15.666 15 24.999 15c12 0 18 -5 18 -15
c0 -5.33301 -1.66699 -10.666 -5 -15.999l-7 -37c154.667 38.667 333.334 59.667 536.001 63c11.333 -3.33301 17 -9 17 -17c0 -6 -2.5 -11.833 -7.5 -17.5s-10.833 -9.5 -17.5 -11.5c-204.667 -3.33301 -384 -25 -538 -65l-17 -84
c-8.66699 -42 -15.334 -76.167 -20.001 -102.5s-9 -57.833 -13 -94.5l-3 -27c72.667 6.66699 130.5 11.167 173.5 13.5s86.5 3.5 130.5 3.5c4.66699 0 8.16699 -1.66699 10.5 -5s3.5 -7 3.5 -11c0 -6.66699 -2.5 -12.834 -7.5 -18.501s-11.167 -9.16699 -18.5 -10.5
c-24.667 -2 -50.667 -3.33301 -78 -4c-96 -3.33301 -169.333 -7.66602 -220 -12.999c-10 -74.667 -24 -158.5 -42 -251.5s-35 -175.5 -51 -247.5c-6 -13.333 -15 -20 -27 -20c-10 0 -15.667 6.66699 -17 20z" />
    <glyph glyph-name="G" unicode="G" horiz-adv-x="745" 
d="M391 -427c20.667 127.333 38.502 221.499 53.502 282.499s34.833 131.5 59.5 211.5c-60.667 -54.667 -140 -82 -238 -82c-48 0 -88.833 14 -122.5 42s-59.167 64.333 -76.5 109s-26 92.334 -26 143.001c0 96 19.833 197.333 59.5 304s90.334 195.667 152.001 267
s123.167 107 184.5 107c55.333 0 99.833 -16.5 133.5 -49.5s55.5 -78.833 65.5 -137.5c-2.66699 -20 -8 -30 -16 -30c-6.66699 0 -14.834 7.33301 -24.501 22s-19.167 32.667 -28.5 54c-26 62.667 -69.333 94 -130 94c-60 0 -117 -34.167 -171 -102.5
s-97.333 -151 -130 -248s-49 -183.5 -49 -259.5c0 -79.333 14.667 -144.166 44 -194.499s76.666 -75.5 141.999 -75.5c115.333 0 194 32 236 96c10.667 16 18 31 22 45s6 28.667 6 44c-3.33301 9.33301 -19.333 28.666 -48 57.999s-55.334 52.666 -80.001 69.999
c-42.667 -8.66699 -91.334 -16.667 -146.001 -24c-13.333 1.33301 -20 7.33301 -20 18c0 8.66699 4 16.334 12 23.001c43.333 31.333 81 47 113 47c19.333 0 38 -5 56 -15c81.333 18 172 43 272 75c16 0 24 -5.66699 24 -17c0 -4 -1.33301 -9 -4 -15
c-86 -142 -150.667 -295 -194 -459c-14 -52 -25 -97.167 -33 -135.5l-31 -152.5l-21 -108c-0.666992 -7.33301 -4.16699 -13.833 -10.5 -19.5s-12.166 -8.5 -17.499 -8.5c-10.667 0 -16.667 7 -18 21zM613.502 336.999c17.667 35.333 29.832 58.668 36.499 70.001
c-60 -20 -119.333 -37 -178 -51c15.333 -14.667 33 -33 53 -55s35.333 -39.333 46 -52c10.667 23.333 24.834 52.666 42.501 87.999z" />
    <glyph glyph-name="H" unicode="H" horiz-adv-x="837" 
d="M96 -14c22.667 95.333 57.667 228.671 105 400.004c4.66699 15.333 11 38.333 19 69c-21.333 -6 -36 -13 -44 -21s-12 -18.333 -12 -31c0 -9.33301 -1.5 -16.5 -4.5 -21.5s-9.5 -7.5 -19.5 -7.5c-14 0 -21 9.66699 -21 29c0 24.667 8.66699 44.167 26 58.5
s46.333 26.833 87 37.5c18 75.333 36.333 200 55 374l8 71c2 16 11.667 24 29 24c6.66699 0 11.334 -1.33301 14.001 -4s3.66699 -7 3 -13c-8 -94.667 -28 -241 -60 -439c98.667 25.333 225.667 41.666 381 48.999c15.333 112.667 33.666 227 54.999 343l8 50
c1.33301 7.33301 4.83301 13.166 10.5 17.499s11.834 6.5 18.501 6.5c4.66699 0 8.66699 -1.5 12 -4.5s5 -7.16699 5 -12.5c0 -2.66699 -5.33301 -36.667 -16 -102c-26.667 -164.667 -42.334 -263.667 -47.001 -297h112c5.33301 0 9.5 -1.83301 12.5 -5.5
s4.5 -7.83398 4.5 -12.501c0 -5.33301 -2.33301 -10.833 -7 -16.5s-10.334 -9.5 -17.001 -11.5l-112 1c-4 -32 -14.333 -90.667 -31 -176c-14 -74.667 -24.667 -135.834 -32 -183.501s-12 -94.5 -14 -140.5c-0.666992 -8 -4.16699 -14.667 -10.5 -20s-12.5 -8 -18.5 -8
c-10 0 -15.667 7 -17 21c2.66699 76.667 21 200 55 370l9 47l14 88c-154.667 -6 -283.667 -23 -387 -51c-16.667 -68 -38.667 -150 -66 -246c-28 -100 -48.667 -177.333 -62 -232c-7.33301 -13.333 -16.666 -20 -27.999 -20c-10 0 -15.667 6.66699 -17 20z" />
    <glyph glyph-name="I" unicode="I" horiz-adv-x="435" 
d="M200 -4c-30.667 4 -54.0029 6 -70.0029 6c-19.333 0 -38 -2.33301 -56 -7h-5c-6.66699 0 -11.667 1.66699 -15 5s-5 7.33301 -5 12c0 12 8.33301 20.667 25 26s41 8 73 8c31.333 167.333 66.333 331.666 105 492.999l47 201l41 175h-81c-12.667 0 -19 6.33301 -19 19
c0 6 3.16699 11.833 9.5 17.5s13.5 8.5 21.5 8.5c82.667 0 134.334 -0.333008 155.001 -1h43c10 -2.66699 15 -8 15 -16c0 -6.66699 -2.66699 -12.834 -8 -18.501s-11.666 -9.16699 -18.999 -10.5c-23.333 0 -39.833 0.166992 -49.5 0.5s-16.5 0.5 -20.5 0.5
c-97.333 -392 -163 -682 -197 -870c41.333 -1.33301 68.833 -4.16602 82.5 -8.49902s20.5 -11.166 20.5 -20.499c0 -4.66699 -3 -10 -9 -16s-12.667 -9.33301 -20 -10c-13.333 0 -34.666 2 -63.999 6z" />
    <glyph glyph-name="J" unicode="J" horiz-adv-x="536" 
d="M-10 103c-19.333 42 -29.001 67.333 -29.001 76s2.5 16.167 7.5 22.5s10.167 9.5 15.5 9.5c11.333 0 18 -4.33301 20 -13c12 -48 31.333 -88 58 -120s60 -48 100 -48c64.667 0 114.834 31.167 150.501 93.5s64.167 144.833 85.5 247.5l114 541
c-24.667 -13.333 -49 -20 -73 -20c-21.333 0 -56 6 -104 18c-32 8.66699 -56.667 13.667 -74 15c-9.33301 4 -14 9.33301 -14 16s2.83301 13 8.5 19s12.167 9.66699 19.5 11c11.333 -1.33301 33 -6 65 -14c46.667 -12 80 -18 100 -18c22.667 0 44.667 6.33301 66 19
c6 3.33301 12.333 4.83301 19 4.5s12.334 -0.5 17.001 -0.5c9.33301 0 15.666 -5.66699 18.999 -17c-30.667 -114 -72 -316.667 -124 -608c-22 -111.333 -55.167 -197.5 -99.5 -258.5s-108.5 -91.5 -192.5 -91.5c-67.333 0 -119 38.667 -155 116z" />
    <glyph glyph-name="K" unicode="K" horiz-adv-x="613" 
d="M-7 12c27.333 152 64.668 330.999 112.001 536.999l93 403c2.66699 6.66699 6.83398 12.334 12.501 17.001s11.167 7 16.5 7c10.667 0 16 -6 16 -18c-16 -90.667 -34 -177 -54 -259l-58 -255l210 235l245 280c6.66699 5.33301 13.667 8 21 8c10.667 0 16 -5.66699 16 -17
c0 -7.33301 -2.66699 -14 -8 -20l-227 -261l-203 -231c6 -60 18.667 -116.333 38 -169s43 -97.5 71 -134.5s57.333 -63.5 88 -79.5c23.333 -13.333 48.666 -20 75.999 -20c38.667 0 68 14.667 88 44c6.66699 5.33301 12.667 8 18 8c13.333 0 20 -6 20 -18
c0 -7.33301 -4.66699 -16.5 -14 -27.5s-20.833 -21 -34.5 -30s-25.834 -14.167 -36.501 -15.5c-18 -3.33301 -34 -5 -48 -5c-28 0 -54.667 5.66699 -80 17s-50 29.666 -74 54.999c-37.333 37.333 -69 86.333 -95 147s-45 124.334 -57 191.001l-18.5 -19
c-9 -9.33301 -15.167 -16.666 -18.5 -21.999c-34.667 -154.667 -57.667 -268.334 -69 -341.001c-1.33301 -8 -4.83301 -14.667 -10.5 -20s-11.5 -8 -17.5 -8c-10 0 -16 7 -18 21z" />
    <glyph glyph-name="L" unicode="L" horiz-adv-x="538" 
d="M116.5 -3c-43.667 1.33301 -67.998 2.50098 -72.998 3.50098s-8.16699 2.83301 -9.5 5.5c-3.33301 4 -5 9.66699 -5 17c0 14 5 28 15 42c14 22 30.333 73.333 49 154s40.667 183.667 66 309l24 115l61 290c2 6.66699 6 12.334 12 17.001s11.667 7 17 7
c9.33301 0 15 -5.66699 17 -17c-14.667 -64 -35.667 -166.667 -63 -308c-16 -84 -38.5 -192.333 -67.5 -325s-48.833 -217 -59.5 -253c71.333 -12 129 -18 173 -18c49.333 1.33301 85.333 2.66602 108 3.99902s44.667 3.33301 66 6c11.333 0 17 -5.66699 17 -17
c0 -5.33301 -2.33301 -11 -7 -17s-10.334 -10 -17.001 -12c-53.333 -4.66699 -98 -7 -134 -7c-82.667 1.33301 -145.834 2.66602 -189.501 3.99902z" />
    <glyph glyph-name="M" unicode="M" horiz-adv-x="982" 
d="M796 -1c-2.66699 7.33301 -4 20.999 -4 40.999v43c0 54 4.66699 200.333 14 439c1.33301 54 3 107 5 159s3.33301 94.667 4 128c-28.667 -64 -72.5 -153 -131.5 -267l-107.5 -207l-89 -171c-6.66699 -14 -15 -21 -25 -21c-9.33301 0 -16 4.66699 -20 14l-36 166
c-60.667 271.333 -98 441.333 -112 510c-15.333 -77.333 -31.166 -151.166 -47.499 -221.499l-62.5 -261.5l-34 -143l-46 -198c-7.33301 -13.333 -16.666 -20 -27.999 -20c-10 0 -15.667 6.66699 -17 20c11.333 62.667 27.333 140 48 232l62 268.5l41 174.5l61 259
c2 6.66699 5.83301 12.334 11.5 17.001s11.167 7 16.5 7c8.66699 0 14.667 -5.66699 18 -17l82 -373c26 -130 49.667 -239.333 71 -328c31.333 53.333 70 124.666 116 213.999l186 365l58 116c8 16 17.667 24 29 24c10.667 0 16 -5 16 -15l-2 -27
c-18.667 -317.333 -29.334 -613.666 -32.001 -888.999c2 -2.66699 3 -6.33398 3 -11.001c0 -8.66699 -3.16699 -17.167 -9.5 -25.5s-13.5 -12.5 -21.5 -12.5c-8.66699 0 -14.334 3.66699 -17.001 11z" />
    <glyph glyph-name="N" unicode="N" horiz-adv-x="649" 
d="M437 21c-8.66699 21.333 -17.333 50.3291 -26 86.9961l-19 72c-92.667 354.667 -149.667 576.334 -171 665.001c-18.667 -85.333 -34 -158.333 -46 -219c-59.333 -282.667 -104 -488 -134 -616c-3.33301 -13.333 -12 -20 -26 -20s-21 6 -21 18c0 6 11.333 54.667 34 146
c9.33301 38 41.333 187.667 96 449c48 232.667 73.333 351.334 76 356.001c2 6.66699 7 10 15 10c7.33301 0 13 -2.33301 17 -7s7.33301 -12.667 10 -24c10.667 -51.333 43.5 -183.166 98.5 -395.499s96.5 -367.5 124.5 -465.5c14.667 82.667 45.667 247.667 93 495l70 375
c2.66699 6.66699 7.5 12.334 14.5 17.001s13.833 7 20.5 7c4.66699 0 7.5 -1.16699 8.5 -3.5s1.5 -5.83301 1.5 -10.5v-10l-89 -459c-31.333 -168 -57 -311.333 -77 -430c-1.33301 -5.33301 -3.33301 -15 -6 -29s-6.5 -24.167 -11.5 -30.5s-12.167 -9.5 -21.5 -9.5
c-12 0 -22.333 10.667 -31 32z" />
    <glyph glyph-name="O" unicode="O" horiz-adv-x="661" 
d="M48 295c0 96.667 13.332 190.832 39.999 282.499s63.834 166.334 111.501 224.001s102.167 86.5 163.5 86.5c38.667 0 73.667 -13.333 105 -40c9.33301 -9.33301 14 -18 14 -26c0 -4.66699 -1.66699 -8.33398 -5 -11.001s-8 -4 -14 -4
c-7.33301 0 -15.666 2.33301 -24.999 7c-29.333 16.667 -59.333 25 -90 25c-49.333 0 -93.333 -30.5 -132 -91.5s-68.834 -133.167 -90.501 -216.5s-32.5 -155 -32.5 -215c0 -100 11.333 -173.667 34 -221s58.667 -71 108 -71c51.333 0 98.5 20.833 141.5 62.5
s79.167 95.334 108.5 161.001s51.666 134.5 66.999 206.5c15.333 68 23 134.667 23 200c0 80.667 -12.667 146.667 -38 198c-19.333 37.333 -43.333 60 -72 68c-6 2 -16.333 4.33301 -31 7c-19.333 3.33301 -34.333 6.83301 -45 10.5s-16 8.83398 -16 15.501
c0 12.667 8.33301 20 25 22c88 0 147.333 -33 178 -99s46 -149.667 46 -251c0 -72 -9.66699 -146.167 -29 -222.5s-46.666 -146.833 -81.999 -211.5c-36.667 -66.667 -79.5 -118.834 -128.5 -156.501s-101.167 -56.5 -156.5 -56.5c-118.667 0 -178 105.667 -178 317z" />
    <glyph glyph-name="P" unicode="P" horiz-adv-x="561" 
d="M53 16c5.33301 34 14.167 80.001 26.5 138.001s20.166 94.333 23.499 109c18 82.667 27.333 126.667 28 132c-56.667 18 -85 34.333 -85 49c0 7.33301 2.66699 13.166 8 17.499s11.333 6.5 18 6.5c8.66699 0 22 -3.5 40 -10.5s27.667 -11.167 29 -12.5l100 469
c-29.333 -8.66699 -51 -25.667 -65 -51c-6 -8 -13.667 -12 -23 -12c-12 0 -18 5.66699 -18 17c0 8.66699 5 19.5 15 32.5s24.167 25.333 42.5 37s39.5 19.834 63.5 24.501c7.33301 13.333 15.666 20 24.999 20s15 -5 17 -15c46.667 0 88.5 -10.667 125.5 -32
s65.833 -50.333 86.5 -87s31 -77.334 31 -122.001c0 -81.333 -15.667 -148.333 -47 -201s-70.166 -90.667 -116.499 -114s-93.166 -35 -140.499 -35c-22.667 0 -44 2.66699 -64 8c-3.33301 -18.667 -13 -64.667 -29 -138c-26.667 -130.667 -41.667 -205 -45 -223
c-1.33301 -8 -4.83301 -14.667 -10.5 -20s-11.5 -8 -17.5 -8c-10 0 -16 7 -18 21zM499.001 702.001c0 40 -8.66602 76.832 -25.999 110.499s-42 60.334 -74 80.001s-69 29.5 -111 29.5l-105 -492c21.333 -4.66699 40.666 -7 57.999 -7c34.667 0 68.5 7 101.5 21
s61.833 35 86.5 63c46.667 53.333 70 118.333 70 195z" />
    <glyph glyph-name="Q" unicode="Q" horiz-adv-x="666" 
d="M450 -273c-102.667 58 -204.667 151.67 -306 281.003c-31.333 26 -54.666 64.333 -69.999 115s-23 104 -23 160c0 110 11.833 210.667 35.5 302s58.5 164 104.5 218c56 64.667 124 97 204 97c19.333 0 37.166 -2.5 53.499 -7.5s24.5 -11.833 24.5 -20.5
c0 -4.66699 -3 -9.5 -9 -14.5s-12 -7.5 -18 -7.5c-5.33301 0 -18 2.66699 -38 8c-16 4 -25 6 -27 6c-58 0 -109 -29 -153 -87c-62 -80 -102 -196 -120 -348c-5.33301 -54.667 -8 -101.334 -8 -140.001c0 -177.333 49.667 -266 149 -266c48.667 0 97.334 24.333 146.001 73
c93.333 94 156.333 223 189 387c11.333 54.667 17 110.667 17 168c0 82 -13.167 150.5 -39.5 205.5s-69.166 82.5 -128.499 82.5c-28 0 -52.333 -3.33301 -73 -10c-13.333 2 -20 7.66699 -20 17c0 25.333 31 38 93 38c39.333 0 75.5 -13.833 108.5 -41.5
s59.167 -62.834 78.5 -105.501s29 -85 29 -127c0 -125.333 -16.5 -243.333 -49.5 -354s-80.167 -201.334 -141.5 -272.001c-34 -39.333 -69 -66.666 -105 -81.999s-69.333 -23 -100 -23c-17.333 0 -29.333 1.33301 -36 4c175.333 -198 362 -297 560 -297
c48.667 0 99.334 3.66699 152.001 11s120.667 19 204 35c16 0 24 -5 24 -15c0 -6 -2.33301 -11.833 -7 -17.5s-10.334 -9.83398 -17.001 -12.501c-82.667 -15.333 -151.834 -27 -207.501 -35s-106.834 -12 -153.501 -12c-112 0 -219.333 29 -322 87z" />
    <glyph glyph-name="R" unicode="R" horiz-adv-x="507" 
d="M516 49c4.66699 0 8.83496 -2.50098 12.502 -7.50098s5.5 -10.5 5.5 -16.5c0 -6.66699 -2.33301 -12.334 -7 -17.001c-20.667 -15.333 -41.334 -26.666 -62.001 -33.999s-45.334 -11 -74.001 -11c-42.667 0 -80.167 21.833 -112.5 65.5s-54.5 103.167 -66.5 178.5
c-16 73.333 -24 156.333 -24 249c0 20 5.66699 30 17 30c2 0 9 -2 21 -6c22.667 -8 39 -12 49 -12c25.333 0 51.5 7.16699 78.5 21.5s50.5 33.5 70.5 57.5c41.333 51.333 62 112 62 182c0 36 -6 69 -18 99s-29 53.667 -51 71s-47 26 -75 26
c-32.667 0 -58.667 -2.66699 -78 -8l-184 -902c-4 -11.333 -13.333 -17 -28 -17c-15.333 0 -23 5.33301 -23 16l85 408.5l101 471.5c-10.667 -3.33301 -19.334 -7.66602 -26.001 -12.999s-13.667 -12 -21 -20c-5.33301 -6.66699 -10.333 -11.5 -15 -14.5
s-10.334 -4.16699 -17.001 -3.5c-8.66699 4 -13 10.667 -13 20c0 18 10.333 34.833 31 50.5s47.334 27.5 80.001 35.5c4.66699 14 10 24.5 16 31.5s11.667 10.5 17 10.5c2 0 4 -1.33301 6 -4s3 -6 3 -10c0 -6 -1.66699 -12.333 -5 -19c14.667 2 29.667 3 45 3
c64.667 0 116 -20.5 154 -61.5s57 -99.5 57 -175.5c0 -58 -11.5 -110 -34.5 -156s-56.5 -82 -100.5 -108s-95.667 -39 -155 -39c0 -77.333 6.5 -147.333 19.5 -210s32.167 -112.167 57.5 -148.5s55.333 -54.5 90 -54.5c20.667 0 38 2.83301 52 8.5s30.333 14.167 49 25.5
c2.66699 4.66699 6.33398 7 11.001 7z" />
    <glyph glyph-name="S" unicode="S" horiz-adv-x="618" 
d="M117.5 12c-38.333 15.333 -68.665 37.8311 -90.998 67.498s-33.5 64.834 -33.5 105.501c0 63.333 19 118 57 164c11.333 14 23.666 27.333 36.999 40s24 19 32 19c12.667 0 19 -5.66699 19 -17c0 -5.33301 -1.33301 -10 -4 -14c-33.333 -30 -57.166 -59 -71.499 -87
s-21.5 -58.333 -21.5 -91c0 -56 19.833 -97.667 59.5 -125s89.167 -41 148.5 -41c38 0 71.5 9.83301 100.5 29.5s51.333 46.167 67 79.5s23.5 69.333 23.5 108c0 58.667 -27 150.334 -81 275.001c-54 126 -81 213.667 -81 263c0 51.333 12.333 94 37 128s60 51 106 51
c35.333 0 64.833 -8.83301 88.5 -26.5s41.167 -37.667 52.5 -60s17 -40.5 17 -54.5c0 -6.66699 -2.83301 -12.5 -8.5 -17.5s-11.5 -7.5 -17.5 -7.5c-10 0 -16 6 -18 18c-4.66699 30.667 -17.334 56 -38.001 76s-46 30 -76 30s-53.333 -10.5 -70 -31.5s-25 -47.167 -25 -78.5
c0 -44 6.66699 -86.833 20 -128.5s33.666 -94.167 60.999 -157.5c26.667 -60.667 46.834 -112.167 60.501 -154.5s20.5 -85.5 20.5 -129.5c0 -42.667 -8.33301 -83.5 -25 -122.5s-43.334 -71 -80.001 -96s-83 -37.5 -139 -37.5c-46 0 -88.167 7.66699 -126.5 23z" />
    <glyph glyph-name="T" unicode="T" horiz-adv-x="655" 
d="M169 -17c9.33301 77.333 35.8301 223.833 79.4971 439.5s77.5 377.834 101.5 486.501c-56 2 -105.333 3 -148 3c-36.667 0 -71 -1 -103 -3c-14 2 -21 7.66699 -21 17c0 18.667 17 29 51 31c6 0.666992 15.333 1 28 1l205 -4c9.33301 28 22 42 38 42
c13.333 0 20 -8.33301 20 -25c0 -3.33301 -0.666992 -9 -2 -17c32 2 80.833 4.66699 146.5 8s109.834 5 132.501 5c11.333 -3.33301 17 -9 17 -17c0 -20 -16.333 -30 -49 -30c-26.667 0 -80.667 -2 -162 -6c-48 -3.33301 -83 -5 -105 -5l-62 -293
c-26 -118.667 -47.833 -222.334 -65.5 -311.001s-36.167 -193.667 -55.5 -315c-2 -8 -5.66699 -14.667 -11 -20s-10.666 -8 -15.999 -8c-11.333 0 -17.666 7 -18.999 21z" />
    <glyph glyph-name="U" unicode="U" horiz-adv-x="639" 
d="M137 16c-28 17.333 -49.6689 40.6689 -65.002 70.002s-23 61.333 -23 96c0 13.333 8.66699 70.333 26 171s37.5 207.834 60.5 321.501s43.833 204.167 62.5 271.5c1.33301 4.66699 4.16602 8.33398 8.49902 11.001s8.83301 4 13.5 4c14 0 21 -5.66699 21 -17
c-23.333 -90 -54.166 -232.667 -92.499 -428s-57.5 -310 -57.5 -344c0 -39.333 12.667 -71.833 38 -97.5s60 -38.5 104 -38.5c54 0 97.333 12.5 130 37.5s56.334 58.833 71.001 101.5c24 72 44.167 141.333 60.5 208s34.833 147.667 55.5 243
c2.66699 10.667 11.167 48.5 25.5 113.5s29.833 125.833 46.5 182.5c3.33301 11.333 8.5 20.666 15.5 27.999s13.5 11 19.5 11c12 0 18 -5.66699 18 -17c0 -0.666992 -3 -11.334 -9 -32.001c-15.333 -44.667 -28.333 -89.334 -39 -134.001
c-6.66699 -26.667 -18.667 -80.667 -36 -162c-26 -122.667 -49.667 -225.334 -71 -308.001s-44 -146 -68 -190c-45.333 -85.333 -118.666 -128 -219.999 -128c-35.333 0 -67 8.66699 -95 26z" />
    <glyph glyph-name="V" unicode="V" horiz-adv-x="640" 
d="M195 130c-5.33301 44 -24.334 177.333 -57.001 400c-32 215.333 -51.667 352.333 -59 411c2 6 5.83301 11.5 11.5 16.5s10.834 7.5 15.501 7.5c9.33301 0 15.666 -5.66699 18.999 -17c5.33301 -56 13.5 -122.167 24.5 -198.5l44.5 -294.5
c26.667 -169.333 45.334 -297.666 56.001 -384.999c116 182.667 197 342.334 243 479.001c18.667 54.667 31.667 98.667 39 132s11 67.666 11 102.999c0 22 -1.5 49 -4.5 81s-6.5 66.667 -10.5 104c0 8 2.83301 15.167 8.5 21.5s11.5 9.5 17.5 9.5
c11.333 0 18 -5.66699 20 -17c8.66699 -52 13 -104 13 -156c0 -89.333 -14.167 -178.833 -42.5 -268.5s-72.833 -191.167 -133.5 -304.5c-55.333 -100.667 -109.333 -185.334 -162 -254.001c-8.66699 -10.667 -16.334 -16 -23.001 -16s-11.667 4.66699 -15 14
c-7.33301 54.667 -12.666 98.667 -15.999 132z" />
    <glyph glyph-name="W" unicode="W" horiz-adv-x="834" 
d="M173 -6c-4 6 -5.99707 13.6719 -5.99707 23.0049c0 82 -3.16699 158.833 -9.5 230.5s-14.5 145.167 -24.5 220.5c-10.667 82.667 -19.167 157.5 -25.5 224.5s-9.5 139.5 -9.5 217.5c0 20.667 4 34 12 40c9.33301 6 17 9 23 9c8.66699 0 13 -6 13 -18l-5 -62
c0 -32.667 3.5 -92.667 10.5 -180s17.5 -187 31.5 -299c18 -142.667 29 -252.667 33 -330l40 90c31.333 71.333 54.666 126.333 69.999 165s32 86.667 50 144s40 135.666 66 234.999c-1.33301 34.667 -2 66.334 -2 95.001c0 56 3.33301 96.333 10 121
c7.33301 22 18.333 33 33 33c9.33301 0 16.333 -6.83301 21 -20.5s7 -31.834 7 -54.501c0 -48.667 -7.66699 -107 -23 -175c0.666992 -16.667 1 -47.667 1 -93c0.666992 -126.667 4.5 -236.334 11.5 -329.001s23.167 -167 48.5 -223c81.333 158 142.666 299.667 183.999 425
s62 244.666 62 357.999c0 37.333 -6 71 -18 101s-28.667 45 -50 45c-16.667 0 -33.667 -6 -51 -18l-15 -46c-7.33301 -13.333 -17 -20 -29 -20c-10 0 -15 5.66699 -15 17c0 7.33301 3 21.333 9 42c13.333 46 48.666 69 105.999 69c20.667 0 39.5 -8.83301 56.5 -26.5
s30.333 -39.334 40 -65.001s14.5 -48.834 14.5 -69.501c0 -259.333 -83 -535 -249 -827c-22 -35.333 -40.333 -53 -55 -53s-31.667 34 -51 102c-29.333 106.667 -44 257.334 -44 452.001c-22 -76 -48.667 -157.333 -80 -244s-63 -160.834 -95 -222.501s-59 -92.5 -81 -92.5
c-6 0 -11 3 -15 9z" />
    <glyph glyph-name="X" unicode="X" horiz-adv-x="628" 
d="M481 -22c-10.667 42 -19.833 74.835 -27.5 98.502s-17.5 50.5 -29.5 80.5c-15.333 40 -30.166 81.167 -44.499 123.5s-33.166 102.833 -56.499 181.5l-98 -144l-174 -251c-38.667 -53.333 -63.667 -80 -75 -80c-21.333 0 -32 8 -32 24l121 166.5l153 218.5l88 129
l-112 393c-10 0 -15 5.66699 -15 17c0 14 5.16699 25.167 15.5 33.5s21.166 11.166 32.499 8.49902c2.66699 -2 8 -14 16 -36c9.33301 -28 39.333 -136.667 90 -326l10 -37c100.667 143.333 190 259 268 347c12 13.333 24 24.166 36 32.499s21.667 12.5 29 12.5
c9.33301 0 14 -6 14 -18c0 -5.33301 -4.33301 -13.333 -13 -24l-78 -93l-88 -111l-151 -209c70 -256 126.333 -425.333 169 -508c0 -9.33301 -3.16699 -17.5 -9.5 -24.5s-13.5 -10.5 -21.5 -10.5c-8.66699 0 -14.334 2 -17.001 6z" />
    <glyph glyph-name="Y" unicode="Y" horiz-adv-x="478" 
d="M126.5 3c-2.33301 4 -3.5 8.66602 -3.5 13.999l2 12c14.667 51.333 25.167 91.5 31.5 120.5s12.166 63.5 17.499 103.5l12 76c-28.667 36.667 -65.667 183.334 -111 440.001c-12 72.667 -20.667 128.334 -26 167.001c0 8.66699 2.5 16.167 7.5 22.5s11.167 9.5 18.5 9.5
s13.5 -2 18.5 -6s7.5 -9 7.5 -15c0 -4 -1.66699 -9.33301 -5 -16l12 -89c29.333 -214 62.666 -368 99.999 -462c12.667 26.667 37.334 87.667 74.001 183c36 94 69.667 171.333 101 232s67 115.334 107 164.001c4 5.33301 9.66699 8 17 8c13.333 0 20 -5.66699 20 -17
c0 -6 -10 -23.333 -30 -52c-28 -42.667 -53.5 -84.334 -76.5 -125.001s-45.5 -89 -67.5 -145l-60 -156c-20.667 -56 -38.667 -100 -54 -132c-18 -70 -30 -122.333 -36 -157c-4.66699 -26.667 -18.667 -83.334 -42 -170.001c-2 -6 -5.33301 -10.667 -10 -14
s-10 -4.33301 -16 -3c-3.33301 0.666992 -6.16602 3 -8.49902 7z" />
    <glyph glyph-name="Z" unicode="Z" horiz-adv-x="572" 
d="M432 -216.5c-48.667 21 -94.6641 46.6689 -137.997 77.002s-77 59.166 -101 86.499c-25.333 27.333 -47.833 48.5 -67.5 63.5s-41.834 22.5 -66.501 22.5c-7.33301 0 -14.333 -1.5 -21 -4.5s-12.834 -6.16699 -18.501 -9.5s-9.5 -5.33301 -11.5 -6
c-17.333 -11.333 -30.333 -17 -39 -17c-12 0 -18 6 -18 18c0 7.33301 11.333 27.333 34 60l98 135l14 19l156 214c136.667 191.333 241.667 352.333 315 483c-125.333 -8 -235 -12 -329 -12c-60.667 0 -105 2 -133 6c-9.33301 3.33301 -14 9.66602 -14 18.999
c0 17.333 10 26 30 26c38.667 -0.666992 69.834 -1.33398 93.501 -2.00098s42.167 -1.33398 55.5 -2.00098l105 -2c20.667 0 39.167 0.666992 55.5 2s33.833 3.33301 52.5 6c42.667 4.66699 79 7 109 7c27.333 0 41 -6.66699 41 -20
c0 -9.33301 -31.333 -63.166 -94 -161.499s-141 -215.166 -235 -350.499l-276 -382c17.333 12 36 18 56 18c32 0 78.667 -29.667 140 -89c126.667 -125.333 247 -188 361 -188c38 0 73.5 6.16699 106.5 18.5s61.833 28.166 86.5 47.499c2.66699 2 9.16699 7.5 19.5 16.5
s20.166 16.333 29.499 22s17 8.5 23 8.5c9.33301 0 14 -5.33301 14 -16s-8 -23 -24 -37c-36.667 -31.333 -80 -57.166 -130 -77.499s-98.333 -30.5 -145 -30.5c-40.667 0 -85.334 10.5 -134.001 31.5z" />
    <glyph glyph-name="bracketleft" unicode="[" horiz-adv-x="287" 
d="M-22 -292c14.667 138.667 96.998 550.006 246.998 1234.01c4.66699 10 9.5 15.833 14.5 17.5s14.5 2.16699 28.5 1.5c9.33301 0 19.5 -0.666992 30.5 -2s21.5 -2.33301 31.5 -3l61 -5c4 -0.666992 7.16699 -2.33398 9.5 -5.00098s3.5 -6 3.5 -10
c0 -10.667 -4 -18.334 -12 -23.001s-19.667 -7 -35 -7c-8.66699 0 -27 1.33301 -55 4c-8 1.33301 -20.667 2.66602 -38 3.99902c-67.333 -314.667 -108.333 -509.667 -123 -585l-83 -406c-12.667 -62.667 -22.667 -125.334 -30 -188.001c4 -2 10 -3 18 -3
c18 0 53.667 6.33301 107 19c40 9.33301 63.667 14 71 14c8.66699 0 13 -3.66699 13 -11c-1.33301 -6.66699 -4.83301 -13.334 -10.5 -20.001s-13.167 -11.334 -22.5 -14.001l-32 -9c-29.333 -8 -54 -14.167 -74 -18.5s-39.333 -6.5 -58 -6.5
c-13.333 0 -26.666 1.66699 -39.999 5c-11.333 2 -18.666 7.66699 -21.999 17z" />
    <glyph glyph-name="backslash" unicode="\" horiz-adv-x="398" 
d="M458 -436c-6.66699 7.33301 -13.333 18 -20 32c-8.66699 20.667 -16 48 -22 82l-8 39c-3.33301 14.667 -9.66602 33.667 -18.999 57c-10 27.333 -25 62.333 -45 105l-101.5 228c-44.333 102 -77.833 181.667 -100.5 239l-90 224l-52 132l-19 52l-48 125
c-18.667 48.667 -31 79.667 -37 93c-7.33301 18.667 -11 29 -11 31c0 11.333 6.33301 17 19 17s21.334 -6.33301 26.001 -19l167 -425c82.667 -212.667 145.334 -365.667 188.001 -459l46 -102c44.667 -100 77.167 -174.5 97.5 -223.5s32.166 -84.833 35.499 -107.5l7 -41
c3.33301 -19.333 8.66602 -36 15.999 -50c12 -7.33301 18 -16.333 18 -27s-6 -16 -18 -16c-12.667 2 -22.334 6.66699 -29.001 14z" />
    <glyph glyph-name="bracketright" unicode="]" horiz-adv-x="287" 
d="M404 945c-14.667 -138.667 -96.998 -550.006 -246.998 -1234.01c-4.66699 -10 -9.5 -15.833 -14.5 -17.5s-14.5 -2.16699 -28.5 -1.5c-9.33301 0 -19.5 0.666992 -30.5 2s-21.167 2.33301 -30.5 3l-62 5c-4 0.666992 -7.16699 2.33398 -9.5 5.00098s-3.5 6 -3.5 10
c0 10.667 4 18.334 12 23.001s19.667 7 35 7c8.66699 0 27 -1.33301 55 -4c8 -1.33301 20.667 -2.66602 38 -3.99902c67.333 314.667 108.333 509.667 123 585l83 406c12.667 62.667 22.667 125.334 30 188.001c-4 2 -10 3 -18 3c-18 0 -53.667 -6.33301 -107 -19
c-40 -9.33301 -63.667 -14 -71 -14c-8.66699 0 -13 3.66699 -13 11c1.33301 6.66699 4.83301 13.334 10.5 20.001s13.167 11.334 22.5 14.001l32 9c29.333 8 54 14.167 74 18.5s39.333 6.5 58 6.5c13.333 0 26.666 -1.66699 39.999 -5c11.333 -2 18.666 -7.66699 21.999 -17
z" />
    <glyph glyph-name="asciicircum" unicode="^" horiz-adv-x="685" 
d="M440 824c-5.33301 11.333 -12.668 28.3359 -22.001 51.0029c-10.667 27.333 -17.667 44.333 -21 51c-6.66699 13.333 -11.667 30.333 -15 51l-30 -32c-9.33301 -10 -25.666 -28.667 -48.999 -56c-36 -42.667 -68.5 -76.334 -97.5 -101.001s-56.167 -40.334 -81.5 -47.001
c-5.33301 -1.33301 -9 -2 -11 -2c-8.66699 0 -13 4 -13 12c0 14.667 9.66699 26 29 34c22 9.33301 51.833 31.5 89.5 66.5s80.167 82.167 127.5 141.5c6.66699 8.66699 17.334 21 32.001 37l20 22l7 9c5.33301 6 12.666 9 21.999 9c10 0 15 -4.33301 15 -13
c0 -4.66699 -0.666992 -8.33398 -2 -11.001l-10 -20c-0.666992 -1.33301 -1 -3 -1 -5l13 -48c2 -6 6 -19.667 12 -41s13.333 -42.333 22 -63s18 -39 28 -55c22 -34 46.333 -56 73 -66c5.33301 -3.33301 8 -8.33301 8 -15c0 -6 -4.16699 -12.333 -12.5 -19
s-16.833 -10 -25.5 -10c-41.333 16 -77 56 -107 120z" />
    <glyph glyph-name="underscore" unicode="_" horiz-adv-x="652" 
d="M-9 -19c0 8.66699 2.99902 16 8.99902 22s13.667 9 23 9c10.667 0 21.334 -1.33301 32.001 -4s24 -4 40 -4c19.333 0 34.333 0.333008 45 1l70 4c20.667 0.666992 86.334 1 197.001 1c100 0 178.333 2 235 6c11.333 -3.33301 17 -9 17 -17
c0 -6 -2.33301 -11.833 -7 -17.5s-10.334 -9.5 -17.001 -11.5c-56.667 -3.33301 -129 -5 -217 -5l-332 -7c-63.333 0 -95 7.66699 -95 23z" />
    <glyph glyph-name="grave" unicode="`" horiz-adv-x="277" 
d="M152 1038c-26.667 34 -46.166 62.168 -58.499 84.501s-21.833 45.166 -28.5 68.499c0 8 2.83301 15.167 8.5 21.5s11.5 9.5 17.5 9.5c10 0 16.667 -5.66699 20 -17c5.33301 -18.667 13.333 -37.167 24 -55.5s29 -44.166 55 -77.499c2.66699 -5.33301 4 -10 4 -14
c0 -6.66699 -2.66699 -12.834 -8 -18.501s-11 -8.5 -17 -8.5c-6.66699 0 -12.334 2.33301 -17.001 7z" />
    <glyph glyph-name="a" unicode="a" horiz-adv-x="449" 
d="M312.5 22.5c-13 16.333 -19.501 33.832 -19.501 52.499c0 41.333 11 111.333 33 210c-16.667 -36 -38.167 -72.833 -64.5 -110.5s-52.166 -70.834 -77.499 -99.501s-44 -47.334 -56 -56.001c-16.667 -12.667 -35 -19 -55 -19c-38 0 -57 24 -57 72
c0 46.667 17.667 104.834 53 174.501s77.333 130.167 126 181.5c48.667 50.667 88 76 118 76c30.667 0 48 -13.333 52 -40c2 -8 3 -16.667 3 -26c3.33301 2 7 3 11 3c15.333 0 23 -7.33301 23 -22v-4l-12 -44c-9.33301 -33.333 -19 -82.666 -29 -147.999
s-15 -119.666 -15 -162.999l10 -6c16 -10 24 -20 24 -30c0 -6.66699 -2.33301 -12.667 -7 -18s-10.667 -8 -18 -8c-15.333 0 -29.5 8.16699 -42.5 24.5zM98.999 58.999c68 58 128.331 138.333 180.998 241c22.667 42.667 36.834 70.667 42.501 84s8.5 26.333 8.5 39
c0 6.66699 -1.66699 12.667 -5 18s-7.66602 8 -12.999 8c-6.66699 0 -15.334 -3 -26.001 -9c-26.667 -14 -58.167 -43.667 -94.5 -89s-66.166 -93.333 -89.499 -144c-24.667 -51.333 -37 -97 -37 -137c0 -12 5 -18 15 -18c7.33301 0 13.333 2.33301 18 7z" />
    <glyph glyph-name="b" unicode="b" horiz-adv-x="393" 
d="M97.5 29c-15.667 26 -23.5029 58.3311 -23.5029 96.998c0 28.667 1.66699 56.834 5 84.501s8.33301 60.5 15 98.5l4 26c10 62.667 18.333 111.334 25 146.001c1.33301 8.66699 2.66602 16.334 3.99902 23.001s2.33301 12.667 3 18c6 31.333 11.333 56.666 16 75.999
c3.33301 20 12 63.667 26 131c10.667 47.333 24.334 119 41.001 215c4.66699 10.667 11.334 16 20.001 16c17.333 0 26 -7.33301 26 -22l-2 -7c-16 -108 -34.667 -210 -56 -306c-24 -107.333 -41.667 -189.333 -53 -246c22.667 40.667 44.334 71.5 65.001 92.5
s43.334 31.5 68.001 31.5s44.5 -9.5 59.5 -28.5s22.5 -40.833 22.5 -65.5c0 -51.333 -7.83301 -109.833 -23.5 -175.5s-36.167 -119.167 -61.5 -160.5c-33.333 -55.333 -71 -83 -113 -83c-29.333 0 -51.833 13 -67.5 39zM236.997 100.998
c32 51.333 54.666 117.667 67.999 199c3.33301 25.333 5 49.333 5 72c0 27.333 -2.5 47.833 -7.5 61.5s-14.167 20.5 -27.5 20.5c-14 0 -31.833 -11.833 -53.5 -35.5s-41.167 -53 -58.5 -88s-27.666 -67.833 -30.999 -98.5c-4.66699 -44.667 -7 -80 -7 -106
c0 -56.667 13.333 -85 40 -85c24 0 48 20 72 60z" />
    <glyph glyph-name="c" unicode="c" horiz-adv-x="335" 
d="M53.5 23.5c-18.333 23.667 -27.499 52.165 -27.499 85.498c0 58.667 10.833 119.334 32.5 182.001s50.167 115 85.5 157c34.667 42 72 63 112 63c28.667 0 47.334 -10.333 56.001 -31c2 -3.33301 3.66699 -6.83301 5 -10.5l4 -10.5
c3.33301 -9.33301 6.66602 -14.666 9.99902 -15.999c2.66699 -6.66699 4 -11.667 4 -15c0 -6 -2.83301 -11.667 -8.5 -17s-11.834 -8 -18.501 -8c-14 0 -23 10.333 -27 31s-15 31 -33 31c-24 0 -49.333 -18.5 -76 -55.5s-49.667 -83.833 -69 -140.5
c-18.667 -53.333 -28 -101 -28 -143c0 -59.333 21.667 -89 65 -89c22 0 42.333 10.333 61 31c2 2.66699 5.66699 7.16699 11 13.5s10.333 11 15 14s9 4.5 13 4.5c12.667 0 19 -5.66699 19 -17c0 -13.333 -6.33301 -27.5 -19 -42.5s-29 -27.5 -49 -37.5s-40.667 -15 -62 -15
c-32 0 -57.167 11.833 -75.5 35.5z" />
    <glyph glyph-name="d" unicode="d" horiz-adv-x="439" 
d="M263.5 10.5c-6.33301 19 -9.50195 36.5 -9.50195 52.5c0 13.333 2 29 6 47c-14 -41.333 -31.667 -71.5 -53 -90.5s-48.666 -28.5 -81.999 -28.5c-31.333 0 -55 12.833 -71 38.5s-24 54.5 -24 86.5c0 99.333 18.667 183.666 56 252.999c18 31.333 33.667 54.833 47 70.5
s30.666 30.5 51.999 44.5c20.667 14 46.667 21 78 21c30.667 0 53 -15 67 -45l17 75c22 95.333 40.333 179 55 251l18 90l11 52c0 8 2.83301 15.167 8.5 21.5s11.834 9.5 18.501 9.5c14 0 21 -7.66699 21 -23v-4c0 -18 -11.333 -78.667 -34 -182
c-23.333 -107.333 -38.333 -181.666 -45 -222.999c-7.33301 -42.667 -20.333 -102.667 -39 -180l-14 -55c-15.333 -58.667 -26.5 -105 -33.5 -139s-10.167 -63 -9.5 -87c0 -18 3 -36.667 9 -56c-0.666992 -7.33301 -4.16699 -13.833 -10.5 -19.5s-12.166 -8.5 -17.499 -8.5
c-8 0 -15.167 9.5 -21.5 28.5zM199.498 98.5c28.333 39 53.1699 85.832 74.5029 140.499s32 105 32 151c0 18 -5.16699 34.667 -15.5 50s-23.833 23 -40.5 23c-30.667 0 -59.334 -19.167 -86.001 -57.5s-48.334 -86.166 -65.001 -143.499c-16 -54 -24 -99.333 -24 -136
c0 -24.667 4.83301 -45.167 14.5 -61.5s24.5 -24.5 44.5 -24.5c15.333 0 37.166 19.5 65.499 58.5z" />
    <glyph glyph-name="e" unicode="e" horiz-adv-x="324" 
d="M83 0.5c-12 7 -21.666 17.833 -28.999 32.5c-14 26 -21 57.333 -21 94c0 64 9.66699 124.833 29 182.5s45.666 106.167 78.999 145.5c32 37.333 67 56 105 56c20 0 35.833 -8.16699 47.5 -24.5s17.5 -36.166 17.5 -59.499c0 -40.667 -10.5 -76 -31.5 -106
s-49.167 -55 -84.5 -75c-30.667 -18 -68 -36 -112 -54l-2 -72c0 -56 17 -84 51 -84c14 0 27.5 2.66699 40.5 8s27.167 12.666 42.5 21.999c18 10.667 30.667 16 38 16c11.333 0 17 -6 17 -18c0 -8.66699 -8.16699 -19 -24.5 -31s-35.5 -22.167 -57.5 -30.5
s-40.333 -12.5 -55 -12.5c-21.333 0 -38 3.5 -50 10.5zM193.001 288c23.333 14 41.167 31.666 53.5 52.999s18.5 49.333 18.5 84c0 26 -11 39 -33 39c-19.333 0 -42 -17.667 -68 -53c-27.333 -35.333 -49.333 -81.666 -66 -138.999c-4.66699 -16 -7 -26.667 -7 -32
c44.667 18 78.667 34 102 48z" />
    <glyph glyph-name="f" unicode="f" horiz-adv-x="342" 
d="M-296.5 -397c-30.333 9.33301 -56.1689 20.834 -77.502 34.501s-32 26.5 -32 38.5c0 6.66699 3 12 9 16s14.667 5.66699 26 5c36 -26 63.667 -42.5 83 -49.5s45 -10.5 77 -10.5c58.667 0 106.334 17.833 143.001 53.5s65.667 84.167 87 145.5
c14 40 28.333 104.5 43 193.5s31.334 198.167 50.001 327.5l15 99l-93 -2c-13.333 1.33301 -20 7.33301 -20 18c0 9.33301 3.16699 15.833 9.5 19.5s17 6 32 7s42.167 1.5 81.5 1.5c20.667 83.333 40.5 149.333 59.5 198s44.167 86.834 75.5 114.501s72 41.5 122 41.5
c55.333 0 83 -10 83 -30c0 -10 -6.66699 -19.667 -20 -29c-18 3.33301 -44.667 5 -80 5c-46.667 0 -86.834 -27.833 -120.501 -83.5s-57.167 -127.834 -70.5 -216.501l127 -1c18.667 0 28 -6.33301 28 -19c0 -16 -16 -24.667 -48 -26h-31h-86
c-8.66699 -48 -26 -158.667 -52 -332l-28 -181c-23.333 -142.667 -69.666 -242.334 -138.999 -299.001c-42 -35.333 -99.333 -53 -172 -53c-24 0 -51.167 4.66699 -81.5 14z" />
    <glyph glyph-name="g" unicode="g" horiz-adv-x="380" 
d="M-14 -377c-21.333 22 -31.999 50.666 -31.999 85.999c0 29.333 7.16699 56 21.5 80s31.333 44.833 51 62.5s45.5 38.167 77.5 61.5l11 7.5l8 5.5c28.667 20.667 57.667 43 87 67l20 91c8.66699 39.333 15.667 69 21 89c-18 -52 -39.833 -94.833 -65.5 -128.5
s-51.5 -50.5 -77.5 -50.5c-24.667 0 -43.834 8.83301 -57.501 26.5s-20.5 42.167 -20.5 73.5c0 58.667 10.833 119.667 32.5 183s51.167 117.666 88.5 162.999c36.667 46 78 69 124 69c21.333 0 41.666 -5.33301 60.999 -16c4 2 8.33301 3 13 3c10.667 0 16 -5.33301 16 -16
c0 -9.33301 -2.66699 -22.666 -8 -39.999s-8.66602 -28 -9.99902 -32c-8.66699 -31.333 -23 -91 -43 -179l-44 -203c6.66699 4.66699 21 16.334 43 35.001c2.66699 2 7.66699 6.16699 15 12.5s13.5 11 18.5 14s9.16699 4.5 12.5 4.5c12 0 18 -5.66699 18 -17
c0 -8 -2.66699 -14.667 -8 -20l-105 -78l-29 -147c-19.333 -99.333 -44.333 -166 -75 -200c-24 -26.667 -51.667 -40 -83 -40c-32.667 0 -59.667 11 -81 33zM161.001 68.999c18 19.333 35.5 45.499 52.5 78.499s31.167 68.5 42.5 106.5l39 136l18 66
c-9.33301 8.66699 -22.333 13 -39 13c-28.667 0 -58.5 -19 -89.5 -57s-57.167 -86 -78.5 -144c-20.667 -57.333 -31 -109.666 -31 -156.999s12.333 -71 37 -71c14.667 0 31 9.66699 49 29zM123.001 -332.002c15.333 18.667 27.501 43.167 36.501 73.5
s18.167 69.833 27.5 118.5l15 79c-24 -20 -48 -39 -72 -57c-36.667 -27.333 -67 -54.833 -91 -82.5s-36 -59.5 -36 -95.5c0 -21.333 5.5 -37.333 16.5 -48s26.167 -16 45.5 -16c23.333 0 42.666 9.33301 57.999 28z" />
    <glyph glyph-name="h" unicode="h" horiz-adv-x="468" 
d="M40 9c0 9.33301 32.668 164.333 98.001 465l55.5 273.5l40.5 202.5c3.33301 10 9 15 17 15c17.333 0 28 -8.33301 32 -25l-45 -221.5l-53 -253.5l-38 -175c68 140 132.333 210 193 210c23.333 0 41.333 -9.16699 54 -27.5s19 -40.166 19 -65.499
c0 -24.667 -4.33301 -57.334 -13 -98.001l-16 -84c-18.667 -96.667 -28 -151.667 -28 -165l2 -39c0 -8.66699 -2.83301 -15.5 -8.5 -20.5s-13.167 -7.5 -22.5 -7.5c-8.66699 0 -15.334 2.83301 -20.001 8.5s-7 13.5 -7 23.5c0 6 0.333008 10.667 1 14l58 325c2 10 3 22 3 36
c0 33.333 -9.33301 50 -28 50c-21.333 0 -46.666 -18.5 -75.999 -55.5s-56.833 -78.833 -82.5 -125.5s-41.834 -80 -48.501 -100c-8 -24 -15.667 -50.833 -23 -80.5s-11 -48.5 -11 -56.5c0.666992 -16.667 -1 -27.5 -5 -32.5s-14.333 -7.5 -31 -7.5
c-11.333 0 -17 5.66699 -17 17z" />
    <glyph glyph-name="i" unicode="i" horiz-adv-x="214" 
d="M31 45c0 9.33301 1.66895 17.665 5.00195 24.998c3.33301 11.333 6.33301 24.333 9 39l15 67l20 88c6.66699 32.667 14.667 69.334 24 110.001c1.33301 4 2.66602 10.667 3.99902 20c6.66699 28.667 10 45.334 10 50.001v10c0 5.33301 -2.33301 16.333 -7 33
c0 8 2.83301 15.333 8.5 22s12.5 10 20.5 10c7.33301 0 13.666 -5 18.999 -15s8 -21 8 -33c0 -13.333 -15.333 -85.333 -46 -216s-46 -200 -46 -208c0 -7.33301 3.33301 -11 10 -11c3.33301 0 9.33301 4.33301 18 13c8 8 14.667 12 20 12c10.667 0 16 -6.66699 16 -20
c0 -8 -4.66699 -16 -14 -24s-20 -14.5 -32 -19.5s-21.333 -7.5 -28 -7.5c-22.667 0 -34 18.333 -34 55zM142.002 597.999l-4 0.000976562c-19.333 0 -29 11.333 -29 34c0 11.333 4.83301 21.666 14.5 30.999s20.167 14 31.5 14s22 -4 32 -12
c11.333 -11.333 17 -22.333 17 -33c0 -10 -3.83301 -18.833 -11.5 -26.5s-16.5 -11.5 -26.5 -11.5c-10.667 0 -18.667 1.33301 -24 4z" />
    <glyph glyph-name="j" unicode="j" horiz-adv-x="201" 
d="M-323 -395c-7.33301 4 -11.0039 9.00195 -11.0039 15.002s2.5 12 7.5 18s10.833 9.66699 17.5 11c22.667 -8.66699 51 -13 85 -13c72.667 0 131.334 40 176.001 120s77.667 171.833 99 275.5s41.333 228.167 60 373.5l5.5 46c1.66699 13.333 3.16699 24.666 4.5 33.999
c2 7.33301 5.66699 13 11 17s11 6 17 6c11.333 0 17 -6 17 -18l-21 -150c-37.333 -260.667 -71.666 -439.334 -102.999 -536.001c-25.333 -78.667 -61.166 -134.667 -107.499 -168s-102.166 -50 -167.499 -50c-36.667 0 -66.667 6.33301 -90 19zM136.996 598.002
l-4 0.000976562c-19.333 0 -29 11.333 -29 34c0 11.333 4.83301 21.666 14.5 30.999s20.167 14 31.5 14s22 -4 32 -12c11.333 -11.333 17 -22.333 17 -33c0 -10 -3.83301 -18.833 -11.5 -26.5s-16.5 -11.5 -26.5 -11.5c-10.667 0 -18.667 1.33301 -24 4z" />
    <glyph glyph-name="k" unicode="k" horiz-adv-x="436" 
d="M40 -7.5c-5.33301 3 -8 6.16797 -8 9.50098c0 23.333 15.333 97.333 46 222l12 52l77.5 334c17 76.667 31.167 148 42.5 214l5 29c6 40 11.167 68.5 15.5 85.5s9.83301 25.5 16.5 25.5c21.333 0 32 -11 32 -33c0 -6.66699 -3.66699 -29 -11 -67l-23 -109
c-8 -42.667 -18.667 -92.334 -32 -149.001l-30 -139c26.667 28.667 53.667 43 81 43c24.667 0 42.5 -8.5 53.5 -25.5s16.5 -37.5 16.5 -61.5c0 -37.333 -13.167 -70.833 -39.5 -100.5s-68.833 -62.167 -127.5 -97.5c6 -32.667 17.667 -63.5 35 -92.5
s37.666 -52.167 60.999 -69.5s46.333 -26 69 -26c14.667 0 24.834 4.16699 30.501 12.5s10.834 19.833 15.501 34.5c4 9.33301 9.33301 14 16 14c17.333 0 26 -11 26 -33c0 -13.333 -5.66699 -26 -17 -38c-22 -24.667 -44.333 -37 -67 -37c-36 0 -68.833 11.5 -98.5 34.5
s-54.5 53.167 -74.5 90.5c-14 25.333 -24 55.333 -30 90l-7 -5c-2 -20 -9.33301 -52.667 -22 -98l-21 -89c-2.66699 -16.667 -10.334 -25 -23.001 -25c-8 0 -14.667 1.5 -20 4.5zM149 258.001c44 27.333 78.667 55.3359 104 84.0029c20 23.333 30 49.333 30 78
c0 29.333 -10 44 -30 44c-26 0 -48 -11.5 -66 -34.5s-31.333 -57.167 -40 -102.5c0 -2.66699 -0.5 -5.83398 -1.5 -9.50098s-1.83301 -7.83398 -2.5 -12.501c0.666992 3.33301 -3.33301 -16.334 -12 -59.001c3.33301 3.33301 9.33301 7.33301 18 12z" />
    <glyph glyph-name="l" unicode="l" horiz-adv-x="261" 
d="M63.5 11c-12.333 12.667 -18.498 29.332 -18.498 49.999c0 18 1 34.5 3 49.5s5.66699 38.5 11 70.5c10.667 62 24.334 132.667 41.001 212l26 126c57.333 274 88 417.667 92 431c3.33301 10.667 10.666 16 21.999 16c14 0 21 -7.66699 21 -23l-4 -26
c-3.33301 -21.333 -7 -41.166 -11 -59.499l-22 -105.5l-68.5 -324c-27.667 -132 -45.167 -220 -52.5 -264c-8.66699 -48 -13 -78 -13 -90c0 -10 3 -19 9 -27s13.333 -12 22 -12c9.33301 0 18.166 1.83301 26.499 5.5s13.833 6.16699 16.5 7.5l17 9
c5.33301 2.66699 8.66602 4 9.99902 4c14.667 0 22 -7.33301 22 -22s-9.33301 -26.167 -28 -34.5s-41 -12.5 -67 -12.5c-24 0 -42.167 6.33301 -54.5 19z" />
    <glyph glyph-name="m" unicode="m" horiz-adv-x="688" 
d="M47 -10c-4.66699 2.66699 -7.00293 6 -7.00293 10c6 18.667 10.667 38 14 58c4.66699 24.667 10 45.334 16 62.001c26 102.667 48.667 219.667 68 351l3 17c0 4.66699 4.66699 12.334 14 23.001c6 2.66699 11 4 15 4c8.66699 0 14.667 -5.66699 18 -17v-8
c-0.666992 -44 -8 -95.667 -22 -155l-25 -105l24 52c34.667 81.333 68 140 100 176c30 34 63.333 51 100 51c19.333 0 35.5 -8 48.5 -24s19.5 -35 19.5 -57v-8c-0.666992 -2 -1 -4.66699 -1 -8c36 44 73.667 74 113 90c12.667 5.33301 25 8 37 8
c12.667 0 24.334 -6 35.001 -18s16 -27.333 16 -46c0 -36.667 -7.33301 -80.334 -22 -131.001c-9.33301 -30.667 -16.666 -53.667 -21.999 -69c-32 -94.667 -49.667 -158.667 -53 -192c-0.666992 -6 -1.66699 -13.5 -3 -22.5s-2.33301 -14.5 -3 -16.5
c-5.33301 -16 -14.333 -24 -27 -24c-15.333 0 -23 16.333 -23 49c0 20 3.66699 42 11 66c6 18 12.333 38.333 19 61c2 8 8.33301 27.333 19 58c15.333 43.333 27.333 80 36 110s14.667 63 18 99c0 12.667 -1.5 20.5 -4.5 23.5s-9.16699 4.5 -18.5 4.5
c-10 0 -23.833 -6 -41.5 -18s-35.167 -28 -52.5 -48c-40 -45.333 -70.667 -104 -92 -176c-6.66699 -24.667 -12.334 -42.334 -17.001 -53.001c-22 -66.667 -35.667 -110 -41 -130c-5.33301 -21.333 -9.66602 -34 -12.999 -38c-4 -5.33301 -10 -8 -18 -8
c-15.333 0 -23.666 8.33301 -24.999 25c6.66699 46.667 16 88 28 124s27 76.333 45 121c11.333 29.333 21.166 58.833 29.499 88.5s12.5 54.834 12.5 75.501c0 22.667 -7 34 -21 34c-23.333 0 -50 -21.833 -80 -65.5s-57.667 -92 -83 -145s-41.666 -90.5 -48.999 -112.5
l-11 -30.5c-2.66699 -7.66699 -4.66699 -13.834 -6 -18.501c-21.333 -67.333 -41.666 -101 -60.999 -101c-6.66699 0 -12.334 1.33301 -17.001 4z" />
    <glyph glyph-name="n" unicode="n" horiz-adv-x="446" 
d="M288 0c-4.66699 4 -6.3291 10.999 -4.99609 20.999l49 292c6 36 9 63.667 9 83c0 32 -9 48 -27 48c-22 0 -52.167 -38.167 -90.5 -114.5s-77.833 -162.5 -118.5 -258.5l-14 -32c-12 -26 -24 -39 -36 -39c-6.66699 0 -10.834 1.5 -12.501 4.5s-2.5 9.5 -2.5 19.5
s13.167 87 39.5 231s41.5 219.667 45.5 227c4 8 7.5 13 10.5 15s8.83301 3 17.5 3c8 0 14.5 -3 19.5 -9s7.5 -12 7.5 -18c0 -4 -3.33301 -17 -10 -39c-20 -68 -35.667 -134 -47 -198l-10 -59c11.333 24 19.666 42.667 24.999 56c18.667 43.333 35.834 81.333 51.501 114
s33.167 63 52.5 91c29.333 42 56.666 63 81.999 63c44.667 0 67 -36 67 -108c0 -15.333 -2 -35 -6 -59s-8.33301 -48.667 -13 -74c-9.33301 -48.667 -15.333 -82 -18 -100l-7 -46c-6 -41.333 -11.333 -71.666 -16 -90.999s-11.334 -29 -20.001 -29
c-10.667 0 -18.334 2 -23.001 6z" />
    <glyph glyph-name="o" unicode="o" horiz-adv-x="381" 
d="M55.5 32c-17 27.333 -25.5 60.001 -25.5 98.001c0 60.667 10.167 119.5 30.5 176.5s48.166 104.167 83.499 141.5c34 38 72.333 57 115 57c61.333 0 92 -46.667 92 -140c0 -46.667 -7.66699 -94.334 -23 -143.001s-35.166 -92 -59.499 -130s-49.5 -65.333 -75.5 -82
c-20 -12.667 -40 -19 -60 -19c-34.667 0 -60.5 13.667 -77.5 41zM210.5 90.001c25.667 36 47.167 80.667 64.5 134c18 53.333 27 98.666 27 135.999c0 38.667 -2.33301 62.667 -7 72c-4 10 -9 17 -15 21s-15.333 6 -28 6c-14 0 -28.667 -5.33301 -44 -16
c-30.667 -19.333 -57.334 -52.666 -80.001 -99.999c-35.333 -70.667 -53 -139.334 -53 -206.001c0 -45.333 13 -76.666 39 -93.999c9.33301 -4.66699 18.333 -7 27 -7c20.667 0 43.834 18 69.501 54z" />
    <glyph glyph-name="p" unicode="p" horiz-adv-x="418" 
d="M-43 -390c20 76 37.333 151.998 52 227.998l30 157l30 157l8 42l54 278v22c0 6.66699 3 13 9 19s13 9 21 9c7.33301 0 13 -2.83301 17 -8.5s6 -11.834 6 -18.501c0 -9.33301 -1.66699 -19 -5 -29l-4 -13c-1.33301 -5.33301 -2 -9 -2 -11l-14 -72
c48 91.333 99.333 137 154 137c28.667 0 49.5 -8.5 62.5 -25.5s19.5 -42.5 19.5 -76.5c0 -64 -9 -127.667 -27 -191s-44 -116.666 -78 -159.999c-34.667 -44.667 -76 -67 -124 -67c-18.667 0 -33.5 3.83301 -44.5 11.5s-19.833 20.834 -26.5 39.501l-12 -59
c-16 -73.333 -27.667 -128.666 -35 -165.999c-16 -81.333 -31.333 -149 -46 -203c-6 -13.333 -15.333 -20 -28 -20c-10 0 -15.667 6.66699 -17 20zM270 99.998c37.333 56.667 61.999 130.999 73.999 222.999c3.33301 28.667 5 53.334 5 74.001c0 43.333 -10.667 65 -32 65
s-45.666 -15.333 -72.999 -46c-37.333 -42 -68 -92.5 -92 -151.5s-36 -110.167 -36 -153.5c0 -51.333 19 -77 57 -77c34.667 0 67 22 97 66z" />
    <glyph glyph-name="q" unicode="q" horiz-adv-x="373" 
d="M305 468.5c18.667 -27.667 28 -61.498 28 -101.498c-1.33301 -6.66699 -4.66602 -14.667 -9.99902 -24c-0.666992 -36.667 -26.334 -174.334 -77.001 -413.001c-7.33301 -32.667 -13 -59.667 -17 -81l-9 -40l-43 -201c-4 -13.333 -12.333 -20 -25 -20
c-5.33301 0 -10 1.5 -14 4.5s-6 6.83301 -6 11.5c0 4 2 15 6 33l4 24c4 16.667 6.66699 30.667 8 42l90 435l-17 -29c-22 -44 -43.333 -75.667 -64 -95c-16.667 -14.667 -36 -22 -58 -22s-39.333 9.33301 -52 28s-19 41.334 -19 68.001c0 61.333 6.66699 123.166 20 185.499
s32.666 114.166 57.999 155.499c34 54 76 81 126 81c28.667 0 52.334 -13.833 71.001 -41.5zM283 400.002c-9.33301 42.667 -25.6689 64 -49.002 64c-30 0 -57.167 -19.833 -81.5 -59.5s-43.333 -87.667 -57 -144s-20.5 -106.5 -20.5 -150.5c0 -46 10.333 -69 31 -69
c14.667 0 34.334 20 59.001 60s47.834 84.333 69.501 133s33.167 80.667 34.5 96l3 33c1.33301 16 4 27.333 8 34z" />
    <glyph glyph-name="r" unicode="r" horiz-adv-x="355" 
d="M40 2l22.998 118.997l42 211l28 140c2.66699 14.667 6.33398 25.334 11.001 32.001s10.667 10 18 10c6.66699 0 11.834 -1.66699 15.501 -5s5.5 -9.33301 5.5 -18c0 -15.333 -4.66699 -38.666 -14 -69.999c-4.66699 -15.333 -8 -28.333 -10 -39l-9 -31.5l-11 -40.5
c18 40.667 35 73.167 51 97.5s36 47.5 60 69.5c22.667 19.333 45.334 29 68.001 29c16.667 0 30.667 -3.5 42 -10.5s17 -15.167 17 -24.5c0 -7.33301 -2.66699 -13.166 -8 -17.499s-12 -6.5 -20 -6.5c-6 0 -11.667 1.33301 -17 4c-4 3.33301 -9.33301 5 -16 5
c-8.66699 0 -21.334 -6 -38.001 -18c-31.333 -22.667 -57.833 -52.5 -79.5 -89.5s-38.667 -74.333 -51 -112s-25.5 -83.167 -39.5 -136.5l-9 -37c-10 -52.667 -25 -79 -45 -79c-9.33301 0 -14 6 -14 18z" />
    <glyph glyph-name="s" unicode="s" horiz-adv-x="309" 
d="M37 92c4.66699 3.33301 10.666 5.66699 17.999 7c6 0 10.833 -2 14.5 -6s8.16699 -10.333 13.5 -19c5.33301 -9.33301 9.83301 -15.833 13.5 -19.5s10.167 -5.5 19.5 -5.5c21.333 0 38.833 6.66699 52.5 20s20.5 29 20.5 47c0 19.333 -4 39.666 -12 60.999
s-20.333 48 -37 80c-33.333 60 -50 107.667 -50 143s8.83301 63.666 26.5 84.999s41.834 32 72.501 32c21.333 0 41.666 -6 60.999 -18s29 -27 29 -45c0 -19.333 -8 -29 -24 -29c-4.66699 0 -8.5 1.33301 -11.5 4s-5.83301 5.83398 -8.5 9.50098s-4.66699 6.16699 -6 7.5
c-12 14 -25.333 21 -40 21c-32.667 0 -49 -19 -49 -57c0 -20.667 4 -41.667 12 -63s20 -48.333 36 -81c15.333 -32 27 -58.667 35 -80s12 -41.666 12 -60.999c0 -34 -10.333 -62.667 -31 -86s-49.667 -37.333 -87 -42c-23.333 0 -43.666 8.16699 -60.999 24.5
s-26 33.833 -26 52.5c0 8.66699 2.33301 14.667 7 18z" />
    <glyph glyph-name="t" unicode="t" horiz-adv-x="316" 
d="M76.5 14c-11.667 12 -17.4971 33.668 -17.4971 65.001c0 17.333 2 37.333 6 60l9 57l11 47l6 27l13 55c1.33301 8.66699 4.33301 22.667 9 42l5 20l9 43l6 30c-26 0 -50 -1.66699 -72 -5c-13.333 2 -20 7.66699 -20 17c0 6.66699 2.66699 13 8 19
s11.666 9.33301 18.999 10l72 -2l5 25c1.33301 13.333 4 28.666 8 45.999s9 32.666 15 45.999c6 14.667 14.667 22 26 22c10.667 0 16 -6 16 -18v-6c-2.66699 -13.333 -5 -23 -7 -29l-17 -85h72c25.333 0 41 -2 47 -6c5.33301 -4 8 -9 8 -15
c0 -10.667 -4.83301 -17.5 -14.5 -20.5s-26.167 -4.5 -49.5 -4.5c-21.333 0 -45 1 -71 3c-4 -22 -17.667 -83 -41 -183c-21.333 -90.667 -32 -148 -32 -172c0 -26 3 -43 9 -51c3.33301 -5.33301 10.333 -8 21 -8c9.33301 0 17.5 2.5 24.5 7.5s14.167 11.833 21.5 20.5
c7.33301 9.33301 13.666 16.333 18.999 21s11 7 17 7c13.333 0 20 -6.66699 20 -20c0 -6.66699 -6.66699 -17.667 -20 -33s-26 -27.666 -38 -36.999c-10.667 -8.66699 -27.334 -13 -50.001 -13c-23.333 0 -40.833 6 -52.5 18z" />
    <glyph glyph-name="u" unicode="u" horiz-adv-x="425" 
d="M262 56c0 28 2.33301 55.999 7 83.999s12 64.333 22 109l8 37c-11.333 -22 -24.666 -50 -39.999 -84c-27.333 -56 -54.833 -105 -82.5 -147s-55.167 -63 -82.5 -63c-36 0 -54 35.667 -54 107c0 88.667 14.333 192.334 43 311.001l16 61c6 22 16.333 33 31 33
c8 0 13.667 -5.66699 17 -17c-1.33301 -12 -4 -26.333 -8 -43s-6.66699 -28.667 -8 -36c-12.667 -48.667 -23 -97.167 -31 -145.5s-12.667 -107.166 -14 -176.499c0 -26.667 4.33301 -40 13 -40c12.667 0 29.667 14.833 51 44.5s47.666 74.834 78.999 135.501
c30.667 66 60 125.5 88 178.5s50 79.5 66 79.5c11.333 0 17 -6.33301 17 -19c0 -9.33301 -8.33301 -35.666 -25 -78.999c-12.667 -32.667 -21 -56.334 -25 -71.001c-23.333 -80 -38 -167.333 -44 -262c0 -8.66699 0.833008 -15.167 2.5 -19.5s4.66699 -8.83301 9 -13.5
s6.5 -10.334 6.5 -17.001s-3.66699 -12.834 -11 -18.501s-14.333 -8.5 -21 -8.5c-20 0 -30 26.667 -30 80z" />
    <glyph glyph-name="v" unicode="v" horiz-adv-x="342" 
d="M100 18c-11.333 76.667 -20.667 152.333 -28 227c-10.667 90 -21 173 -31 249c2 6 5.83301 11.5 11.5 16.5s10.834 7.5 15.501 7.5c9.33301 0 15.666 -5.66699 18.999 -17c7.33301 -69.333 15.333 -137.666 24 -204.999c8 -56.667 17.333 -132 28 -226
c54 84.667 94.333 160 121 226s40 132 40 198c0 70 -20.667 113 -62 129c-12 4.66699 -22.667 7.33398 -32 8.00098c-10 1.33301 -16.833 3.16602 -20.5 5.49902s-5.5 6.16602 -5.5 11.499c0 14 9.33301 22.333 28 25c92.667 -6.66699 139 -63.667 139 -171
s-36.667 -227 -110 -359c-24.667 -44.667 -52 -86.667 -82 -126c-10 -13.333 -19 -20 -27 -20c-16.667 0 -26 7 -28 21z" />
    <glyph glyph-name="w" unicode="w" horiz-adv-x="575" 
d="M335 33l-0.00195312 24.001c0 8.66699 -0.333008 14.667 -1 18c-22.667 122 -37.667 214 -45 276c-12.667 -28 -30.667 -74 -54 -138c-35.333 -96.667 -62.333 -164.334 -81 -203.001c-6.66699 -8.66699 -14.334 -13 -23.001 -13c-14 0 -21 13.667 -21 41
c-10.667 45.333 -22.667 118.666 -36 219.999c-6.66699 50 -13.334 96.167 -20.001 138.5s-11 68.833 -13 79.5c0 4.66699 2.66699 10 8 16s11 9 17 9c14 0 23.333 -10.667 28 -32c1.33301 -6 4.33301 -30.667 9 -74c9.33301 -81.333 17.833 -148.5 25.5 -201.5
s14.834 -84.167 21.501 -93.5l31 84c56.667 148.667 90.334 249.334 101.001 302.001c2.66699 12.667 10.334 19 23.001 19c7.33301 0 12.5 -1.83301 15.5 -5.5s5.16699 -9.5 6.5 -17.5c15.333 -156.667 33.333 -289 54 -397c43.333 59.333 78.333 114.833 105 166.5
s40 97.167 40 136.5c0 28.667 -7.33301 52 -22 70c-2 2.66699 -9 7.66699 -21 15c-20 9.33301 -30 18.333 -30 27c0 6 2.83301 11.667 8.5 17s12.167 8.33301 19.5 9c27.333 -0.666992 49 -14.167 65 -40.5s24 -59.833 24 -100.5c0 -86 -46.667 -187.667 -140 -305
c-6 -10 -9.66699 -16.333 -11 -19c-11.333 -20.667 -21.666 -37.167 -30.999 -49.5s-19.333 -18.5 -30 -18.5c-15.333 0 -23 13.333 -23 40z" />
    <glyph glyph-name="x" unicode="x" horiz-adv-x="342" 
d="M239 8c-0.666992 8.66699 -4 19.335 -10 32.002c-5.33301 8 -11.333 21.333 -18 40c-2.66699 10 -10.667 30.667 -24 62c-17.333 41.333 -27.666 66.666 -30.999 75.999l-137 -210c-6 -10 -15.333 -15 -28 -15s-19 5.33301 -19 16c0 6 3 14 9 24l28 44l32 51l92 142
l-6 15l-12 35c-8.66699 26 -16 47 -22 63l-8 24c-4.66699 13.333 -7.33398 21.333 -8.00098 24l-9 26c-0.666992 3.33301 -1.66699 6.83301 -3 10.5s-2.33301 7.16699 -3 10.5c-2.66699 5.33301 -4 10.666 -4 15.999c0 4 2.66699 8.5 8 13.5s11.666 7.5 18.999 7.5
c12.667 0 22.667 -10.667 30 -32c4 -12 6.66699 -21 8 -27c2.66699 -16 7.66699 -33.333 15 -52c8 -24 14.667 -42 20 -54c2 -6.66699 5.66699 -16.667 11 -30c16 19.333 36.333 47 61 83l25 36c16.667 23.333 25.667 35.666 27 36.999c10 11.333 19.333 19.333 28 24
c5.33301 2 10 3 14 3c10.667 -2 16 -7.33301 16 -16c0 -8 -1.66699 -15.333 -5 -22c-4 -8 -12.667 -20.333 -26 -37c-5.33301 -6 -20 -25.333 -44 -58l-12 -18c-21.333 -32 -42 -60.333 -62 -85c38.667 -94 60 -148 64 -162c6 -19.333 12.667 -35.666 20 -48.999
c7.33301 -12.667 11 -25.667 11 -39c-1.33301 -7.33301 -4.83301 -13.333 -10.5 -18s-12.5 -7 -20.5 -7c-7.33301 0 -12.666 5.33301 -15.999 16z" />
    <glyph glyph-name="y" unicode="y" horiz-adv-x="420" 
d="M19.5 -400c-16.333 11.333 -28.833 25.5039 -37.5 42.5039s-13 33.833 -13 50.5c0 40.667 11 77 33 109c16 23.333 42.667 48.333 80 75c34 25.333 54 39.333 60 42l87 64c2 9.33301 14.333 50.666 37 123.999l13 41c4.66699 16.667 9.33398 32 14.001 46s8 25.667 10 35
c-28.667 -83.333 -63 -147 -103 -191c-26.667 -30.667 -52.667 -46 -78 -46s-45.833 10.167 -61.5 30.5s-23.5 48.166 -23.5 83.499c0 56 16 144.333 48 265c16 60 24 92.333 24 97c-0.666992 2.66699 -1 5.66699 -1 9c0 4.66699 1 8.33398 3 11.001
c9.33301 12.667 20.333 19 33 19s19 -6.66699 19 -20s-12.333 -69.333 -37 -168s-37 -165.667 -37 -201c0 -34.667 4.33301 -56.334 13 -65.001c8 -8.66699 18 -13 30 -13c25.333 0 52.333 21.333 81 64c22.667 33.333 42.834 78.166 60.501 134.499
s34.167 115.833 49.5 178.5l5 20c7.33301 30 13.666 48.667 18.999 56c5.33301 8 13.333 12 24 12s16 -4 16 -12c0 -9.33301 -14.333 -77.333 -43 -204c-28 -118 -48 -206 -60 -264c13.333 11.333 25 22 35 32c13.333 13.333 23.166 22.666 29.499 27.999s12.166 8 17.499 8
c12.667 0 19 -5.66699 19 -17c0 -6 -2.66699 -12.667 -8 -20c-36 -32 -70.667 -60.667 -104 -86c-16 -88 -31 -157.833 -45 -209.5s-33.167 -94.167 -57.5 -127.5s-55.833 -50 -94.5 -50c-21.333 0 -40.166 5.66699 -56.499 17zM181 -227.996l23 88.001l13 65
c-26 -20 -51.333 -38.333 -76 -55s-44.834 -31.667 -60.501 -45s-29.667 -30.333 -42 -51s-18.5 -44.334 -18.5 -71.001c0 -27.333 9 -48.333 27 -63c6.66699 -6 16.667 -9 30 -9c40.667 0 75.334 47 104.001 141z" />
    <glyph glyph-name="z" unicode="z" horiz-adv-x="399" 
d="M148 0c-17.333 6.66699 -31.6641 11.832 -42.9971 15.499s-21.333 5.5 -30 5.5c-10 0 -22.333 -4.33301 -37 -13c-15.333 -9.33301 -25.666 -14 -30.999 -14c-12 0 -18 5.33301 -18 16c0 6 2 12.333 6 19l88 116l130.5 171.5l106.5 138.5l-120 5l-84 -5
c-30 0 -45 8.33301 -45 25c0 16 11.333 24 34 24l42 -3l215 -1c17.333 0 26.333 -3.33301 27 -10v-9c0 -4 -3 -10.5 -9 -19.5s-13 -18.5 -21 -28.5l-21 -26l-122 -163l-138 -184c16 0 29.333 -1.16699 40 -3.5s22.667 -6.16602 36 -11.499c17.333 -8 33.666 -12 48.999 -12
c64.667 0 97 18.333 97 55c0 6 -3 13.333 -9 22c-0.666992 1.33301 -2.33398 4.5 -5.00098 9.5s-4 10.167 -4 15.5c0 6 2.66699 12.167 8 18.5s11.666 9.5 18.999 9.5c11.333 0 20.666 -7.66699 27.999 -23s11 -30.333 11 -45c0 -33.333 -11.833 -59.333 -35.5 -78
s-57.167 -28 -100.5 -28c-22 0 -43.333 3.66699 -64 11z" />
    <glyph glyph-name="braceleft" unicode="{" horiz-adv-x="276" 
d="M337 947c0 -12 -7.99805 -21.001 -23.998 -27.001c-4 -2 -8 -3 -12 -3h-4c-23.333 -4 -41 -16.667 -53 -38v-1c-15.333 -26 -25 -57.333 -29 -94s-6.66699 -87.667 -8 -153v-29c-0.666992 -52 -4.33398 -93.333 -11.001 -124c-6.66699 -29.333 -14 -52.333 -22 -69
s-19.333 -31.667 -34 -45c10 -6 15 -19.333 15 -40c0 -20 -10 -64 -30 -132c-42 -140 -63 -253.333 -63 -340c0 -38 5 -66.333 15 -85c2.66699 -3.33301 5.66699 -6 9 -8l10 -7l37 10c14 0 21 -4.33301 21 -13c0 -11.333 -9.83301 -21.833 -29.5 -31.5
s-38.834 -14.5 -57.501 -14.5c-34 0 -51 43.333 -51 130c0 84.667 19.333 200.334 58 347.001l19 72l4 17l5 22c0 2.66699 0.666992 7.33398 2 14.001l2 8v4c0 4 -1.33301 6 -4 6l-32 -4c-9.33301 0 -14.333 1.33301 -15 4c-2 2 -3 4 -3 6l-4 7
c3.33301 13.333 14 24.666 32 33.999l12 6c4 2 7.66699 3.66699 11 5c16 7.33301 28.667 25.333 38 54c7.33301 28 11 56.667 11 86v62c0 67.333 3.16699 125.333 9.5 174s20.833 92 43.5 130s56.667 63.333 102 76l9 1c14 0 21 -5.66699 21 -17z" />
    <glyph glyph-name="bar" unicode="|" horiz-adv-x="283" 
d="M9 -135c0 5.33301 12.334 70.332 37.001 194.999l93 482c58.667 313.333 99.334 524 122.001 632c4 6.66699 9.33301 12.334 16 17.001s12.667 7 18 7c8 0 12.667 -5.66699 14 -17c-22.667 -106 -63 -313.667 -121 -623c-30.667 -166 -62.334 -329 -95.001 -489
c-22.667 -116 -34.334 -177.333 -35.001 -184c0 -8 -3.83301 -15.667 -11.5 -23s-15.834 -11 -24.501 -11c-7.33301 0 -11.666 4.66699 -12.999 14z" />
    <glyph glyph-name="braceright" unicode="}" horiz-adv-x="320" 
d="M302 840c0 -58 -11.334 -124.002 -34.001 -198.002c-11.333 -38.667 -21.666 -71 -30.999 -97c-16 -47.333 -26.333 -79.666 -31 -96.999c-22.667 -72.667 -34 -137.334 -34 -194.001v-10c0.666992 -2.66699 1 -6.33398 1 -11.001c10 3.33301 19 5 27 5
c9.33301 0 14 -5.33301 14 -16c0 -10 -7.33301 -19 -22 -27c-15.333 -8.66699 -23.666 -14 -24.999 -16c-19.333 -22.667 -36 -93 -50 -211c-14.667 -121.333 -29.667 -210.833 -45 -268.5s-37.333 -105.167 -66 -142.5c-28 -38 -65.333 -57 -112 -57c-46 0 -86 11 -120 33
c-19.333 13.333 -29 24 -29 32s3.66699 15.5 11 22.5s14.333 10.5 21 10.5c7.33301 0 12.333 -1.33301 15 -4c34.667 -33.333 74 -50 118 -50c28.667 0 51.5 12 68.5 36s29.833 53.833 38.5 89.5s17.667 83.834 27 144.501l4 24c7.33301 50 16 101.667 26 155l-3 -9l6 50
c6.66699 70 24 122.333 52 157c-8.66699 7.33301 -13 22 -13 44c0 20.667 2.66699 42.334 8 65.001l11 57c4.66699 29.333 18.334 76.333 41.001 141l11 30c5.33301 17.333 10.666 33 15.999 47c32.667 92.667 49 172.667 49 240c0 48.667 -9 77.334 -27 86.001
c-6.66699 4 -15.334 6 -26.001 6l-43 -2c-11.333 1.33301 -17 5.33301 -17 12c0 24.667 27.667 37 83 37c53.333 0 80 -38 80 -114z" />
    <glyph glyph-name="asciitilde" unicode="~" horiz-adv-x="735" 
d="M100 400c2.66699 26.667 12.833 53.1699 30.5 79.5029s39.667 47.666 66 63.999s52.833 24.5 79.5 24.5c15.333 0 30.666 -3.33301 45.999 -10c18.667 -8 52.334 -26.667 101.001 -56c52 -31.333 85.333 -47 100 -47c13.333 0 24.5 3.5 33.5 10.5s16.5 19.167 22.5 36.5
c11.333 31.333 24.333 47 39 47c11.333 0 17 -5.66699 17 -17c0 -2.66699 -1.33301 -7.33398 -4 -14.001l-40 -73c-13.333 -24.667 -34.333 -37.334 -63 -38.001c-27.333 0 -69.333 16.333 -126 49c-8 4 -16.667 9.66699 -26 17l-26 16c-20 12 -34.833 19.667 -44.5 23
s-21.167 5 -34.5 5c-18.667 0 -37.5 -5.16699 -56.5 -15.5s-35 -24 -48 -41s-19.833 -34.833 -20.5 -53.5c-0.666992 -8 -4.16699 -14.667 -10.5 -20s-12.5 -8 -18.5 -8c-10 0 -15.667 7 -17 21z" />
    <glyph glyph-name="uni00A0" unicode="&#xa0;" horiz-adv-x="260" 
 />
    <glyph glyph-name="exclamdown" unicode="&#xa1;" horiz-adv-x="198" 
d="M81 406c-6 7.33301 -9 16.667 -9 28c0 24 11 44.333 33 61c4 3.33301 9.33301 5 16 5c12 0 18 -5.66699 18 -17v-4c0 -1.33301 -0.333008 -2.33301 -1 -3c13.333 -5.33301 20 -15.333 20 -30c0 -14 -5.66699 -26 -17 -36s-23 -15 -35 -15c-10.667 0 -19 3.66699 -25 11z
M-77 -630.999c0.666992 34 4.66504 67.002 11.998 99.002c6 32 11 65 15 99c24.667 215.333 67.334 450.333 128.001 705c2.66699 6 6.66699 10.833 12 14.5s10.333 5.5 15 5.5c10.667 0 16.667 -6.66699 18 -20c-61.333 -264.667 -103.666 -497.334 -126.999 -698.001
c-4.66699 -36 -9.66699 -69 -15 -99c-6 -33.333 -10 -66.333 -12 -99c-2 -6.66699 -5.83301 -12.334 -11.5 -17.001s-11.5 -7 -17.5 -7c-8 0 -13.667 5.66699 -17 17z" />
    <glyph glyph-name="cent" unicode="&#xa2;" horiz-adv-x="339" 
d="M73 -99c0 7.33301 4.66797 20.998 14.001 40.998c8.66699 16 15.334 32 20.001 48c-22.667 4.66699 -41.167 18.834 -55.5 42.501s-21.5 49.834 -21.5 78.501c0 52.667 9.33301 108 28 166s43.667 108.333 75 151c32 44 65.667 70.333 101 79c12.667 30 22 53 28 69
c4.66699 18 15.334 28 32.001 30c4 0 7.5 -1.5 10.5 -4.5s4.5 -7.5 4.5 -13.5c0 -20 -9 -46.667 -27 -80c18 -4 30.333 -15 37 -33l7 -20c2 -6 5 -10 9 -12c2.66699 -6.66699 4 -11.667 4 -15c0 -6 -2.83301 -11.667 -8.5 -17s-11.834 -8 -18.501 -8
c-14 0 -23 10.333 -27 31s-15.333 31 -34 31c-26.667 0 -53.834 -18.667 -81.501 -56s-50.5 -84 -68.5 -140c-18 -54 -27 -99 -27 -135c0 -35.333 8.66699 -62.333 26 -81c6.66699 -6.66699 14 -11 22 -13c6.66699 6.66699 13.667 10 21 10s12.333 -4 15 -12
c21.333 3.33301 39.333 14.666 54 33.999c2.66699 2.66699 6 6.66699 10 12s7.66699 9.33301 11 12s7 4 11 4c12.667 0 19 -7 19 -21c0 -9.33301 -5.33301 -20.333 -16 -33s-24.5 -24.167 -41.5 -34.5s-34.833 -17.166 -53.5 -20.499c-12 -44 -27 -76 -45 -96
c-4.66699 -6.66699 -10.334 -10 -17.001 -10c-11.333 0 -17 5.33301 -17 16z" />
    <glyph glyph-name="sterling" unicode="&#xa3;" horiz-adv-x="713" 
d="M677 51c0 -12 -8.16504 -24.165 -24.498 -36.498s-35.833 -22.333 -58.5 -30s-42 -11.5 -58 -11.5c-38 0 -83.167 11.833 -135.5 35.5s-110.833 53.834 -175.5 90.501l-30 17c-40 -87.333 -94 -131 -162 -131c-24.667 0 -44 7.83301 -58 23.5s-21 33.5 -21 53.5
c0 23.333 5.33301 45.666 16 66.999s25.334 38.5 44.001 51.5s40 19.5 64 19.5c30.667 0 62.667 -7.66699 96 -23c6 19.333 16 59.333 30 120l6 27l25 115c-4.66699 1.33301 -14.667 4.66602 -30 9.99902s-28.333 9.33301 -39 12s-20 4 -28 4
c-12.667 0 -21.834 -1.66699 -27.501 -5s-10.834 -8 -15.501 -14c-5.33301 -8 -12 -12 -20 -12c-12.667 0 -19 6 -19 18c0 16.667 8.33301 30 25 40s35.667 15 57 15c12 0 25.167 -2.16699 39.5 -6.5s36.166 -11.5 65.499 -21.5c19.333 101.333 38.5 185 57.5 251
s40.333 118.333 64 157s51.5 62.667 83.5 72c10.667 3.33301 22.334 5 35.001 5c29.333 0 50.333 -11.833 63 -35.5s21 -55.5 25 -95.5c-1.33301 -20 -10.333 -30 -27 -30c-10.667 0 -17 5.33301 -19 16c-0.666992 32.667 -4 58.5 -10 77.5s-16.667 28.5 -32 28.5
c-6 0 -13.667 -2 -23 -6c-32.667 -16.667 -59.834 -46.834 -81.501 -90.501s-38.834 -92.167 -51.501 -145.5s-27.334 -125.666 -44.001 -216.999c32 -10 61 -15 87 -15c14 0 27 2.66699 39 8s25 12.666 39 21.999c7.33301 4.66699 14.333 8.66699 21 12s12.334 5 17.001 5
c10.667 0 16 -6 16 -18c0 -10.667 -6.66699 -21.5 -20 -32.5s-30.5 -20 -51.5 -27s-42.167 -10.5 -63.5 -10.5c-25.333 0 -55.666 5.33301 -90.999 16c-21.333 -120 -42.666 -209.333 -63.999 -268c60.667 -32.667 122.834 -63.834 186.501 -93.501s108.5 -44.5 134.5 -44.5
c21.333 0 40.666 5.33301 57.999 16c20.667 12.667 35.167 20.834 43.5 24.501s17.166 5.5 26.499 5.5c10.667 0 16 -5 16 -15zM112.002 56.002c18.667 18 34.6641 44.333 47.9971 79c-33.333 14 -59.666 21 -78.999 21c-22 0 -40.667 -8.5 -56 -25.5s-23 -36.5 -23 -58.5
c0 -12.667 3.33301 -23 10 -31s16.334 -12 29.001 -12c28.667 0 52.334 9 71.001 27z" />
    <glyph glyph-name="currency" unicode="&#xa4;" horiz-adv-x="493" 
d="M355 215.5c-12.667 10.333 -25.5039 23.3311 -38.5039 38.998s-23.167 30.834 -30.5 45.501c-19.333 -13.333 -42.666 -20 -69.999 -20s-53 8 -77 24c-16.667 -30 -30 -49.667 -40 -59c-10.667 -10 -18 -15 -22 -15c-12 0 -18 6.33301 -18 19
c0 10.667 5.5 25.834 16.5 45.501s20.5 34.167 28.5 43.5c-17.333 25.333 -26 51.333 -26 78s9.33301 54.667 28 84c-17.333 10.667 -31 21.667 -41 33c-9.33301 10.667 -15.333 18.334 -18 23.001c-2 4 -3 8.66699 -3 14c0 6 2.83301 11.833 8.5 17.5s11.5 8.5 17.5 8.5
c7.33301 0 12.333 -3 15 -9c5.33301 -8.66699 14 -17.334 26 -26.001c6.66699 -5.33301 11.667 -9 15 -11l13 -11c28.667 25.333 60 38 94 38c18.667 0 32.834 -3.16699 42.501 -9.5s14.834 -9.83301 15.501 -10.5c2.66699 -2.66699 10.334 -6 23.001 -10
c6.66699 12 23.334 27.667 50.001 47s45.667 29 57 29c12 0 18 -6 18 -18c0 -7.33301 -4.83301 -15 -14.5 -23s-19.667 -15.167 -30 -21.5s-17.166 -10.833 -20.499 -13.5c-13.333 -8 -21.333 -13.333 -24 -16c-4.66699 -3.33301 -8.66699 -6 -12 -8
c14 -17.333 21 -38.333 21 -63c0 -40.667 -9.33301 -77.334 -28 -110.001c-0.666992 -5.33301 -2.66699 -9.66602 -6 -12.999c5.33301 -14 16.666 -30.333 33.999 -49l39 -41c7.33301 -8.66699 11 -15.667 11 -21c0 -6 -2.83301 -11.833 -8.5 -17.5
s-11.834 -8.5 -18.501 -8.5c-5.33301 0 -14.333 5.16699 -27 15.5zM268.496 345.498c15.667 11 27.999 25.499 36.999 43.499s13.5 36.333 13.5 55c0 29.333 -14.333 48.333 -43 57c-8 2 -12.667 6.33301 -14 13l-20 13c-6.66699 3.33301 -14.667 5 -24 5
c-14 0 -28.333 -5.16699 -43 -15.5s-26.667 -23.666 -36 -39.999s-14 -32.833 -14 -49.5c0 -26 8.83301 -48.833 26.5 -68.5s39.834 -29.5 66.501 -29.5c18 0 34.833 5.5 50.5 16.5z" />
    <glyph glyph-name="yen" unicode="&#xa5;" horiz-adv-x="430" 
d="M154 8c0 4 0.335938 6.99902 1.00293 8.99902l13 39c13.333 39.333 23.666 73.666 30.999 102.999s11.333 60.666 12 93.999c-47.333 -4 -83.666 -13.667 -108.999 -29c-4 -1.33301 -7.66699 -2 -11 -2c-4.66699 0 -8.66699 1.83301 -12 5.5s-5 8.83398 -5 15.501
c0 14.667 13.667 26.667 41 36c22 8 54.667 14.333 98 19l3 31c-6.66699 10 -13.334 24.667 -20.001 44c-56 -0.666992 -88.333 -5.33398 -97 -14.001c-6 -4 -11.667 -6 -17 -6c-12 0 -18 6 -18 18c0 28 39 44.333 117 49c-30 104 -60 249.667 -90 437l-12 79
c0 8.66699 2.5 16.167 7.5 22.5s11.167 9.5 18.5 9.5s13.5 -2.16699 18.5 -6.5s7.5 -9.16602 7.5 -14.499s-1.66699 -10.666 -5 -15.999c16 -120 42 -255 78 -405c10 -42.667 20.333 -77.667 31 -105h9c8 18.667 17 38.334 27 59.001c12.667 22.667 34.667 73 66 151
c34.667 86 65.834 154.5 93.501 205.5s57.5 91.833 89.5 122.5c6.66699 5.33301 13 8 19 8c12 0 18 -5.66699 18 -17c0 -6 -2.66699 -12.667 -8 -20c-45.333 -43.333 -91.666 -120 -138.999 -230c-6.66699 -15.333 -18.667 -44.666 -36 -87.999l-13 -33
c-22 -52.667 -38 -89.334 -48 -110.001c-12 -23.333 -19.667 -40 -23 -50c62.667 -2.66699 94 -10.667 94 -24c0 -6 -2.33301 -11.833 -7 -17.5s-10.334 -9.5 -17.001 -11.5c-30 2.66699 -59.333 4.33398 -88 5.00098c-2 -2.66699 -5 -26.334 -9 -71.001
c17.333 0 42 -0.666992 74 -2c24.667 -2 48.667 -3 72 -3c11.333 -3.33301 17 -9 17 -17c0 -6 -2.33301 -11.833 -7 -17.5s-10.334 -9.5 -17.001 -11.5l-144 6c-2 -13.333 -6.33301 -33.333 -13 -60c-6.66699 -23.333 -11.334 -44.333 -14.001 -63l-20.5 -66l-11.5 -37
l-8 -23c-2 -5.33301 -4.83301 -9.83301 -8.5 -13.5s-7.83398 -5.5 -12.501 -5.5c-10.667 0 -16 7 -16 21z" />
    <glyph glyph-name="brokenbar" unicode="&#xa6;" horiz-adv-x="324" 
d="M158 410l5 20l8 26c8.66699 26.667 24 86.667 46 180c24 99.333 41.333 168.333 52 207c12 46 23 92 33 138c9.33301 16 19.666 24 30.999 24c10 0 15.667 -5.66699 17 -17c-10 -48 -21.333 -94 -34 -138c-18 -68.667 -41.333 -163 -70 -283
c-9.33301 -40 -22.666 -88 -39.999 -144c-2.66699 -7.33301 -7.5 -13.833 -14.5 -19.5s-13.833 -8.5 -20.5 -8.5c-8.66699 0 -13 5 -13 15zM9 -373l45.001 238.001c17.333 84 30 152.667 38 206c5.33301 37.333 9.66602 59 12.999 65c9.33301 12.667 19 19 29 19
s15 -5.66699 15 -17c-9.33301 -77.333 -29 -188.333 -59 -333l-8 -41c-9.33301 -44.667 -17.333 -86.334 -24 -125.001c-2.66699 -8 -7.66699 -14.667 -15 -20s-14 -8 -20 -8c-9.33301 0 -14 5.33301 -14 16z" />
    <glyph glyph-name="section" unicode="&#xa7;" horiz-adv-x="523" 
d="M-121 -176c-42 20.667 -68.998 47.6631 -80.998 80.9961c0 16 6.66699 27.667 20 35c4.66699 2.66699 9.66699 4 15 4c4.66699 0 8.66699 -3.66699 12 -11c9.33301 -27.333 31.666 -49.333 66.999 -66s70.333 -25 105 -25c53.333 0 103 12.5 149 37.5
s83.667 58.833 113 101.5c28.667 41.333 43 87 43 137c0 48 -19.333 102.667 -58 164c-15.333 23.333 -33.333 48.666 -54 75.999c-32 41.333 -58.667 80 -80 116s-32 71.333 -32 106c0 38 3.83301 68.833 11.5 92.5s19.167 43.834 34.5 60.501c12.667 14 27.167 26 43.5 36
s39.166 22.667 68.499 38c-66.667 72.667 -100 138.334 -100 197.001c0 29.333 4.33301 52.833 13 70.5s21 32.167 37 43.5c24.667 18.667 53 28 85 28c36.667 0 70.834 -7.83301 102.501 -23.5s57 -36.167 76 -61.5s28.5 -51.666 28.5 -78.999
c0 -37.333 -2.33301 -64.166 -7 -80.499s-15.334 -24.5 -32.001 -24.5c-7.33301 0 -12 4.66699 -14 14l4 69c0 26 -7.33301 50 -22 72s-34.667 39.5 -60 52.5s-53 19.5 -83 19.5c-46 0 -71.667 -20.667 -77 -62c-2 -12.667 -3 -25 -3 -37
c0 -57.333 31.667 -118.666 95 -183.999c40 -41.333 70.5 -74.166 91.5 -98.499s36.333 -46.5 46 -66.5s14.5 -40 14.5 -60c0 -32.667 -11.833 -62.834 -35.5 -90.501s-52.5 -49.5 -86.5 -65.5s-65 -24.667 -93 -26c52 -76.667 87.667 -134.167 107 -172.5
s29 -76.5 29 -114.5c0 -70.667 -18.167 -131.167 -54.5 -181.5s-84.5 -88.5 -144.5 -114.5c-56.667 -25.333 -109 -38 -157 -38c-49.333 0 -95 10.333 -137 31zM285.002 479.996c30 13.333 52.834 24.5 68.501 33.5s28 19.5 37 31.5s13.5 26.667 13.5 44
c0 26.667 -8.33301 53 -25 79s-44.334 58.667 -83.001 98c-53.333 -19.333 -90.833 -40 -112.5 -62s-32.5 -50.333 -32.5 -85c0 -32 5.33301 -60.833 16 -86.5s28.667 -57.834 54 -96.501c6 12.667 27.333 27.334 64 44.001z" />
    <glyph glyph-name="dieresis" unicode="&#xa8;" horiz-adv-x="326" 
d="M32 1070c-5.33301 10.667 -8 21.001 -8 31.001c0 15.333 4.66699 28.666 14 39.999c8.66699 10.667 19.667 16 33 16c7.33301 0 14.666 -3.66699 21.999 -11v1c10.667 -12.667 16 -24 16 -34s-7.16699 -22.333 -21.5 -37s-26.166 -22 -35.499 -22
c-8 0 -14.667 5.33301 -20 16zM243 1062c-16 5.33301 -24 16 -24 32c0 14.667 6 28.334 18 41.001s23 19 33 19c20.667 0 31 -10.333 31 -31c0 -14.667 -5.33301 -28.834 -16 -42.501s-22 -20.5 -34 -20.5z" />
    <glyph glyph-name="copyright" unicode="&#xa9;" horiz-adv-x="532" 
d="M178.5 505.5c-33 19 -58.1621 44.3301 -75.4951 75.9971s-26 66.834 -26 105.501c0 54.667 15.167 102.334 45.5 143.001s71.5 72.667 123.5 96c47.333 21.333 97.333 32.666 150 33.999c4.66699 0 11 -1.33301 19 -4l19 -7c7.33301 -5.33301 11 -11 11 -17
c0 -6.66699 -3.16699 -12.834 -9.5 -18.501s-13.5 -8.5 -21.5 -8.5l-43 6c-29.333 0 -61.833 -7 -97.5 -21s-67.334 -33.5 -95.001 -58.5s-44.834 -53.167 -51.501 -84.5c-3.33301 -15.333 -5 -32.666 -5 -51.999c0 -21.333 4.5 -42.833 13.5 -64.5s21.167 -40.5 36.5 -56.5
c33.333 -33.333 76.666 -50 129.999 -50c34 0 65.833 8.33301 95.5 25s55 37.667 76 63s36.167 51 45.5 77c6 18 9 36 9 54c0 30 -5.66699 54.333 -17 73c-8 10.667 -15.333 19.334 -22 26.001c-8.66699 8.66699 -18.334 19.334 -29.001 32.001c-1.33301 2 -2 6.33301 -2 13
c0 6 2.66699 11.667 8 17s11.666 8 18.999 8s19.833 -9.16699 37.5 -27.5s29.5 -34.5 35.5 -48.5c9.33301 -26 14 -50.333 14 -73c0 -48 -12 -94 -36 -138s-57 -79.333 -99 -106c-42.667 -28 -90.667 -42 -144 -42c-43.333 0 -81.5 9.5 -114.5 28.5zM251.005 604.997
c-15.333 10.667 -27.168 24 -35.501 40s-12.5 31.333 -12.5 46c0 26 7.83301 51.333 23.5 76s36 44.834 61 60.501s49.833 23.5 74.5 23.5s44.667 -6.33301 60 -19c2.66699 -5.33301 4 -10.333 4 -15c0 -6 -2.83301 -11.667 -8.5 -17s-11.167 -8 -16.5 -8
c-6.66699 0 -14.667 2.33301 -24 7s-19 7 -29 7c-9.33301 0 -20.166 -3.33301 -32.499 -10s-23.5 -15.334 -33.5 -26.001c-22 -24 -33 -49 -33 -75c0 -37.333 29.333 -57 88 -59c11.333 -3.33301 17 -9 17 -17c0 -20 -16.333 -30 -49 -30c-20.667 0 -38.667 5.33301 -54 16z
" />
    <glyph glyph-name="ordfeminine" unicode="&#xaa;" horiz-adv-x="281" 
d="M227 629c-19.333 -13.333 -41.0049 -19.999 -65.0049 -19.999c-26 0 -46.667 8.33301 -62 25s-23 40.667 -23 72c0 21.333 7.5 42 22.5 62s34.333 36.167 58 48.5s47.834 18.5 72.501 18.5h1c2 13.333 3 27.666 3 42.999c0 34 -16.667 51 -50 51
c-25.333 0 -45.666 -7.66699 -60.999 -23c-5.33301 -6.66699 -8.66602 -12 -9.99902 -16c-4.66699 -13.333 -13.667 -20 -27 -20c-10 0 -15.667 6.66699 -17 20c0.666992 4 2.33398 10 5.00098 18c0.666992 6 3.66699 12 9 18c10.667 12.667 27.167 24 49.5 34
s41.833 15 58.5 15c30 0 52.333 -7.5 67 -22.5s22 -35.833 22 -62.5c0 -24.667 -3.66699 -58 -11 -100c-8 -40.667 -12 -68.334 -12 -83.001c0 -14 1.33301 -24.667 4 -32s6.66699 -13 12 -17c3.33301 -3.33301 8.33301 -6.33301 15 -9
c2 -0.666992 5.83301 -1.66699 11.5 -3s10.334 -3.66602 14.001 -6.99902s5.5 -8 5.5 -14c0 -10 -6.33301 -17.333 -19 -22c-4 -2 -8 -3 -12 -3c-26.667 0 -47 9.66699 -61 29zM210.995 670.001c-0.666992 2 -1.00098 5.66699 -1.00098 11v25c0 14 4 41.333 12 82h-7
c-17.333 0 -33.166 -4.16699 -47.499 -12.5s-25.5 -18.833 -33.5 -31.5s-12 -24.667 -12 -36c0 -34 14.667 -51 44 -51c21.333 0 36.333 4.33301 45 13z" />
    <glyph glyph-name="guillemotleft" unicode="&#xab;" horiz-adv-x="326" 
d="M87 152c-32 42 -56.999 67.666 -74.999 76.999c-17.333 7.33301 -26 14 -26 20c0 5.33301 1.5 9.83301 4.5 13.5s8.83301 8.5 17.5 14.5c39.333 34.667 80 76.667 122 126l10 11c5.33301 6 10.166 10.667 14.499 14s9.83301 5 16.5 5c8 0 12 -4.33301 12 -13
c0 -1.33301 -0.333008 -2.66602 -1 -3.99902s-1.33398 -3.33301 -2.00098 -6c-6.66699 -18 -42.667 -61.667 -108 -131l-29 -29c12 -8 26.667 -21.333 44 -40c17.333 -16.667 30.333 -28.667 39 -36c9.33301 -7.33301 14 -13.333 14 -18c0 -14.667 -8.33301 -22 -25 -22
c-9.33301 0 -18.666 6 -27.999 18zM244.001 117.999c-32.667 56.667 -68.332 97.666 -106.999 122.999c-12 0 -18 4.66699 -18 14c0 3.33301 3.33301 9 10 17c48 50 85.333 97.333 112 142c10 10.667 19.333 16 28 16c10.667 0 16 -4.33301 16 -13c0 -4.66699 -2 -10 -6 -16
c-35.333 -60 -66.333 -102.333 -93 -127c14.667 -9.33301 30.167 -22.666 46.5 -39.999s30.166 -34.5 41.499 -51.5s17 -28.833 17 -35.5c0 -10 -3.33301 -18.5 -10 -25.5s-13.667 -10.5 -21 -10.5c-6.66699 0 -12 2.33301 -16 7z" />
    <glyph glyph-name="logicalnot" unicode="&#xac;" horiz-adv-x="484" 
d="M353 227c1.33301 5.33301 6.66699 21.332 16 47.999s17 47 23 61c-47.333 0 -104 2 -170 6c-70 4 -122.667 6 -158 6c-11.333 1.33301 -17 5.66602 -17 12.999c0 8.66699 4.16699 16.334 12.5 23.001s15.5 10 21.5 10c35.333 0 88.333 -2 159 -6c70 -4 124.333 -6 163 -6
l33 1c10 0 15 -4.66699 15 -14c0 -3.33301 -3.66699 -14 -11 -32s-14.333 -34.333 -21 -49c-10 -29.333 -18.167 -49.166 -24.5 -59.499s-14.5 -15.5 -24.5 -15.5c-11.333 0 -17 4.66699 -17 14z" />
    <glyph glyph-name="uni00AD" unicode="&#xad;" 
 />
    <glyph glyph-name="registered" unicode="&#xae;" horiz-adv-x="530" 
d="M206 515.5c-25.333 10.333 -47.332 24.499 -65.999 42.499c-42 39.333 -63 87.333 -63 144c0 42 12 77 36 105c59.333 68.667 122.666 114.334 189.999 137.001c24 9.33301 47 14 69 14c18 0 32.167 -1.33301 42.5 -4s20.833 -6.66699 31.5 -12
c6 -2.66699 11.167 -5.33398 15.5 -8.00098l11.5 -7c5.33301 -4 14 -9.33301 26 -16c7.33301 -5.33301 11 -11 11 -17c0 -7.33301 -2.66699 -13 -8 -17c45.333 -42 68 -93 68 -153c0 -39.333 -14 -76.166 -42 -110.499s-64.333 -61.833 -109 -82.5s-90.667 -31 -138 -31
c-24.667 0 -49.667 5.16699 -75 15.5zM454.001 596.999c-6.66699 -2 -14.999 -3 -24.999 -3c-24.667 0 -50.667 7.83301 -78 23.5s-48 36.5 -62 62.5l2 -59c-0.666992 -8 -4.16699 -14.667 -10.5 -20s-12.5 -8 -18.5 -8c-17.333 0 -26 49 -26 147c0 44 5.66699 80 17 108
c7.33301 10.667 16.333 16 27 16c5.33301 2.66699 9.33301 4 12 4h6c6.66699 0 18.334 -1.33301 35.001 -4c62 -8 93 -30 93 -66c0 -32.667 -16.667 -54.667 -50 -66l-40 -12c-17.333 -5.33301 -29 -10.333 -35 -15c43.333 -43.333 90.666 -65 141.999 -65h8l8 1
c11.333 -3.33301 17 -9 17 -17c0 -4.66699 -0.666992 -8 -2 -10c32.667 32 49 66.333 49 103c0 38 -12.333 71.333 -37 100c-24.667 30.667 -40.334 54.667 -47.001 72c-26.667 13.333 -50 20 -70 20c-38 0 -75.667 -9.33301 -113 -28s-68.333 -43.667 -93 -75
s-37 -64.666 -37 -99.999c0 -24.667 7.5 -49.334 22.5 -74.001s36.167 -45.167 63.5 -61.5s58.333 -24.5 93 -24.5c55.333 0 105 17 149 51zM311.002 751.999c20.667 7.33301 37 13.6689 49 19.002s18 11.333 18 18c0 13.333 -7.66699 21.666 -23 24.999
c-16 4 -38.333 6 -67 6c-5.33301 -21.333 -8 -43 -8 -65v-16c6 3.33301 16.333 7.66602 31 12.999z" />
    <glyph glyph-name="macron" unicode="&#xaf;" horiz-adv-x="348" 
d="M40 603c-10.667 4 -15.999 10.998 -15.999 20.998c0 8 2.83301 14.333 8.5 19s12.5 6.33398 20.5 5.00098c50 -6 89 -9 117 -9c20 0 56 1.66699 108 5c10.667 -4 16 -10 16 -18c0 -13.333 -9 -22.666 -27 -27.999c-13.333 -3.33301 -45.333 -5 -96 -5l-84 1
c-20.667 2 -36.334 5 -47.001 9z" />
    <glyph glyph-name="degree" unicode="&#xb0;" horiz-adv-x="236" 
d="M138.5 848.5c-15.667 14.333 -23.502 32.168 -23.502 53.501c0 24 4.33301 46 13 66s20.334 36 35.001 48s30.667 18 48 18c26 0 42.667 -8.66699 50 -26c51.333 -12.667 77 -35 77 -67c0 -19.333 -6.16699 -37.833 -18.5 -55.5s-28.666 -31.834 -48.999 -42.501
s-41.166 -16 -62.499 -16c-30.667 0 -53.834 7.16699 -69.501 21.5zM265.998 888.002c17.333 11.333 26 24.332 26 38.999c0 9.33301 -5.33301 18.5 -16 27.5s-23 16.667 -37 23s-25.667 9.5 -35 9.5c-13.333 0 -23.333 -5.5 -30 -16.5s-10 -25.167 -10 -42.5
s4 -31.166 12 -41.499s20.333 -15.5 37 -15.5c18 0 35.667 5.66699 53 17z" />
    <glyph glyph-name="plusminus" unicode="&#xb1;" horiz-adv-x="422" 
d="M180 170c0 26 6.66699 70.332 20 132.999c-4 0 -8.33301 -0.666992 -13 -2l-23 -4c-2 0 -6.66699 -0.666992 -14 -2s-20.333 -6 -39 -14c-10 -4.66699 -21.667 -7 -35 -7c-12 0 -18 5.33301 -18 16c3.33301 10 8.83301 18 16.5 24s14.167 9 19.5 9
c3.33301 0 6.33301 -0.666992 9 -2c28 12.667 60.333 20.667 97 24h8c0.666992 8.66699 2.33398 18 5.00098 28l6 30c1.33301 4 2 12.667 2 26v22c0 16.667 6.33301 29.334 19 38.001c3.33301 2.66699 8 4 14 4c12.667 0 19 -10.333 19 -31
c0 -7.33301 -1.33301 -19.666 -4 -36.999c-2 -6.66699 -4.66699 -19.334 -8 -38.001l-8 -40h7c11.333 0 25 -1 41 -3l36 -5c5.33301 -1.33301 14 -2 26 -2c13.333 0 23.666 0.666992 30.999 2c8.66699 -2.66699 13 -7 13 -13s-3 -12.5 -9 -19.5s-13 -11.5 -21 -13.5l-132 11
c-10 -50 -15 -92 -15 -126v-14c-4 -23.333 -15 -35 -33 -35c-11.333 0 -17 13.667 -17 41zM17 19.999c0 15.333 11.002 27.832 33.002 37.499s50.667 16.834 86 21.501c33.333 4 61.666 6 84.999 6c16 0 40 -0.666992 72 -2l72 -3c8.66699 -0.666992 13 -5.66699 13 -15
c0 -8.66699 -6.33301 -17 -19 -25c-1.33301 -0.666992 -5 -2.66699 -11 -6l-145 6c-70 0 -123.667 -10.333 -161 -31c-2.66699 -1.33301 -6.33398 -2 -11.001 -2c-9.33301 0 -14 4.33301 -14 13z" />
    <glyph glyph-name="uni00B2" unicode="&#xb2;" horiz-adv-x="293" 
d="M98 565c-30.667 -28.667 -53.001 -42.998 -67.001 -42.998s-21 8.33301 -21 25c0 17.333 10.667 36 32 56c8.66699 8 18.334 14.667 29.001 20s19 8 25 8c4 0 8.66699 -0.666992 14 -2c50 60.667 91.333 138 124 232c-20 -4 -39 -14.667 -57 -32
c-2 -8 -6.16699 -14.833 -12.5 -20.5s-12.833 -8.5 -19.5 -8.5c-11.333 0 -17 7.33301 -17 22c0 9.33301 7.33301 20.833 22 34.5s32 25.667 52 36s36.667 15.5 50 15.5c20.667 0 31 -11 31 -33c0 -14 -8.5 -38.333 -25.5 -73s-37 -70.834 -60 -108.501
s-42.5 -65.834 -58.5 -84.501c6.66699 -7.33301 12.667 -16 18 -26c5.33301 -8.66699 14 -16.834 26 -24.501s22.333 -11.5 31 -11.5s20 1 34 3c9.33301 -3.33301 14 -8.66602 14 -15.999c0 -8 -5 -15.167 -15 -21.5s-21 -9.5 -33 -9.5c-48 0 -86.667 20.667 -116 62z" />
    <glyph glyph-name="uni00B3" unicode="&#xb3;" horiz-adv-x="278" 
d="M-51.5 405.5c-19.667 9.66699 -35.999 23.832 -48.999 42.499s-19.833 40.667 -20.5 66c1.33301 7.33301 5.5 14.5 12.5 21.5s14.167 10.5 21.5 10.5c6 0 10.667 -3.66699 14 -11c1.33301 -61.333 32.666 -92 93.999 -92c16 0 34.333 4.66699 55 14s39.334 22 56.001 38
c38.667 38.667 58 86.334 58 143.001c0 39.333 -10.667 60.666 -32 63.999c-5.33301 -0.666992 -12 -1 -20 -1c-17.333 0 -26 4.33301 -26 13c0 6.66699 4.83301 14 14.5 22s19.667 15.333 30 22s17.166 11.334 20.499 14.001c26 18 44.333 35.333 55 52
c6.66699 8.66699 10 18.667 10 30s-11.333 17 -34 17c-14 0 -24.333 -1.66699 -31 -5c-10 -3.33301 -15.667 -5 -17 -5c-3.33301 -3.33301 -8.33301 -5 -15 -5c-9.33301 0 -14 4 -14 12c0 13.333 9 25 27 35s35.667 15 53 15c53.333 0 80 -15.333 80 -46
c0 -39.333 -31 -83 -93 -131c27.333 -13.333 41 -41.666 41 -84.999c0 -45.333 -11.833 -88.333 -35.5 -129s-58.167 -75.334 -103.5 -104.001c-34.667 -21.333 -65.667 -32 -93 -32c-19.333 0 -38.833 4.83301 -58.5 14.5zM144.001 705.998l-2 -1
c-1.33301 0 -2.33301 -0.333008 -3 -1c2 0 3.66699 0.666992 5 2z" />
    <glyph glyph-name="acute" unicode="&#xb4;" horiz-adv-x="833" 
d="M371 1052c0 4 3.66797 11.333 11.001 22c12 16.667 27.333 44 46 82l22 46c5.33301 10 12.666 25 21.999 45c7.33301 10 15.666 15 24.999 15c12 0 18 -5.66699 18 -17c0 -6 -2.33301 -13.333 -7 -22c-2.66699 -3.33301 -5.66699 -8.83301 -9 -16.5
s-6.66602 -14.5 -9.99902 -20.5c-12.667 -28.667 -24.5 -53.5 -35.5 -74.5s-23.5 -40.5 -37.5 -58.5c-0.666992 -6 -3.5 -11.5 -8.5 -16.5s-9.5 -7.5 -13.5 -7.5c-15.333 0 -23 7.66699 -23 23z" />
    <glyph glyph-name="uni00B5" unicode="&#xb5;" horiz-adv-x="455" 
d="M421 494c0 -2.66699 -3.00684 -18.668 -9.00684 -48.001c-5.33301 -25.333 -18 -68.666 -38 -129.999l-3 -24l-22 -141c-9.33301 -54.667 -15.666 -101.667 -18.999 -141c-0.666992 -7.33301 -4.66699 -13.833 -12 -19.5s-14.666 -8.5 -21.999 -8.5s-12 4.66699 -14 14
c2.66699 44 7.66699 88.667 15 134c-26.667 -53.333 -51.667 -89 -75 -107s-47.666 -27 -72.999 -27c-30 0 -52 16.667 -66 50c-22 -112.667 -62.667 -303 -122 -571c-2.66699 -7.33301 -7.5 -13.833 -14.5 -19.5s-13.833 -8.5 -20.5 -8.5c-8.66699 0 -13 4.66699 -13 14v6
l52 232l7 31c40.667 187.333 68.334 330 83.001 428l-3 -12c0.666992 5.33301 2.33398 16.333 5.00098 33c0.666992 7.33301 2.33398 18.333 5.00098 33c0.666992 68.667 11.667 156.667 33 264l12 15c11.333 14 22.333 21 33 21c7.33301 0 12 -5.66699 14 -17
c-13.333 -70 -27.666 -161.667 -42.999 -275v-28c0 -100 21.667 -150 65 -150c22 0 45.333 25 70 75c4 8.66699 14 28 30 58c16 31.333 32.333 72 49 122l6 50c4 46 15.333 88 34 126c12 24 26.333 36 43 36c8.66699 0 13 -5 13 -15zM51.9932 144.999v1v-1z" />
    <glyph glyph-name="paragraph" unicode="&#xb6;" horiz-adv-x="536" 
d="M267 -180l-0.000976562 2.99707l11 46c3.33301 10.667 8.66602 32.667 15.999 66c3.33301 16 7.33301 34 12 54c31.333 148 62 308.333 92 481c34.667 196 65.334 355.333 92.001 478c-21.333 2 -46.333 3 -75 3c-29.333 0 -62.333 -3 -99 -9l-64 -323l14 3
c8.66699 -1.33301 13 -6 13 -14c0 -13.333 -11.667 -24.666 -35 -33.999c-16.667 -102 -59 -321.667 -127 -659l-15 -75c0 -8 -3.5 -15.5 -10.5 -22.5s-14.5 -10.5 -22.5 -10.5c-10.667 0 -16 5.66699 -16 17c0 14.667 4 40 12 76l9 37c4.66699 18 8 32.333 10 43l7 38l9 42
l23 111l44 225l13 71l6 28l14 79c-27.333 0 -54.5 6.83301 -81.5 20.5s-49 31.334 -66 53.001s-25.5 44.167 -25.5 67.5c0 64 25.333 119 76 165c84 76 203 114 357 114c41.333 0 78 -1.33301 110 -4c48.667 -4 82.334 -6.66699 101.001 -8
c9.33301 -3.33301 14 -8.66602 14 -15.999c0 -8.66699 -6.66699 -17 -20 -25c-2 -2 -5.66699 -3.66699 -11 -5c-28 0.666992 -67.667 3.66699 -119 9c-33.333 -160 -67 -338.333 -101 -535c-36 -202 -75.667 -394.333 -119 -577c-2.66699 -8 -7.66699 -14.667 -15 -20
s-14 -8 -20 -8c-8.66699 0 -13 5 -13 15zM266.999 928.997c-32 -8.66699 -63.168 -23.501 -93.501 -44.501s-55.166 -45.167 -74.499 -72.5s-29 -54.666 -29 -81.999c0 -54 30 -88 90 -102l46 -10c26 141.333 46.333 245 61 311z" />
    <glyph glyph-name="periodcentered" unicode="&#xb7;" horiz-adv-x="444" 
d="M171 307.5c-8 14.333 -12.001 29.834 -12.001 46.501c0 13.333 1.83301 23.333 5.5 30s10.834 13.667 21.501 21c8.66699 6.66699 21.667 10 39 10c16.667 0 31.5 -4.66699 44.5 -14s19.5 -20.333 19.5 -33c0 -14 -4.16699 -27.333 -12.5 -40
s-18.833 -22.834 -31.5 -30.501s-25 -11.5 -37 -11.5c-16.667 0 -29 7.16699 -37 21.5z" />
    <glyph glyph-name="cedilla" unicode="&#xb8;" horiz-adv-x="276" 
d="M58 -275.5c-22.667 8.33301 -33.999 18.166 -33.999 29.499c0 8.66699 2.66699 15.167 8 19.5s12 6.5 20 6.5c33.333 -14.667 59.666 -22 78.999 -22s36.5 7.33301 51.5 22s22.5 32 22.5 52c0 23.333 -3.83301 41.166 -11.5 53.499s-19.5 18.5 -35.5 18.5
c-25.333 0 -45.333 -11.333 -60 -34c-4.66699 -8 -10.667 -12 -18 -12c-4.66699 0 -8.66699 1.5 -12 4.5s-5 6.83301 -5 11.5c0 4 0.666992 7 2 9l28.5 58c17.667 36 29.5 58.667 35.5 68c3.33301 5.33301 10 8 20 8c12 0 18 -5.33301 18 -16
c0 -6.66699 -5.66699 -19.667 -17 -39c-10 -18 -15.667 -28.333 -17 -31c12 6 24 9 36 9c22.667 0 41.667 -10.167 57 -30.5s23 -45.166 23 -74.499c0 -33.333 -11.167 -62.166 -33.5 -86.499s-53.166 -36.5 -92.499 -36.5c-20.667 0 -42.334 4.16699 -65.001 12.5z" />
    <glyph glyph-name="uni00B9" unicode="&#xb9;" horiz-adv-x="283" 
d="M33 538c0 22 27.6699 37.666 83.0029 46.999c21.333 74.667 40.333 148.667 57 222c-26 -24.667 -52 -40 -78 -46c-10.667 0.666992 -16 5 -16 13c0 6 2.5 12.167 7.5 18.5s11.167 10.833 18.5 13.5c25.333 6 49.333 29 72 69l13 21
c0.666992 1.33301 1.66699 2.83301 3 4.5s1.66602 2.83398 0.999023 3.50098l1 2h2c10 14.667 20.667 22 32 22c8.66699 0 13 -5.66699 13 -17c-27.333 -130 -54.333 -237.667 -81 -323h1c68 0 102 -7 102 -21c0 -7.33301 -4 -14.5 -12 -21.5s-17 -10.5 -27 -10.5
c-6.66699 0 -19.334 1.33301 -38.001 4c-13.333 2.66699 -33 4 -59 4c-24.667 0 -47.667 -5.33301 -69 -16c-2.66699 -1.33301 -6.33398 -2 -11.001 -2c-10 0 -15 4.33301 -15 13z" />
    <glyph glyph-name="ordmasculine" unicode="&#xba;" horiz-adv-x="256" 
d="M68 554.5c-13.333 16.333 -20.001 34.5 -20.001 54.5c0 39.333 10 82 30 128s45.667 85.667 77 119c32.667 33.333 64 51 94 53c20 0 36 -5 48 -15c4 -4 6 -9.66699 6 -17c0 -6 -5 -12.667 -15 -20c0 -126 -22.667 -217.667 -68 -275c-28 -34.667 -63.333 -52 -106 -52
c-17.333 0 -32.666 8.16699 -45.999 24.5zM203.999 628c13.333 19.333 24.332 48.998 32.999 88.998s13 81 13 123l-5 22l-3 1h-2c-25.333 -10 -49.166 -27.667 -71.499 -53s-40.333 -54.666 -54 -87.999s-20.5 -66.666 -20.5 -99.999c0 -19.333 5 -33 15 -41
c4.66699 -3.33301 12 -5 22 -5c24 0 48.333 17.333 73 52z" />
    <glyph glyph-name="guillemotright" unicode="&#xbb;" horiz-adv-x="330" 
d="M-49 105c0.666992 6.66699 3.99902 13.168 9.99902 19.501s12 10.166 18 11.499l15 15c4 2.66699 9.33301 8 16 16c4 4.66699 25.333 22 64 52c36 26 54.667 41.333 56 46c-6 8.66699 -15 15.667 -27 21c-13.333 6 -23.666 12 -30.999 18c-25.333 20 -38 50.333 -38 91
c0 18 3.16699 31.5 9.5 40.5s14.5 13.5 24.5 13.5s14.667 -6.33301 14 -19l-1 -34c0 -18 8.66699 -34.667 26 -50c5.33301 -5.33301 13.333 -11.333 24 -18c2.66699 -1.33301 8.66699 -5 18 -11s17 -12 23 -18s9 -11.667 9 -17c0 -8 -2.83301 -15.833 -8.5 -23.5
s-14.834 -17.5 -27.501 -29.5l-41 -33c-37.333 -28 -61 -48 -71 -60c-10.667 -12.667 -21.167 -23.5 -31.5 -32.5s-21.166 -14.5 -32.499 -16.5c-12 1.33301 -18 7.33301 -18 18zM107.999 154.001c0 5.33301 1.33496 10.335 4.00195 15.002
c21.333 26.667 52.666 51 93.999 73l35 19c-32.667 27.333 -56.334 61 -71.001 101c-4 12 -6 22 -6 30c0 9.33301 2.83301 17.666 8.5 24.999s13.5 11 23.5 11c10.667 0 16 -4.66699 16 -14c0 -10 2.33301 -19.333 7 -28c4.66699 -10 10 -19.5 16 -28.5
s16.333 -21.5 31 -37.5c16 -18 27 -28.333 33 -31c6.66699 -2.66699 10 -7.33398 10 -14.001c0 -6 -3 -12 -9 -18c-11.333 -11.333 -36 -27 -74 -47s-64 -39 -78 -57c-8 -8 -16.667 -12 -26 -12s-14 4.33301 -14 13z" />
    <glyph glyph-name="onequarter" unicode="&#xbc;" horiz-adv-x="682" 
d="M73 -63c0 5.33301 11.999 35.332 35.999 89.999s42.667 95.334 56 122.001l228 481l196 397c18.667 0 28 -5.33301 28 -16c0 -0.666992 -3.83301 -15 -11.5 -43s-23.834 -66 -48.501 -114l-19 -39c-137.333 -274 -245.666 -499 -324.999 -675l-92 -202
c-5.33301 -11.333 -14.666 -17 -27.999 -17s-20 5.33301 -20 16zM88.999 611.999c0 12.667 7.16602 22.6689 21.499 30.002s34.833 13.333 61.5 18c26 82 47.667 160.333 65 235c-32 -39.333 -60.667 -59 -86 -59c-4.66699 0 -8.5 1.33301 -11.5 4s-4.5 5.66699 -4.5 9
c0 12 10 21 30 27c12 2.66699 23.167 10 33.5 22s21.833 29 34.5 51c2 2.66699 5.83301 9.16699 11.5 19.5s12 18.666 19 24.999s14.167 9.5 21.5 9.5c8.66699 0 13 -5.66699 13 -17c-26.667 -126.667 -53.667 -234.334 -81 -323.001c68.667 0 103 -7 103 -21
c0 -7.33301 -4 -14.5 -12 -21.5s-17.333 -10.5 -28 -10.5c-6.66699 0 -13.667 0.5 -21 1.5s-13 1.5 -17 1.5c-15.333 3.33301 -34.333 5 -57 5c-15.333 0 -32.166 -3 -50.499 -9s-28.5 -9 -30.5 -9c-10 0 -15 4 -15 12zM456.998 8.00098c2 24 11.667 54.3281 29 90.9951
c18 36.667 33.333 74 46 112c-53.333 -10.667 -91 -16 -113 -16c-20 0 -30 5.66699 -30 17c0 6 3.5 14.5 10.5 25.5s18.167 27.5 33.5 49.5c22 29.333 36 51 42 65c30.667 64.667 57 100.334 79 107.001c4 1.33301 7.33301 2 10 2c8.66699 0 13 -6.33301 13 -19
c0 -4.66699 -5.33301 -14.667 -16 -30c-5.33301 -7.33301 -11 -15.666 -17 -24.999s-11 -18.666 -15 -27.999l-84 -125l109 25l31 103c16 55.333 34.667 83 56 83c10.667 0 16 -6 16 -18c0 -9.33301 -3.33301 -20.666 -10 -33.999
c-95.333 -239.333 -143.333 -363.666 -144 -372.999c-0.666992 -10 -4 -18 -10 -24s-12.333 -9 -19 -9c-10 0 -15.667 7 -17 21z" />
    <glyph glyph-name="onehalf" unicode="&#xbd;" horiz-adv-x="682" 
d="M73 -63c0 4.66699 3.99805 16.001 11.998 34.001l39 87l41 91l129 282l49 100c20 37.333 36.667 70.333 50 99l196 397h1c18 0 27 -5.33301 27 -16c0 -4.66699 -2.66699 -10.334 -8 -17.001v-1h1c0 -22 -17.667 -68.333 -53 -139l-19 -39
c-137.333 -274 -245.666 -499 -324.999 -675l-92 -202c-5.33301 -11.333 -14.666 -17 -27.999 -17s-20 5.33301 -20 16zM88.998 612.001c0 12.667 7.16699 22.668 21.5 30.001s34.833 13.333 61.5 18c22 76 41 150 57 222c-24.667 -25.333 -50.667 -40.666 -78 -45.999
c-10.667 0.666992 -16 5 -16 13c0 6 2.5 12.167 7.5 18.5s11.167 10.833 18.5 13.5c26 6 50 28.667 72 68c8 13.333 12.667 20.666 14 21.999c3.33301 5.33301 4.33301 8 3 8l1 2h2c10 14.667 20.667 22 32 22c8.66699 0 13 -5.66699 13 -17
c-26.667 -126.667 -53.667 -234.334 -81 -323.001h1c68 0 102 -7 102 -21c0 -7.33301 -4 -14.5 -12 -21.5s-17.333 -10.5 -28 -10.5c-12 0 -24.667 1.33301 -38 4c-12.667 2.66699 -31.667 4 -57 4c-24.667 0 -48 -5.33301 -70 -16c-5.33301 -1.33301 -9 -2 -11 -2
c-10 0 -15 4 -15 12zM448.998 72.002c-30.667 -28.667 -53.002 -43 -67.002 -43s-21 8.66699 -21 26c0 16.667 10.667 34.667 32 54c8.66699 8 18.334 14.833 29.001 20.5s19 8.5 25 8.5c7.33301 0 12 -0.666992 14 -2c50.667 62.667 92 140 124 232
c-17.333 -2.66699 -36.333 -13.334 -57 -32.001c-2 -8 -6.16699 -14.833 -12.5 -20.5s-12.833 -8.5 -19.5 -8.5c-11.333 0 -17 7.33301 -17 22c0 9.33301 7.33301 20.833 22 34.5s32 25.667 52 36s37.333 15.5 52 15.5c19.333 0 29 -10.333 29 -31
c0 -15.333 -5.66699 -34.333 -17 -57c-49.333 -98 -91.666 -168.333 -126.999 -211c2.66699 -2.66699 6 -6.66699 10 -12c0.666992 -1.33301 3.33398 -6 8.00098 -14c12 -15.333 26 -26 42 -32c4.66699 -2.66699 10.667 -4 18 -4c6.66699 0 17 1 31 3
c9.33301 -3.33301 14 -8.66602 14 -15.999c0 -8 -5 -15.167 -15 -21.5s-21 -9.5 -33 -9.5c-46.667 0 -85.334 20.667 -116.001 62z" />
    <glyph glyph-name="threequarters" unicode="&#xbe;" horiz-adv-x="682" 
d="M538 815c-137.333 -274 -245.668 -498.999 -325.001 -674.999l-92 -202c-5.33301 -11.333 -14.666 -17 -27.999 -17s-20 5.33301 -20 16c0 4.66699 4 16 12 34l34 77l46 101l228 481l196 397h1c18 0 27 -5.33301 27 -16c0 -4.66699 -2.66699 -10.334 -8 -17.001v-1h1
c0 -22 -17.667 -68.333 -53 -139zM266.498 584.001c-25.667 -40 -56.8359 -72.3311 -93.5029 -96.998s-70 -37 -100 -37c-19.333 0 -38.666 4.83301 -57.999 14.5s-35.666 23.834 -48.999 42.501s-20.333 40.667 -21 66c2.66699 14 10.334 24 23.001 30
c5.33301 1.33301 9.66602 2 12.999 2c5.33301 0 9.33301 -3.66699 12 -11c0.666992 -29.333 8.83398 -52 24.501 -68s35.167 -24 58.5 -24c30.667 0 59.834 8.5 87.501 25.5s50 40.333 67 70s25.5 62.834 25.5 99.501c0 39.333 -10.667 60.666 -32 63.999l-21 -2h-8
c-11.333 0 -17 5 -17 15c0 6 4.33301 12.667 13 20s18.167 14.666 28.5 21.999s18.166 12.666 23.499 15.999c27.333 18.667 46 35.667 56 51c6 9.33301 9 19.666 9 30.999c0 10.667 -11.333 16 -34 16c-14 0 -24.333 -1.66699 -31 -5c-10 -3.33301 -15.667 -5 -17 -5
c-4.66699 -3.33301 -9.66699 -5 -15 -5c-9.33301 0 -14 4 -14 12c0 14 9.16699 25.833 27.5 35.5s38.833 14.5 61.5 14.5c21.333 0 38.5 -4 51.5 -12s19.5 -18.333 19.5 -31c0 -42 -31 -86.667 -93 -134c27.333 -12.667 41 -42.667 41 -90c0 -44 -12.833 -86 -38.5 -126z
M209.996 765.003l-2.00098 -1c-1.33301 0 -2.33301 -0.333008 -3 -1c0.666992 0 2.33398 0.666992 5.00098 2zM656.995 427.003c0 -9.33301 -3.33008 -20.6641 -9.99707 -33.9971c-6 -14.667 -11 -36.667 -15 -66c-2.66699 -28 -7.33398 -55 -14.001 -81
c-4.66699 -10 -15.334 -17.667 -32.001 -23c-21.333 -61.333 -42.333 -111 -63 -149v2c-12.667 -28 -19.334 -46.667 -20.001 -56c-0.666992 -10 -4 -18 -10 -24s-12.333 -9 -19 -9c-10 0 -15.667 7 -17 21c2 24 11.667 54.333 29 91c18 36.667 33.333 74 46 112
c-53.333 -10.667 -91 -16 -113 -16c-20 0 -30 5.66699 -30 17c0 10 4.33301 21 13 33s20.667 27.333 36 46c12.667 16 18.667 23.667 18 23v-1l19 39c32 67.333 58.333 103 79 107l7 1c10.667 0 16 -6 16 -18c0 -6.66699 -2.66699 -13.334 -8 -20.001
c-11.333 -8 -24.666 -29 -39.999 -63c-16 -34.667 -38.333 -71.334 -67 -110.001c-1.33301 -0.666992 -2 -1.66699 -2 -3c3.33301 0.666992 11.333 2 24 4c4.66699 0 11.667 0.666992 21 2l20 3c9.33301 1.33301 16.666 2.66602 21.999 3.99902
c8.66699 29.333 18.667 54.666 30 75.999v-2c0 0.666992 2.66699 10.334 8 29.001c16 55.333 34.667 83 56 83c10.667 0 16 -6 16 -18z" />
    <glyph glyph-name="questiondown" unicode="&#xbf;" horiz-adv-x="406" 
d="M340 659c6 -8.66699 9 -21 9 -37c0 -12.667 -6.33301 -24.5 -19 -35.5s-25 -16.5 -37 -16.5c-23.333 0 -35 9.66699 -35 29c0 10.667 2.33301 23 7 37c10 18.667 22.667 30.667 38 36c18.667 0 31 -4.33301 37 -13zM312 481c-15.333 -90.667 -28 -153.001 -38 -187.001
c-8.66699 -29.333 -20 -56.5 -34 -81.5s-41.333 -66.167 -82 -123.5c-54 -78 -81 -146.333 -81 -205c0 -54.667 11.167 -94.167 33.5 -118.5s50.5 -36.5 84.5 -36.5c38 0 72 5.66699 102 17s53.667 27.333 71 48s26 44.334 26 71.001c0 5.33301 -2.66699 17.666 -8 36.999
s-8 30.333 -8 33c0 8 4.66699 12 14 12c29.333 0 44 -28.667 44 -86c0 -36.667 -11.5 -68.667 -34.5 -96s-52.667 -48 -89 -62s-73.833 -21 -112.5 -21c-77.333 0 -129.333 35.333 -156 106c-9.33301 26.667 -14 55 -14 85c0 29.333 1.83301 53.5 5.5 72.5
s9.16699 37.167 16.5 54.5c6 14 14 28.667 24 44s20.333 30 31 44l35 45c24.667 32.667 43.667 60.667 57 84s25.5 54.833 36.5 94.5s21.167 93.834 30.5 162.501c0.666992 7.33301 4 13.833 10 19.5s12 8.5 18 8.5c11.333 0 17.333 -7 18 -21z" />
    <glyph glyph-name="Agrave" unicode="&#xc0;" horiz-adv-x="702" 
d="M595.5 293c16.333 -2 26.833 -4.83008 31.5 -8.49707s7 -8.83398 7 -15.501c0 -6 -3.16699 -11.833 -9.5 -17.5s-12.833 -8.16699 -19.5 -7.5l-34 4c2.66699 -27.333 8 -72.833 16 -136.5s12.667 -93.834 14 -90.501c-0.666992 -6.66699 -3.66699 -12.334 -9 -17.001
s-11 -7 -17 -7c-12 0 -22 17 -30 51c-4 19.333 -8.33301 53.666 -13 102.999c-6 58 -9.66699 92.333 -11 103c-54.667 4.66699 -124.667 7.66699 -210 9l-60 1c-86 -129.333 -167 -211.666 -243 -246.999c-25.333 -12.667 -45.333 -19 -60 -19c-17.333 0 -26 8.33301 -26 25
c0 8 3 15.167 9 21.5s12 9.5 18 9.5s11 -2.66699 15 -8c45.333 18 85.666 44.167 120.999 78.5s74.333 81.166 117 140.499l-40 2c-31.333 1.33301 -53.666 3.16602 -66.999 5.49902s-20 7.83301 -20 16.5c0 6.66699 2.83301 13 8.5 19s12.167 9.66699 19.5 11
c16.667 -2.66699 60 -5.66699 130 -9c64 96 130 209.833 198 341.5s109.667 232.167 125 301.5c2.66699 6.66699 7 12.334 13 17.001s11.667 7 17 7c4.66699 0 9.16699 -3.66699 13.5 -11s6.5 -14.666 6.5 -21.999c0 -6.66699 -1.66699 -11.667 -5 -15
c-10.667 -39.333 -21.5 -111.333 -32.5 -216s-16.5 -179 -16.5 -223c0 -52.667 4 -117 12 -193c4.66699 -0.666992 15.167 -2 31.5 -4zM529 751.003c-36 -75.333 -77.667 -154.667 -125 -238s-88 -151.333 -122 -204c91.333 0 169.333 -2.33301 234 -7
c-5.33301 46 -8 105 -8 177c0 75.333 7 166 21 272zM601 24.002v-3v3zM637 1039c-26.667 34 -46.166 62.168 -58.499 84.501s-21.833 45.166 -28.5 68.499c0 8 2.83301 15.167 8.5 21.5s11.5 9.5 17.5 9.5c10 0 16.667 -5.66699 20 -17
c5.33301 -18.667 13.333 -37.167 24 -55.5s29 -44.166 55 -77.499c2.66699 -5.33301 4 -10 4 -14c0 -6.66699 -2.66699 -12.834 -8 -18.501s-11 -8.5 -17 -8.5c-6.66699 0 -12.334 2.33301 -17.001 7z" />
    <glyph glyph-name="Aacute" unicode="&#xc1;" horiz-adv-x="702" 
d="M595.5 293c16.333 -2 26.833 -4.83008 31.5 -8.49707s7 -8.83398 7 -15.501c0 -6 -3.16699 -11.833 -9.5 -17.5s-12.833 -8.16699 -19.5 -7.5l-34 4c2.66699 -27.333 8 -72.833 16 -136.5s12.667 -93.834 14 -90.501c-0.666992 -6.66699 -3.66699 -12.334 -9 -17.001
s-11 -7 -17 -7c-12 0 -22 17 -30 51c-4 19.333 -8.33301 53.666 -13 102.999c-6 58 -9.66699 92.333 -11 103c-54.667 4.66699 -124.667 7.66699 -210 9l-60 1c-86 -129.333 -167 -211.666 -243 -246.999c-25.333 -12.667 -45.333 -19 -60 -19c-17.333 0 -26 8.33301 -26 25
c0 8 3 15.167 9 21.5s12 9.5 18 9.5s11 -2.66699 15 -8c45.333 18 85.666 44.167 120.999 78.5s74.333 81.166 117 140.499l-40 2c-31.333 1.33301 -53.666 3.16602 -66.999 5.49902s-20 7.83301 -20 16.5c0 6.66699 2.83301 13 8.5 19s12.167 9.66699 19.5 11
c16.667 -2.66699 60 -5.66699 130 -9c64 96 130 209.833 198 341.5s109.667 232.167 125 301.5c2.66699 6.66699 7 12.334 13 17.001s11.667 7 17 7c4.66699 0 9.16699 -3.66699 13.5 -11s6.5 -14.666 6.5 -21.999c0 -6.66699 -1.66699 -11.667 -5 -15
c-10.667 -39.333 -21.5 -111.333 -32.5 -216s-16.5 -179 -16.5 -223c0 -52.667 4 -117 12 -193c4.66699 -0.666992 15.167 -2 31.5 -4zM529 751.003c-36 -75.333 -77.667 -154.667 -125 -238s-88 -151.333 -122 -204c91.333 0 169.333 -2.33301 234 -7
c-5.33301 46 -8 105 -8 177c0 75.333 7 166 21 272zM601 24.002v-3v3zM577 1055c0 4 3.66797 11.333 11.001 22c12 16.667 27.333 44 46 82l22 46c5.33301 10 12.666 25 21.999 45c7.33301 10 15.666 15 24.999 15c12 0 18 -5.66699 18 -17c0 -6 -2.33301 -13.333 -7 -22
c-2.66699 -3.33301 -5.66699 -8.83301 -9 -16.5s-6.66602 -14.5 -9.99902 -20.5c-12.667 -28.667 -24.5 -53.5 -35.5 -74.5s-23.5 -40.5 -37.5 -58.5c-0.666992 -6 -3.5 -11.5 -8.5 -16.5s-9.5 -7.5 -13.5 -7.5c-15.333 0 -23 7.66699 -23 23z" />
    <glyph glyph-name="Acircumflex" unicode="&#xc2;" horiz-adv-x="702" 
d="M595.5 293c16.333 -2 26.833 -4.83008 31.5 -8.49707s7 -8.83398 7 -15.501c0 -6 -3.16699 -11.833 -9.5 -17.5s-12.833 -8.16699 -19.5 -7.5l-34 4c2.66699 -27.333 8 -72.833 16 -136.5s12.667 -93.834 14 -90.501c-0.666992 -6.66699 -3.66699 -12.334 -9 -17.001
s-11 -7 -17 -7c-12 0 -22 17 -30 51c-4 19.333 -8.33301 53.666 -13 102.999c-6 58 -9.66699 92.333 -11 103c-54.667 4.66699 -124.667 7.66699 -210 9l-60 1c-86 -129.333 -167 -211.666 -243 -246.999c-25.333 -12.667 -45.333 -19 -60 -19c-17.333 0 -26 8.33301 -26 25
c0 8 3 15.167 9 21.5s12 9.5 18 9.5s11 -2.66699 15 -8c45.333 18 85.666 44.167 120.999 78.5s74.333 81.166 117 140.499l-40 2c-31.333 1.33301 -53.666 3.16602 -66.999 5.49902s-20 7.83301 -20 16.5c0 6.66699 2.83301 13 8.5 19s12.167 9.66699 19.5 11
c16.667 -2.66699 60 -5.66699 130 -9c64 96 130 209.833 198 341.5s109.667 232.167 125 301.5c2.66699 6.66699 7 12.334 13 17.001s11.667 7 17 7c4.66699 0 9.16699 -3.66699 13.5 -11s6.5 -14.666 6.5 -21.999c0 -6.66699 -1.66699 -11.667 -5 -15
c-10.667 -39.333 -21.5 -111.333 -32.5 -216s-16.5 -179 -16.5 -223c0 -52.667 4 -117 12 -193c4.66699 -0.666992 15.167 -2 31.5 -4zM529 751.003c-36 -75.333 -77.667 -154.667 -125 -238s-88 -151.333 -122 -204c91.333 0 169.333 -2.33301 234 -7
c-5.33301 46 -8 105 -8 177c0 75.333 7 166 21 272zM601 24.002v-3v3zM653 1072c-18.667 24.667 -32.998 51.335 -42.998 80.002c-2 -2.66699 -4.33301 -6.66699 -7 -12c-8.66699 -18.667 -34.334 -51.334 -77.001 -98.001c-6 -4 -11.667 -6 -17 -6
c-12 0 -18 5.33301 -18 16c0 11.333 12 30 36 56c25.333 29.333 40.666 49.666 45.999 60.999c11.333 20 21.5 35.667 30.5 47s18.833 17 29.5 17c12 0 18 -6.33301 18 -19l-1 -12c0 -16 8 -38 24 -66s33 -48.333 51 -61c2.66699 -4.66699 4 -9.66699 4 -15
c0 -6.66699 -2.83301 -12.5 -8.5 -17.5s-12.167 -7.5 -19.5 -7.5c-13.333 0 -29.333 12.333 -48 37z" />
    <glyph glyph-name="Atilde" unicode="&#xc3;" horiz-adv-x="702" 
d="M595.5 293c16.333 -2 26.833 -4.83008 31.5 -8.49707s7 -8.83398 7 -15.501c0 -6 -3.16699 -11.833 -9.5 -17.5s-12.833 -8.16699 -19.5 -7.5l-34 4c2.66699 -27.333 8 -72.833 16 -136.5s12.667 -93.834 14 -90.501c-0.666992 -6.66699 -3.66699 -12.334 -9 -17.001
s-11 -7 -17 -7c-12 0 -22 17 -30 51c-4 19.333 -8.33301 53.666 -13 102.999c-6 58 -9.66699 92.333 -11 103c-54.667 4.66699 -124.667 7.66699 -210 9l-60 1c-86 -129.333 -167 -211.666 -243 -246.999c-25.333 -12.667 -45.333 -19 -60 -19c-17.333 0 -26 8.33301 -26 25
c0 8 3 15.167 9 21.5s12 9.5 18 9.5s11 -2.66699 15 -8c45.333 18 85.666 44.167 120.999 78.5s74.333 81.166 117 140.499l-40 2c-31.333 1.33301 -53.666 3.16602 -66.999 5.49902s-20 7.83301 -20 16.5c0 6.66699 2.83301 13 8.5 19s12.167 9.66699 19.5 11
c16.667 -2.66699 60 -5.66699 130 -9c64 96 130 209.833 198 341.5s109.667 232.167 125 301.5c2.66699 6.66699 7 12.334 13 17.001s11.667 7 17 7c4.66699 0 9.16699 -3.66699 13.5 -11s6.5 -14.666 6.5 -21.999c0 -6.66699 -1.66699 -11.667 -5 -15
c-10.667 -39.333 -21.5 -111.333 -32.5 -216s-16.5 -179 -16.5 -223c0 -52.667 4 -117 12 -193c4.66699 -0.666992 15.167 -2 31.5 -4zM529 751.003c-36 -75.333 -77.667 -154.667 -125 -238s-88 -151.333 -122 -204c91.333 0 169.333 -2.33301 234 -7
c-5.33301 46 -8 105 -8 177c0 75.333 7 166 21 272zM601 24.002v-3v3zM657 1074.5c-10 5 -20.9971 12.166 -32.9971 21.499c-3.33301 2 -8.83301 5.83301 -16.5 11.5s-14.334 9.83398 -20.001 12.501s-10.834 4 -15.501 4c-16 0 -29.667 -12 -41 -36
c-6 -8 -13.667 -12 -23 -12c-12 0 -18 5.66699 -18 17c0 2 0.666992 5.66699 2 11c23.333 45.333 48.666 68 75.999 68c14 0 32 -6.33301 54 -19c24 -14 41.5 -23.5 52.5 -28.5s22.167 -7.5 33.5 -7.5c12.667 0 19 1.33301 19 4v6l-5 27c0 8.66699 2.83301 16 8.5 22
s12.167 9 19.5 9c13.333 0 20 -15.667 20 -47c0 -32 -14 -53.667 -42 -65c-10 -4 -22 -6 -36 -6c-13.333 0 -25 2.5 -35 7.5z" />
    <glyph glyph-name="Adieresis" unicode="&#xc4;" horiz-adv-x="702" 
d="M595.5 293c16.333 -2 26.833 -4.83008 31.5 -8.49707s7 -8.83398 7 -15.501c0 -6 -3.16699 -11.833 -9.5 -17.5s-12.833 -8.16699 -19.5 -7.5l-34 4c2.66699 -27.333 8 -72.833 16 -136.5s12.667 -93.834 14 -90.501c-0.666992 -6.66699 -3.66699 -12.334 -9 -17.001
s-11 -7 -17 -7c-12 0 -22 17 -30 51c-4 19.333 -8.33301 53.666 -13 102.999c-6 58 -9.66699 92.333 -11 103c-54.667 4.66699 -124.667 7.66699 -210 9l-60 1c-86 -129.333 -167 -211.666 -243 -246.999c-25.333 -12.667 -45.333 -19 -60 -19c-17.333 0 -26 8.33301 -26 25
c0 8 3 15.167 9 21.5s12 9.5 18 9.5s11 -2.66699 15 -8c45.333 18 85.666 44.167 120.999 78.5s74.333 81.166 117 140.499l-40 2c-31.333 1.33301 -53.666 3.16602 -66.999 5.49902s-20 7.83301 -20 16.5c0 6.66699 2.83301 13 8.5 19s12.167 9.66699 19.5 11
c16.667 -2.66699 60 -5.66699 130 -9c64 96 130 209.833 198 341.5s109.667 232.167 125 301.5c2.66699 6.66699 7 12.334 13 17.001s11.667 7 17 7c4.66699 0 9.16699 -3.66699 13.5 -11s6.5 -14.666 6.5 -21.999c0 -6.66699 -1.66699 -11.667 -5 -15
c-10.667 -39.333 -21.5 -111.333 -32.5 -216s-16.5 -179 -16.5 -223c0 -52.667 4 -117 12 -193c4.66699 -0.666992 15.167 -2 31.5 -4zM529 751.003c-36 -75.333 -77.667 -154.667 -125 -238s-88 -151.333 -122 -204c91.333 0 169.333 -2.33301 234 -7
c-5.33301 46 -8 105 -8 177c0 75.333 7 166 21 272zM601 24.002v-3v3zM509 1073.5c-5.33301 10.333 -8 20.833 -8 31.5c0 16 4.66699 29.333 14 40c7.33301 10.667 18 16 32 16c6.66699 0 14.334 -3.66699 23.001 -11v1c10.667 -12.667 16 -24 16 -34
s-7.33301 -22.333 -22 -37s-26.334 -22 -35.001 -22c-8 0 -14.667 5.16699 -20 15.5zM720 1065c-16 6 -24 17 -24 33c0 14.667 6 28.334 18 41.001s23 19 33 19c20.667 0 31 -10.333 31 -31c0 -14.667 -5.33301 -28.834 -16 -42.501s-22 -20.5 -34 -20.5z" />
    <glyph glyph-name="Aring" unicode="&#xc5;" horiz-adv-x="702" 
d="M595.5 293c16.333 -2 26.833 -4.83008 31.5 -8.49707s7 -8.83398 7 -15.501c0 -6 -3.16699 -11.833 -9.5 -17.5s-12.833 -8.16699 -19.5 -7.5l-34 4c2.66699 -27.333 8 -72.833 16 -136.5s12.667 -93.834 14 -90.501c-0.666992 -6.66699 -3.66699 -12.334 -9 -17.001
s-11 -7 -17 -7c-12 0 -22 17 -30 51c-4 19.333 -8.33301 53.666 -13 102.999c-6 58 -9.66699 92.333 -11 103c-54.667 4.66699 -124.667 7.66699 -210 9l-60 1c-86 -129.333 -167 -211.666 -243 -246.999c-25.333 -12.667 -45.333 -19 -60 -19c-17.333 0 -26 8.33301 -26 25
c0 8 3 15.167 9 21.5s12 9.5 18 9.5s11 -2.66699 15 -8c45.333 18 85.666 44.167 120.999 78.5s74.333 81.166 117 140.499l-40 2c-31.333 1.33301 -53.666 3.16602 -66.999 5.49902s-20 7.83301 -20 16.5c0 6.66699 2.83301 13 8.5 19s12.167 9.66699 19.5 11
c16.667 -2.66699 60 -5.66699 130 -9c64 96 130 209.833 198 341.5s109.667 232.167 125 301.5c2.66699 6.66699 7 12.334 13 17.001s11.667 7 17 7c4.66699 0 9.16699 -3.66699 13.5 -11s6.5 -14.666 6.5 -21.999c0 -6.66699 -1.66699 -11.667 -5 -15
c-10.667 -39.333 -21.5 -111.333 -32.5 -216s-16.5 -179 -16.5 -223c0 -52.667 4 -117 12 -193c4.66699 -0.666992 15.167 -2 31.5 -4zM529 751.003c-36 -75.333 -77.667 -154.667 -125 -238s-88 -151.333 -122 -204c91.333 0 169.333 -2.33301 234 -7
c-5.33301 46 -8 105 -8 177c0 75.333 7 166 21 272zM601 24.002v-3v3zM505 1047c-6.66699 9.33301 -10.001 20.667 -10.001 34c0 24 7 46.333 21 67c7.33301 9.33301 15.666 17 24.999 23s18.333 9 27 9c10 0 17.667 -1.33301 23 -4c2.66699 2 6.33398 3 11.001 3
c6 0 10.333 -1.33301 13 -4c36 -26 54 -55.333 54 -88c0 -22 -7.66699 -40.333 -23 -55s-34.666 -22 -57.999 -22c-37.333 0 -65 12.333 -83 37zM621.999 1083c0 10.667 -7.66699 23.667 -23 39h-6c-5.33301 0 -10.666 1.66699 -15.999 5c-4.66699 3.33301 -9.66699 5 -15 5
c-6 0 -10.833 -3.5 -14.5 -10.5s-5.5 -16.167 -5.5 -27.5c0 -10.667 5.66699 -20.167 17 -28.5s22.666 -12.5 33.999 -12.5c19.333 0 29 10 29 30z" />
    <glyph glyph-name="AE" unicode="&#xc6;" horiz-adv-x="953" 
d="M524 -2l-118.998 4.00488l-34 -3c-9.33301 0 -16.5 2 -21.5 6s-7.5 9 -7.5 15c0 3.33301 1.33301 7 4 11c12 16 23.667 46.333 35 91s21 91 29 139l-159 3c-38 -58 -76.333 -107 -115 -147s-74.167 -69.833 -106.5 -89.5s-59.5 -29.5 -81.5 -29.5
c-17.333 0 -26 8.33301 -26 25c0 8.66699 2.83301 16 8.5 22s12.167 9 19.5 9c6 0 10.667 -2.66699 14 -8c42.667 16.667 81.834 41.667 117.501 75s75.834 81.333 120.501 144c-34.667 2 -72.334 4.66699 -113.001 8c-9.33301 3.33301 -14 8.66602 -14 15.999
c0 6.66699 2.83301 13 8.5 19s12.167 9.66699 19.5 11c16.667 -2.66699 60 -5.66699 130 -9c64 96 144.667 237.667 242 425c23.333 44.667 43.333 92 60 142c-10 3.33301 -15 8.66602 -15 15.999c0 6.66699 2.16699 12 6.5 16s11.5 8 21.5 12l6.5 22.5
c3 10.333 7 18.5 12 24.5s11.5 9 19.5 9c15.333 0 23 -6.66699 23 -20c0 -4 -1 -8.66699 -3 -14c68 16.667 165.667 25 293 25c29.333 0 49.5 -1.16699 60.5 -3.5s16.5 -6.83301 16.5 -13.5s-2.33301 -12.834 -7 -18.501s-10.334 -9.5 -17.001 -11.5
c-104.667 0 -182.834 -2 -234.501 -6s-91.834 -10.667 -120.501 -20c-10.667 -36.667 -25.834 -97.334 -45.501 -182.001l-44.5 -195h63l134 1c35.333 0 61.166 -1.33301 77.499 -4s24.5 -7.66699 24.5 -15c0 -13.333 -6.33301 -22.333 -19 -27
c-12.667 -4 -41.667 -6 -87 -6c-38 0 -81.667 1 -131 3l-72 2c-7.33301 -32.667 -14.166 -65.167 -20.499 -97.5l-13.5 -69.5l31 -2c46.667 -2 81.667 -5.16699 105 -9.5s35 -12.5 35 -24.5c0 -6 -3.16699 -11.833 -9.5 -17.5s-13.5 -8.5 -21.5 -8.5
c-37.333 7.33301 -86.333 12.666 -147 15.999c-8 -49.333 -16 -91 -24 -125s-18.333 -63.667 -31 -89l386 -8c28.667 0 51.667 0.666992 69 2c11.333 -3.33301 17 -10 17 -20c0 -12 -6.33301 -19.333 -19 -22c-13.333 -4 -33.666 -6 -60.999 -6
c-24 0 -113.667 2.33301 -269 7zM502.002 696.005c-86 -164 -159.333 -293 -220 -387l135 -2z" />
    <glyph glyph-name="Ccedilla" unicode="&#xc7;" horiz-adv-x="544" 
d="M499.5 944c28.333 -20 50.8311 -45.5039 67.498 -76.5039s25 -61.5 25 -91.5c-1.33301 -9.33301 -4 -16.333 -8 -21s-8.66699 -7 -14 -7c-6.66699 0 -12.667 3.33301 -18 10s-8.66602 16 -9.99902 28c-5.33301 42 -20.333 75.833 -45 101.5s-55 38.5 -91 38.5
s-74.667 -24.667 -116 -74c-34.667 -41.333 -67.5 -97 -98.5 -167s-55.833 -141.167 -74.5 -213.5s-28 -131.833 -28 -178.5c0 -74 13.667 -135.667 41 -185s66.666 -74 117.999 -74c40 0 85.667 18.667 137 56l17 12l18 13c9.33301 6.66699 16.333 10 21 10
c11.333 0 17 -6 17 -18c0 -7.33301 -3.16699 -14 -9.5 -20s-16.166 -13.333 -29.499 -22c-13.333 -9.33301 -20.666 -14.666 -21.999 -15.999c-39.333 -29.333 -76.666 -48.666 -111.999 -57.999c-3.33301 -8 -8.66602 -18.333 -15.999 -31
c-0.666992 -1.33301 -6 -11 -16 -29c12 6 24 9 36 9c22.667 0 41.667 -10.167 57 -30.5s23 -45.166 23 -74.499c0 -33.333 -11.167 -62.166 -33.5 -86.499s-53.166 -36.5 -92.499 -36.5c-20.667 0 -42.334 4.16699 -65.001 12.5s-34 18.166 -34 29.499
c0 8.66699 2.66699 15.167 8 19.5s12 6.5 20 6.5c33.333 -14.667 59.666 -22 78.999 -22s36.5 7.33301 51.5 22s22.5 32 22.5 52c0 23.333 -3.83301 41.166 -11.5 53.499s-19.5 18.5 -35.5 18.5c-25.333 0 -45.333 -11.333 -60 -34c-4.66699 -8 -10.667 -12 -18 -12
c-4.66699 0 -8.66699 1.5 -12 4.5s-5 6.83301 -5 11.5c0 4 0.666992 7 2 9l19 39c11.333 23.333 22 44.333 32 63c-41.333 0.666992 -77 15.834 -107 45.501s-52.667 66.334 -68 110.001s-23 86.167 -23 127.5c0 57.333 9 124.5 27 201.5s43.333 153.833 76 230.5
c34.667 82 75.167 148.167 121.5 198.5s94.5 75.5 144.5 75.5c33.333 0 64.166 -10 92.499 -30z" />
    <glyph glyph-name="Egrave" unicode="&#xc8;" horiz-adv-x="594" 
d="M305.5 -5.5c-68.333 2.33301 -118.5 3.83301 -150.5 4.5l-108 3l-34 -3c-18.667 0 -28 7 -28 21c0 4.66699 1 8.33398 3 11.001c4.66699 6.66699 12 24.834 22 54.501s18.667 60.5 26 92.5l53 246l97 450c-10.667 0.666992 -16 7.33398 -16 20.001c0 12 9.66699 23 29 33
c0 20.667 10 31 30 31c10.667 0 16.334 -5 17.001 -15c31.333 7.33301 74.833 13.333 130.5 18s106.834 7 153.501 7c30.667 0 53.667 -1 69 -3c12.667 -2 19 -7 19 -15c0 -9.33301 -2.66699 -16.5 -8 -21.5s-10.666 -7.5 -15.999 -7.5c-104.667 0 -182.834 -2 -234.501 -6
s-91.834 -10.667 -120.501 -20c-11.333 -39.333 -28.333 -114 -51 -224c-18 -86 -29 -137 -33 -153c24.667 -2.66699 75.334 -4 152.001 -4c53.333 0 94.666 0.666992 123.999 2c7.33301 0 12 -1.5 14 -4.5s3 -6.83301 3 -11.5c0 -14 -7 -23 -21 -27s-34.667 -6 -62 -6
l-220 5c-10 -36.667 -25.667 -102.334 -47 -197.001c-25.333 -115.333 -43.666 -192 -54.999 -230c44.667 -0.666992 82 -1.33398 112 -2.00098s54.667 -1.33398 74 -2.00098l240 -4c9.33301 0 15.666 0.333008 18.999 1s6.66602 1 9.99902 1c11.333 -3.33301 17 -9 17 -17
c0 -12.667 -5.66699 -21 -17 -25s-33 -6 -65 -6c-16.667 0 -59.167 1.16699 -127.5 3.5zM452 1037c-26.667 34 -46.166 62.168 -58.499 84.501s-21.833 45.166 -28.5 68.499c0 8 2.83301 15.167 8.5 21.5s11.5 9.5 17.5 9.5c10 0 16.667 -5.66699 20 -17
c5.33301 -18.667 13.333 -37.167 24 -55.5s29 -44.166 55 -77.499c2.66699 -5.33301 4 -10 4 -14c0 -6.66699 -2.66699 -12.834 -8 -18.501s-11 -8.5 -17 -8.5c-6.66699 0 -12.334 2.33301 -17.001 7z" />
    <glyph glyph-name="Eacute" unicode="&#xc9;" horiz-adv-x="594" 
d="M305.5 -5.5c-68.333 2.33301 -118.5 3.83301 -150.5 4.5l-108 3l-34 -3c-18.667 0 -28 7 -28 21c0 4.66699 1 8.33398 3 11.001c4.66699 6.66699 12 24.834 22 54.501s18.667 60.5 26 92.5l53 246l97 450c-10.667 0.666992 -16 7.33398 -16 20.001c0 12 9.66699 23 29 33
c0 20.667 10 31 30 31c10.667 0 16.334 -5 17.001 -15c31.333 7.33301 74.833 13.333 130.5 18s106.834 7 153.501 7c30.667 0 53.667 -1 69 -3c12.667 -2 19 -7 19 -15c0 -9.33301 -2.66699 -16.5 -8 -21.5s-10.666 -7.5 -15.999 -7.5c-104.667 0 -182.834 -2 -234.501 -6
s-91.834 -10.667 -120.501 -20c-11.333 -39.333 -28.333 -114 -51 -224c-18 -86 -29 -137 -33 -153c24.667 -2.66699 75.334 -4 152.001 -4c53.333 0 94.666 0.666992 123.999 2c7.33301 0 12 -1.5 14 -4.5s3 -6.83301 3 -11.5c0 -14 -7 -23 -21 -27s-34.667 -6 -62 -6
l-220 5c-10 -36.667 -25.667 -102.334 -47 -197.001c-25.333 -115.333 -43.666 -192 -54.999 -230c44.667 -0.666992 82 -1.33398 112 -2.00098s54.667 -1.33398 74 -2.00098l240 -4c9.33301 0 15.666 0.333008 18.999 1s6.66602 1 9.99902 1c11.333 -3.33301 17 -9 17 -17
c0 -12.667 -5.66699 -21 -17 -25s-33 -6 -65 -6c-16.667 0 -59.167 1.16699 -127.5 3.5zM392 1053c0 4 3.66797 11.333 11.001 22c12 16.667 27.333 44 46 82l22 46c5.33301 10 12.666 25 21.999 45c7.33301 10 15.666 15 24.999 15c12 0 18 -5.66699 18 -17
c0 -6 -2.33301 -13.333 -7 -22c-2.66699 -3.33301 -5.66699 -8.83301 -9 -16.5s-6.66602 -14.5 -9.99902 -20.5c-12.667 -28.667 -24.5 -53.5 -35.5 -74.5s-23.5 -40.5 -37.5 -58.5c-0.666992 -6 -3.5 -11.5 -8.5 -16.5s-9.5 -7.5 -13.5 -7.5c-15.333 0 -23 7.66699 -23 23z
" />
    <glyph glyph-name="Ecircumflex" unicode="&#xca;" horiz-adv-x="594" 
d="M305.5 -5.5c-68.333 2.33301 -118.5 3.83301 -150.5 4.5l-108 3l-34 -3c-18.667 0 -28 7 -28 21c0 4.66699 1 8.33398 3 11.001c4.66699 6.66699 12 24.834 22 54.501s18.667 60.5 26 92.5l53 246l97 450c-10.667 0.666992 -16 7.33398 -16 20.001c0 12 9.66699 23 29 33
c0 20.667 10 31 30 31c10.667 0 16.334 -5 17.001 -15c31.333 7.33301 74.833 13.333 130.5 18s106.834 7 153.501 7c30.667 0 53.667 -1 69 -3c12.667 -2 19 -7 19 -15c0 -9.33301 -2.66699 -16.5 -8 -21.5s-10.666 -7.5 -15.999 -7.5c-104.667 0 -182.834 -2 -234.501 -6
s-91.834 -10.667 -120.501 -20c-11.333 -39.333 -28.333 -114 -51 -224c-18 -86 -29 -137 -33 -153c24.667 -2.66699 75.334 -4 152.001 -4c53.333 0 94.666 0.666992 123.999 2c7.33301 0 12 -1.5 14 -4.5s3 -6.83301 3 -11.5c0 -14 -7 -23 -21 -27s-34.667 -6 -62 -6
l-220 5c-10 -36.667 -25.667 -102.334 -47 -197.001c-25.333 -115.333 -43.666 -192 -54.999 -230c44.667 -0.666992 82 -1.33398 112 -2.00098s54.667 -1.33398 74 -2.00098l240 -4c9.33301 0 15.666 0.333008 18.999 1s6.66602 1 9.99902 1c11.333 -3.33301 17 -9 17 -17
c0 -12.667 -5.66699 -21 -17 -25s-33 -6 -65 -6c-16.667 0 -59.167 1.16699 -127.5 3.5zM468 1070c-18.667 24.667 -32.998 51.335 -42.998 80.002c-2 -2.66699 -4.33301 -6.66699 -7 -12c-8.66699 -18.667 -34.334 -51.334 -77.001 -98.001c-6 -4 -11.667 -6 -17 -6
c-12 0 -18 5.33301 -18 16c0 11.333 12 30 36 56c25.333 29.333 40.666 49.666 45.999 60.999c11.333 20 21.5 35.667 30.5 47s18.833 17 29.5 17c12 0 18 -6.33301 18 -19l-1 -12c0 -16 8 -38 24 -66s33 -48.333 51 -61c2.66699 -4.66699 4 -9.66699 4 -15
c0 -6.66699 -2.83301 -12.5 -8.5 -17.5s-12.167 -7.5 -19.5 -7.5c-13.333 0 -29.333 12.333 -48 37z" />
    <glyph glyph-name="Edieresis" unicode="&#xcb;" horiz-adv-x="594" 
d="M305.5 -5.5c-68.333 2.33301 -118.5 3.83301 -150.5 4.5l-108 3l-34 -3c-18.667 0 -28 7 -28 21c0 4.66699 1 8.33398 3 11.001c4.66699 6.66699 12 24.834 22 54.501s18.667 60.5 26 92.5l53 246l97 450c-10.667 0.666992 -16 7.33398 -16 20.001c0 12 9.66699 23 29 33
c0 20.667 10 31 30 31c10.667 0 16.334 -5 17.001 -15c31.333 7.33301 74.833 13.333 130.5 18s106.834 7 153.501 7c30.667 0 53.667 -1 69 -3c12.667 -2 19 -7 19 -15c0 -9.33301 -2.66699 -16.5 -8 -21.5s-10.666 -7.5 -15.999 -7.5c-104.667 0 -182.834 -2 -234.501 -6
s-91.834 -10.667 -120.501 -20c-11.333 -39.333 -28.333 -114 -51 -224c-18 -86 -29 -137 -33 -153c24.667 -2.66699 75.334 -4 152.001 -4c53.333 0 94.666 0.666992 123.999 2c7.33301 0 12 -1.5 14 -4.5s3 -6.83301 3 -11.5c0 -14 -7 -23 -21 -27s-34.667 -6 -62 -6
l-220 5c-10 -36.667 -25.667 -102.334 -47 -197.001c-25.333 -115.333 -43.666 -192 -54.999 -230c44.667 -0.666992 82 -1.33398 112 -2.00098s54.667 -1.33398 74 -2.00098l240 -4c9.33301 0 15.666 0.333008 18.999 1s6.66602 1 9.99902 1c11.333 -3.33301 17 -9 17 -17
c0 -12.667 -5.66699 -21 -17 -25s-33 -6 -65 -6c-16.667 0 -59.167 1.16699 -127.5 3.5zM324 1071.5c-5.33301 10.333 -8 20.833 -8 31.5c0 16 4.66699 29.333 14 40c7.33301 10.667 18 16 32 16c6.66699 0 14.334 -3.66699 23.001 -11v1c10.667 -12.667 16 -24 16 -34
s-7.33301 -22.333 -22 -37s-26.334 -22 -35.001 -22c-8 0 -14.667 5.16699 -20 15.5zM535 1063c-16 6 -24 17 -24 33c0 14.667 6 28.334 18 41.001s23 19 33 19c20.667 0 31 -10.333 31 -31c0 -14.667 -5.33301 -28.834 -16 -42.501s-22 -20.5 -34 -20.5z" />
    <glyph glyph-name="Igrave" unicode="&#xcc;" horiz-adv-x="435" 
d="M200 -4c-30.667 4 -54.0029 6 -70.0029 6c-19.333 0 -38 -2.33301 -56 -7h-5c-6.66699 0 -11.667 1.66699 -15 5s-5 7.33301 -5 12c0 12 8.33301 20.667 25 26s41 8 73 8c31.333 167.333 66.333 331.666 105 492.999l47 201l41 175h-81c-12.667 0 -19 6.33301 -19 19
c0 6 3.16699 11.833 9.5 17.5s13.5 8.5 21.5 8.5c82.667 0 134.334 -0.333008 155.001 -1h43c10 -2.66699 15 -8 15 -16c0 -6.66699 -2.66699 -12.834 -8 -18.501s-11.666 -9.16699 -18.999 -10.5c-23.333 0 -39.833 0.166992 -49.5 0.5s-16.5 0.5 -20.5 0.5
c-97.333 -392 -163 -682 -197 -870c41.333 -1.33301 68.833 -4.16602 82.5 -8.49902s20.5 -11.166 20.5 -20.499c0 -4.66699 -3 -10 -9 -16s-12.667 -9.33301 -20 -10c-13.333 0 -34.666 2 -63.999 6zM419.997 1037c-26.667 34 -46.166 62.168 -58.499 84.501
s-21.833 45.166 -28.5 68.499c0 8 2.83301 15.167 8.5 21.5s11.5 9.5 17.5 9.5c10 0 16.667 -5.66699 20 -17c5.33301 -18.667 13.333 -37.167 24 -55.5s29 -44.166 55 -77.499c2.66699 -5.33301 4 -10 4 -14c0 -6.66699 -2.66699 -12.834 -8 -18.501s-11 -8.5 -17 -8.5
c-6.66699 0 -12.334 2.33301 -17.001 7z" />
    <glyph glyph-name="Iacute" unicode="&#xcd;" horiz-adv-x="435" 
d="M200 -4c-30.667 4 -54.0029 6 -70.0029 6c-19.333 0 -38 -2.33301 -56 -7h-5c-6.66699 0 -11.667 1.66699 -15 5s-5 7.33301 -5 12c0 12 8.33301 20.667 25 26s41 8 73 8c31.333 167.333 66.333 331.666 105 492.999l47 201l41 175h-81c-12.667 0 -19 6.33301 -19 19
c0 6 3.16699 11.833 9.5 17.5s13.5 8.5 21.5 8.5c82.667 0 134.334 -0.333008 155.001 -1h43c10 -2.66699 15 -8 15 -16c0 -6.66699 -2.66699 -12.834 -8 -18.501s-11.666 -9.16699 -18.999 -10.5c-23.333 0 -39.833 0.166992 -49.5 0.5s-16.5 0.5 -20.5 0.5
c-97.333 -392 -163 -682 -197 -870c41.333 -1.33301 68.833 -4.16602 82.5 -8.49902s20.5 -11.166 20.5 -20.499c0 -4.66699 -3 -10 -9 -16s-12.667 -9.33301 -20 -10c-13.333 0 -34.666 2 -63.999 6zM359.997 1053c0 4 3.66797 11.333 11.001 22c12 16.667 27.333 44 46 82
l22 46c5.33301 10 12.666 25 21.999 45c7.33301 10 15.666 15 24.999 15c12 0 18 -5.66699 18 -17c0 -6 -2.33301 -13.333 -7 -22c-2.66699 -3.33301 -5.66699 -8.83301 -9 -16.5s-6.66602 -14.5 -9.99902 -20.5c-12.667 -28.667 -24.5 -53.5 -35.5 -74.5
s-23.5 -40.5 -37.5 -58.5c-0.666992 -6 -3.5 -11.5 -8.5 -16.5s-9.5 -7.5 -13.5 -7.5c-15.333 0 -23 7.66699 -23 23z" />
    <glyph glyph-name="Icircumflex" unicode="&#xce;" horiz-adv-x="435" 
d="M200 -4c-30.667 4 -54.0029 6 -70.0029 6c-19.333 0 -38 -2.33301 -56 -7h-5c-6.66699 0 -11.667 1.66699 -15 5s-5 7.33301 -5 12c0 12 8.33301 20.667 25 26s41 8 73 8c31.333 167.333 66.333 331.666 105 492.999l47 201l41 175h-81c-12.667 0 -19 6.33301 -19 19
c0 6 3.16699 11.833 9.5 17.5s13.5 8.5 21.5 8.5c82.667 0 134.334 -0.333008 155.001 -1h43c10 -2.66699 15 -8 15 -16c0 -6.66699 -2.66699 -12.834 -8 -18.501s-11.666 -9.16699 -18.999 -10.5c-23.333 0 -39.833 0.166992 -49.5 0.5s-16.5 0.5 -20.5 0.5
c-97.333 -392 -163 -682 -197 -870c41.333 -1.33301 68.833 -4.16602 82.5 -8.49902s20.5 -11.166 20.5 -20.499c0 -4.66699 -3 -10 -9 -16s-12.667 -9.33301 -20 -10c-13.333 0 -34.666 2 -63.999 6zM435.997 1070c-18.667 24.667 -32.998 51.335 -42.998 80.002
c-2 -2.66699 -4.33301 -6.66699 -7 -12c-8.66699 -18.667 -34.334 -51.334 -77.001 -98.001c-6 -4 -11.667 -6 -17 -6c-12 0 -18 5.33301 -18 16c0 11.333 12 30 36 56c25.333 29.333 40.666 49.666 45.999 60.999c11.333 20 21.5 35.667 30.5 47s18.833 17 29.5 17
c12 0 18 -6.33301 18 -19l-1 -12c0 -16 8 -38 24 -66s33 -48.333 51 -61c2.66699 -4.66699 4 -9.66699 4 -15c0 -6.66699 -2.83301 -12.5 -8.5 -17.5s-12.167 -7.5 -19.5 -7.5c-13.333 0 -29.333 12.333 -48 37z" />
    <glyph glyph-name="Idieresis" unicode="&#xcf;" horiz-adv-x="435" 
d="M200 -4c-30.667 4 -54.0029 6 -70.0029 6c-19.333 0 -38 -2.33301 -56 -7h-5c-6.66699 0 -11.667 1.66699 -15 5s-5 7.33301 -5 12c0 12 8.33301 20.667 25 26s41 8 73 8c31.333 167.333 66.333 331.666 105 492.999l47 201l41 175h-81c-12.667 0 -19 6.33301 -19 19
c0 6 3.16699 11.833 9.5 17.5s13.5 8.5 21.5 8.5c82.667 0 134.334 -0.333008 155.001 -1h43c10 -2.66699 15 -8 15 -16c0 -6.66699 -2.66699 -12.834 -8 -18.501s-11.666 -9.16699 -18.999 -10.5c-23.333 0 -39.833 0.166992 -49.5 0.5s-16.5 0.5 -20.5 0.5
c-97.333 -392 -163 -682 -197 -870c41.333 -1.33301 68.833 -4.16602 82.5 -8.49902s20.5 -11.166 20.5 -20.499c0 -4.66699 -3 -10 -9 -16s-12.667 -9.33301 -20 -10c-13.333 0 -34.666 2 -63.999 6zM291.997 1071.5c-5.33301 10.333 -8 20.833 -8 31.5
c0 16 4.66699 29.333 14 40c7.33301 10.667 18 16 32 16c6.66699 0 14.334 -3.66699 23.001 -11v1c10.667 -12.667 16 -24 16 -34s-7.33301 -22.333 -22 -37s-26.334 -22 -35.001 -22c-8 0 -14.667 5.16699 -20 15.5zM502.997 1063c-16 6 -24 17 -24 33
c0 14.667 6 28.334 18 41.001s23 19 33 19c20.667 0 31 -10.333 31 -31c0 -14.667 -5.33301 -28.834 -16 -42.501s-22 -20.5 -34 -20.5z" />
    <glyph glyph-name="Eth" unicode="&#xd0;" horiz-adv-x="711" 
d="M435 967c83.333 0 147.501 -28.3359 192.501 -85.0029s67.5 -141.334 67.5 -254.001c0 -175.333 -36.833 -313.333 -110.5 -414s-169.167 -167.667 -286.5 -201c-53.333 -15.333 -115.333 -23 -186 -23c-1.33301 -15.333 -4.33301 -26.666 -9 -33.999
s-11.334 -11 -20.001 -11c-13.333 0 -20 7.66699 -20 23c0 4.66699 0.666992 13 2 25c-11.333 2.66699 -20.666 4.33398 -27.999 5.00098c-22.667 4 -39.334 8.33301 -50.001 13s-16 13.334 -16 26.001c0 3.33301 1.83301 7.16602 5.5 11.499s7.16699 6.5 10.5 6.5
c8.66699 0 18.334 -2.66699 29.001 -8c8.66699 -4 16.667 -7 24 -9s17.666 -3 30.999 -3c33.333 164.667 67 315.667 101 453l-14 -1c-38 -3.33301 -71.333 -5 -100 -5c-22 0 -36.167 1.83301 -42.5 5.5s-9.5 9.83398 -9.5 18.501c0 6 2.83301 11.667 8.5 17s11.5 8 17.5 8
s10.333 -1 13 -3c12.667 0 59 2.66699 139 8c34 135.333 68.667 255.333 104 360c-22 -7.33301 -41.833 -15.5 -59.5 -24.5l-30.5 -15.5c-17.333 -9.33301 -27.666 -14 -30.999 -14c-12 0 -18 6 -18 18c0 9.33301 4.33301 17 13 23
c49.333 30.667 97.666 52.334 144.999 65.001c5.33301 8.66699 12.333 13 21 13c5.33301 0 9 -1.66699 11 -5c35.333 7.33301 67.333 11 96 11zM416.501 112.997c79 53.333 137.333 124.001 175 212.001s56.5 185 56.5 291c0 103.333 -20.333 180.166 -61 230.499
s-95 75.5 -163 75.5c-26 0 -55.667 -4.33301 -89 -13c-34.667 -108.667 -69 -232 -103 -370l15 2c91.333 7.33301 181.333 11 270 11c5.33301 0 9.5 -1.66699 12.5 -5s4.5 -7.33301 4.5 -12c0 -6 -2.33301 -11.833 -7 -17.5s-10.334 -9.5 -17.001 -11.5
c-92 0 -183.333 -4 -274 -12l-16 -1l-45 -198c-15.333 -68 -33.666 -155.333 -54.999 -262c118.667 0 217.5 26.667 296.5 80z" />
    <glyph glyph-name="Ntilde" unicode="&#xd1;" horiz-adv-x="649" 
d="M437 21c-8.66699 21.333 -17.333 50.3291 -26 86.9961l-19 72c-92.667 354.667 -149.667 576.334 -171 665.001c-18.667 -85.333 -34 -158.333 -46 -219c-59.333 -282.667 -104 -488 -134 -616c-3.33301 -13.333 -12 -20 -26 -20s-21 6 -21 18c0 6 11.333 54.667 34 146
c9.33301 38 41.333 187.667 96 449c48 232.667 73.333 351.334 76 356.001c2 6.66699 7 10 15 10c7.33301 0 13 -2.33301 17 -7s7.33301 -12.667 10 -24c10.667 -51.333 43.5 -183.166 98.5 -395.499s96.5 -367.5 124.5 -465.5c14.667 82.667 45.667 247.667 93 495l70 375
c2.66699 6.66699 7.5 12.334 14.5 17.001s13.833 7 20.5 7c4.66699 0 7.5 -1.16699 8.5 -3.5s1.5 -5.83301 1.5 -10.5v-10l-89 -459c-31.333 -168 -57 -311.333 -77 -430c-1.33301 -5.33301 -3.33301 -15 -6 -29s-6.5 -24.167 -11.5 -30.5s-12.167 -9.5 -21.5 -9.5
c-12 0 -22.333 10.667 -31 32zM472.001 1072.5c-10 5 -20.9971 12.166 -32.9971 21.499c-3.33301 2 -8.83301 5.83301 -16.5 11.5s-14.334 9.83398 -20.001 12.501s-10.834 4 -15.501 4c-16 0 -29.667 -12 -41 -36c-6 -8 -13.667 -12 -23 -12c-12 0 -18 5.66699 -18 17
c0 2 0.666992 5.66699 2 11c23.333 45.333 48.666 68 75.999 68c14 0 32 -6.33301 54 -19c24 -14 41.5 -23.5 52.5 -28.5s22.167 -7.5 33.5 -7.5c12.667 0 19 1.33301 19 4v6l-5 27c0 8.66699 2.83301 16 8.5 22s12.167 9 19.5 9c13.333 0 20 -15.667 20 -47
c0 -32 -14 -53.667 -42 -65c-10 -4 -22 -6 -36 -6c-13.333 0 -25 2.5 -35 7.5z" />
    <glyph glyph-name="Ograve" unicode="&#xd2;" horiz-adv-x="661" 
d="M48 295c0 96.667 13.332 190.832 39.999 282.499s63.834 166.334 111.501 224.001s102.167 86.5 163.5 86.5c38.667 0 73.667 -13.333 105 -40c9.33301 -9.33301 14 -18 14 -26c0 -4.66699 -1.66699 -8.33398 -5 -11.001s-8 -4 -14 -4
c-7.33301 0 -15.666 2.33301 -24.999 7c-29.333 16.667 -59.333 25 -90 25c-49.333 0 -93.333 -30.5 -132 -91.5s-68.834 -133.167 -90.501 -216.5s-32.5 -155 -32.5 -215c0 -100 11.333 -173.667 34 -221s58.667 -71 108 -71c51.333 0 98.5 20.833 141.5 62.5
s79.167 95.334 108.5 161.001s51.666 134.5 66.999 206.5c15.333 68 23 134.667 23 200c0 80.667 -12.667 146.667 -38 198c-19.333 37.333 -43.333 60 -72 68c-6 2 -16.333 4.33301 -31 7c-19.333 3.33301 -34.333 6.83301 -45 10.5s-16 8.83398 -16 15.501
c0 12.667 8.33301 20 25 22c88 0 147.333 -33 178 -99s46 -149.667 46 -251c0 -72 -9.66699 -146.167 -29 -222.5s-46.666 -146.833 -81.999 -211.5c-36.667 -66.667 -79.5 -118.834 -128.5 -156.501s-101.167 -56.5 -156.5 -56.5c-118.667 0 -178 105.667 -178 317z
M488.999 1037c-26.667 34 -46.166 62.168 -58.499 84.501s-21.833 45.166 -28.5 68.499c0 8 2.83301 15.167 8.5 21.5s11.5 9.5 17.5 9.5c10 0 16.667 -5.66699 20 -17c5.33301 -18.667 13.333 -37.167 24 -55.5s29 -44.166 55 -77.499c2.66699 -5.33301 4 -10 4 -14
c0 -6.66699 -2.66699 -12.834 -8 -18.501s-11 -8.5 -17 -8.5c-6.66699 0 -12.334 2.33301 -17.001 7z" />
    <glyph glyph-name="Oacute" unicode="&#xd3;" horiz-adv-x="661" 
d="M48 295c0 96.667 13.332 190.832 39.999 282.499s63.834 166.334 111.501 224.001s102.167 86.5 163.5 86.5c38.667 0 73.667 -13.333 105 -40c9.33301 -9.33301 14 -18 14 -26c0 -4.66699 -1.66699 -8.33398 -5 -11.001s-8 -4 -14 -4
c-7.33301 0 -15.666 2.33301 -24.999 7c-29.333 16.667 -59.333 25 -90 25c-49.333 0 -93.333 -30.5 -132 -91.5s-68.834 -133.167 -90.501 -216.5s-32.5 -155 -32.5 -215c0 -100 11.333 -173.667 34 -221s58.667 -71 108 -71c51.333 0 98.5 20.833 141.5 62.5
s79.167 95.334 108.5 161.001s51.666 134.5 66.999 206.5c15.333 68 23 134.667 23 200c0 80.667 -12.667 146.667 -38 198c-19.333 37.333 -43.333 60 -72 68c-6 2 -16.333 4.33301 -31 7c-19.333 3.33301 -34.333 6.83301 -45 10.5s-16 8.83398 -16 15.501
c0 12.667 8.33301 20 25 22c88 0 147.333 -33 178 -99s46 -149.667 46 -251c0 -72 -9.66699 -146.167 -29 -222.5s-46.666 -146.833 -81.999 -211.5c-36.667 -66.667 -79.5 -118.834 -128.5 -156.501s-101.167 -56.5 -156.5 -56.5c-118.667 0 -178 105.667 -178 317z
M428.999 1053c0 4 3.66797 11.333 11.001 22c12 16.667 27.333 44 46 82l22 46c5.33301 10 12.666 25 21.999 45c7.33301 10 15.666 15 24.999 15c12 0 18 -5.66699 18 -17c0 -6 -2.33301 -13.333 -7 -22c-2.66699 -3.33301 -5.66699 -8.83301 -9 -16.5
s-6.66602 -14.5 -9.99902 -20.5c-12.667 -28.667 -24.5 -53.5 -35.5 -74.5s-23.5 -40.5 -37.5 -58.5c-0.666992 -6 -3.5 -11.5 -8.5 -16.5s-9.5 -7.5 -13.5 -7.5c-15.333 0 -23 7.66699 -23 23z" />
    <glyph glyph-name="Ocircumflex" unicode="&#xd4;" horiz-adv-x="661" 
d="M48 295c0 96.667 13.332 190.832 39.999 282.499s63.834 166.334 111.501 224.001s102.167 86.5 163.5 86.5c38.667 0 73.667 -13.333 105 -40c9.33301 -9.33301 14 -18 14 -26c0 -4.66699 -1.66699 -8.33398 -5 -11.001s-8 -4 -14 -4
c-7.33301 0 -15.666 2.33301 -24.999 7c-29.333 16.667 -59.333 25 -90 25c-49.333 0 -93.333 -30.5 -132 -91.5s-68.834 -133.167 -90.501 -216.5s-32.5 -155 -32.5 -215c0 -100 11.333 -173.667 34 -221s58.667 -71 108 -71c51.333 0 98.5 20.833 141.5 62.5
s79.167 95.334 108.5 161.001s51.666 134.5 66.999 206.5c15.333 68 23 134.667 23 200c0 80.667 -12.667 146.667 -38 198c-19.333 37.333 -43.333 60 -72 68c-6 2 -16.333 4.33301 -31 7c-19.333 3.33301 -34.333 6.83301 -45 10.5s-16 8.83398 -16 15.501
c0 12.667 8.33301 20 25 22c88 0 147.333 -33 178 -99s46 -149.667 46 -251c0 -72 -9.66699 -146.167 -29 -222.5s-46.666 -146.833 -81.999 -211.5c-36.667 -66.667 -79.5 -118.834 -128.5 -156.501s-101.167 -56.5 -156.5 -56.5c-118.667 0 -178 105.667 -178 317z
M504.999 1070c-18.667 24.667 -32.998 51.335 -42.998 80.002c-2 -2.66699 -4.33301 -6.66699 -7 -12c-8.66699 -18.667 -34.334 -51.334 -77.001 -98.001c-6 -4 -11.667 -6 -17 -6c-12 0 -18 5.33301 -18 16c0 11.333 12 30 36 56
c25.333 29.333 40.666 49.666 45.999 60.999c11.333 20 21.5 35.667 30.5 47s18.833 17 29.5 17c12 0 18 -6.33301 18 -19l-1 -12c0 -16 8 -38 24 -66s33 -48.333 51 -61c2.66699 -4.66699 4 -9.66699 4 -15c0 -6.66699 -2.83301 -12.5 -8.5 -17.5s-12.167 -7.5 -19.5 -7.5
c-13.333 0 -29.333 12.333 -48 37z" />
    <glyph glyph-name="Otilde" unicode="&#xd5;" horiz-adv-x="661" 
d="M48 295c0 96.667 13.332 190.832 39.999 282.499s63.834 166.334 111.501 224.001s102.167 86.5 163.5 86.5c38.667 0 73.667 -13.333 105 -40c9.33301 -9.33301 14 -18 14 -26c0 -4.66699 -1.66699 -8.33398 -5 -11.001s-8 -4 -14 -4
c-7.33301 0 -15.666 2.33301 -24.999 7c-29.333 16.667 -59.333 25 -90 25c-49.333 0 -93.333 -30.5 -132 -91.5s-68.834 -133.167 -90.501 -216.5s-32.5 -155 -32.5 -215c0 -100 11.333 -173.667 34 -221s58.667 -71 108 -71c51.333 0 98.5 20.833 141.5 62.5
s79.167 95.334 108.5 161.001s51.666 134.5 66.999 206.5c15.333 68 23 134.667 23 200c0 80.667 -12.667 146.667 -38 198c-19.333 37.333 -43.333 60 -72 68c-6 2 -16.333 4.33301 -31 7c-19.333 3.33301 -34.333 6.83301 -45 10.5s-16 8.83398 -16 15.501
c0 12.667 8.33301 20 25 22c88 0 147.333 -33 178 -99s46 -149.667 46 -251c0 -72 -9.66699 -146.167 -29 -222.5s-46.666 -146.833 -81.999 -211.5c-36.667 -66.667 -79.5 -118.834 -128.5 -156.501s-101.167 -56.5 -156.5 -56.5c-118.667 0 -178 105.667 -178 317z
M508.999 1072.5c-10 5 -20.9971 12.166 -32.9971 21.499c-3.33301 2 -8.83301 5.83301 -16.5 11.5s-14.334 9.83398 -20.001 12.501s-10.834 4 -15.501 4c-16 0 -29.667 -12 -41 -36c-6 -8 -13.667 -12 -23 -12c-12 0 -18 5.66699 -18 17c0 2 0.666992 5.66699 2 11
c23.333 45.333 48.666 68 75.999 68c14 0 32 -6.33301 54 -19c24 -14 41.5 -23.5 52.5 -28.5s22.167 -7.5 33.5 -7.5c12.667 0 19 1.33301 19 4v6l-5 27c0 8.66699 2.83301 16 8.5 22s12.167 9 19.5 9c13.333 0 20 -15.667 20 -47c0 -32 -14 -53.667 -42 -65
c-10 -4 -22 -6 -36 -6c-13.333 0 -25 2.5 -35 7.5z" />
    <glyph glyph-name="Odieresis" unicode="&#xd6;" horiz-adv-x="661" 
d="M48 295c0 96.667 13.332 190.832 39.999 282.499s63.834 166.334 111.501 224.001s102.167 86.5 163.5 86.5c38.667 0 73.667 -13.333 105 -40c9.33301 -9.33301 14 -18 14 -26c0 -4.66699 -1.66699 -8.33398 -5 -11.001s-8 -4 -14 -4
c-7.33301 0 -15.666 2.33301 -24.999 7c-29.333 16.667 -59.333 25 -90 25c-49.333 0 -93.333 -30.5 -132 -91.5s-68.834 -133.167 -90.501 -216.5s-32.5 -155 -32.5 -215c0 -100 11.333 -173.667 34 -221s58.667 -71 108 -71c51.333 0 98.5 20.833 141.5 62.5
s79.167 95.334 108.5 161.001s51.666 134.5 66.999 206.5c15.333 68 23 134.667 23 200c0 80.667 -12.667 146.667 -38 198c-19.333 37.333 -43.333 60 -72 68c-6 2 -16.333 4.33301 -31 7c-19.333 3.33301 -34.333 6.83301 -45 10.5s-16 8.83398 -16 15.501
c0 12.667 8.33301 20 25 22c88 0 147.333 -33 178 -99s46 -149.667 46 -251c0 -72 -9.66699 -146.167 -29 -222.5s-46.666 -146.833 -81.999 -211.5c-36.667 -66.667 -79.5 -118.834 -128.5 -156.501s-101.167 -56.5 -156.5 -56.5c-118.667 0 -178 105.667 -178 317z
M360.999 1071.5c-5.33301 10.333 -8 20.833 -8 31.5c0 16 4.66699 29.333 14 40c7.33301 10.667 18 16 32 16c6.66699 0 14.334 -3.66699 23.001 -11v1c10.667 -12.667 16 -24 16 -34s-7.33301 -22.333 -22 -37s-26.334 -22 -35.001 -22c-8 0 -14.667 5.16699 -20 15.5z
M571.999 1063c-16 6 -24 17 -24 33c0 14.667 6 28.334 18 41.001s23 19 33 19c20.667 0 31 -10.333 31 -31c0 -14.667 -5.33301 -28.834 -16 -42.501s-22 -20.5 -34 -20.5z" />
    <glyph glyph-name="multiply" unicode="&#xd7;" horiz-adv-x="364" 
d="M228.5 212.5c-20.333 26.333 -38.8359 54.5 -55.5029 84.5c-54 -44.667 -89.167 -72.667 -105.5 -84s-28.833 -17 -37.5 -17c-4.66699 0 -8.5 1.83301 -11.5 5.5s-4.5 8.83398 -4.5 15.501c0 5.33301 5.16699 12.666 15.5 21.999s28.833 24.333 55.5 45l66 53
c-9.33301 14.667 -16 25.667 -20 33c-15.333 22 -27 42.333 -35 61v4c0 8 2.83301 15.333 8.5 22s10.834 10 15.501 10c6.66699 0 17 -12.5 31 -37.5s25 -46.5 33 -64.5c85.333 75.333 138.333 113 159 113c5.33301 0 9.83301 -2.16699 13.5 -6.5s5.5 -9.83301 5.5 -16.5
c0 -7.33301 -3.66699 -14.666 -11 -21.999c-33.333 -21.333 -81.666 -57.333 -144.999 -108c22.667 -40 41.334 -67.667 56.001 -83c13.333 -12.667 25 -22.667 35 -30c8 -4.66699 12 -10.334 12 -17.001c0 -5.33301 -2.83301 -10.333 -8.5 -15s-11.5 -7 -17.5 -7
c-16 0 -34.167 13.167 -54.5 39.5z" />
    <glyph glyph-name="Oslash" unicode="&#xd8;" horiz-adv-x="648" 
d="M66 -41c0 1.33301 2.16602 6.5 6.49902 15.5s12.166 26.167 23.499 51.5c-44 50 -66 143 -66 279c0 92.667 13.333 184.167 40 274.5s64 164.333 112 222s102.333 86.5 163 86.5c29.333 0 55.333 -9.33301 78 -28c9.33301 -7.33301 14 -15.666 14 -24.999
c0 -4.66699 -1.33301 -8.83398 -4 -12.501s-5.66699 -5.83398 -9 -6.50098l-6 -1c-3.33301 0 -7.16602 1 -11.499 3s-8.83301 4.66699 -13.5 8c-10 6 -19.167 10.167 -27.5 12.5s-18.833 3.5 -31.5 3.5c-26 0 -52.833 -12.167 -80.5 -36.5s-53.667 -58 -78 -101
s-44.5 -91.5 -60.5 -145.5c-24 -82 -36 -163 -36 -243c0 -108.667 13.667 -187.334 41 -236.001l329 702l29 60.5c12 24.333 18.333 38.5 19 42.5c-10.667 14.667 -24 25.167 -40 31.5s-35.667 11.5 -59 15.5c-16.667 3.33301 -26.334 5.33301 -29.001 6
c-9.33301 4 -14 9 -14 15c0 12.667 8.33301 20 25 22c52.667 0 95.667 -13.667 129 -41c7.33301 32 14.333 54.833 21 68.5s16 20.5 28 20.5c8.66699 0 13 -4.66699 13 -14c0 -5.33301 -1 -11.666 -3 -18.999l-26 -90c46.667 -66 70 -153.333 70 -262
c0 -98.667 -18.833 -199.667 -56.5 -303s-87.667 -188.666 -150 -255.999s-128.166 -101 -197.499 -101c-32.667 0 -61 8 -85 24l-19 -42c-5.33301 -9.33301 -12.666 -14 -21.999 -14c-10.667 0 -16 4.33301 -16 13zM352.499 86.5
c44.333 41.667 82.167 97.168 113.5 166.501c28.667 64 51 131 67 201s24 136.667 24 200c0 77.333 -12.333 142 -37 194c-31.333 -66.667 -58.333 -120.334 -81 -161.001c-18 -32.667 -44.167 -86 -78.5 -160l-216.5 -479c18 -16 40.333 -24 67 -24
c50 0 97.167 20.833 141.5 62.5z" />
    <glyph glyph-name="Ugrave" unicode="&#xd9;" horiz-adv-x="639" 
d="M137 16c-28 17.333 -49.6689 40.6689 -65.002 70.002s-23 61.333 -23 96c0 13.333 8.66699 70.333 26 171s37.5 207.834 60.5 321.501s43.833 204.167 62.5 271.5c1.33301 4.66699 4.16602 8.33398 8.49902 11.001s8.83301 4 13.5 4c14 0 21 -5.66699 21 -17
c-23.333 -90 -54.166 -232.667 -92.499 -428s-57.5 -310 -57.5 -344c0 -39.333 12.667 -71.833 38 -97.5s60 -38.5 104 -38.5c54 0 97.333 12.5 130 37.5s56.334 58.833 71.001 101.5c24 72 44.167 141.333 60.5 208s34.833 147.667 55.5 243
c2.66699 10.667 11.167 48.5 25.5 113.5s29.833 125.833 46.5 182.5c3.33301 11.333 8.5 20.666 15.5 27.999s13.5 11 19.5 11c12 0 18 -5.66699 18 -17c0 -0.666992 -3 -11.334 -9 -32.001c-15.333 -44.667 -28.333 -89.334 -39 -134.001
c-6.66699 -26.667 -18.667 -80.667 -36 -162c-26 -122.667 -49.667 -225.334 -71 -308.001s-44 -146 -68 -190c-45.333 -85.333 -118.666 -128 -219.999 -128c-35.333 0 -67 8.66699 -95 26zM460.998 1037c-26.667 34 -46.166 62.168 -58.499 84.501
s-21.833 45.166 -28.5 68.499c0 8 2.83301 15.167 8.5 21.5s11.5 9.5 17.5 9.5c10 0 16.667 -5.66699 20 -17c5.33301 -18.667 13.333 -37.167 24 -55.5s29 -44.166 55 -77.499c2.66699 -5.33301 4 -10 4 -14c0 -6.66699 -2.66699 -12.834 -8 -18.501s-11 -8.5 -17 -8.5
c-6.66699 0 -12.334 2.33301 -17.001 7z" />
    <glyph glyph-name="Uacute" unicode="&#xda;" horiz-adv-x="639" 
d="M137 16c-28 17.333 -49.6689 40.6689 -65.002 70.002s-23 61.333 -23 96c0 13.333 8.66699 70.333 26 171s37.5 207.834 60.5 321.501s43.833 204.167 62.5 271.5c1.33301 4.66699 4.16602 8.33398 8.49902 11.001s8.83301 4 13.5 4c14 0 21 -5.66699 21 -17
c-23.333 -90 -54.166 -232.667 -92.499 -428s-57.5 -310 -57.5 -344c0 -39.333 12.667 -71.833 38 -97.5s60 -38.5 104 -38.5c54 0 97.333 12.5 130 37.5s56.334 58.833 71.001 101.5c24 72 44.167 141.333 60.5 208s34.833 147.667 55.5 243
c2.66699 10.667 11.167 48.5 25.5 113.5s29.833 125.833 46.5 182.5c3.33301 11.333 8.5 20.666 15.5 27.999s13.5 11 19.5 11c12 0 18 -5.66699 18 -17c0 -0.666992 -3 -11.334 -9 -32.001c-15.333 -44.667 -28.333 -89.334 -39 -134.001
c-6.66699 -26.667 -18.667 -80.667 -36 -162c-26 -122.667 -49.667 -225.334 -71 -308.001s-44 -146 -68 -190c-45.333 -85.333 -118.666 -128 -219.999 -128c-35.333 0 -67 8.66699 -95 26zM400.998 1053c0 4 3.66797 11.333 11.001 22c12 16.667 27.333 44 46 82l22 46
c5.33301 10 12.666 25 21.999 45c7.33301 10 15.666 15 24.999 15c12 0 18 -5.66699 18 -17c0 -6 -2.33301 -13.333 -7 -22c-2.66699 -3.33301 -5.66699 -8.83301 -9 -16.5s-6.66602 -14.5 -9.99902 -20.5c-12.667 -28.667 -24.5 -53.5 -35.5 -74.5s-23.5 -40.5 -37.5 -58.5
c-0.666992 -6 -3.5 -11.5 -8.5 -16.5s-9.5 -7.5 -13.5 -7.5c-15.333 0 -23 7.66699 -23 23z" />
    <glyph glyph-name="Ucircumflex" unicode="&#xdb;" horiz-adv-x="639" 
d="M137 16c-28 17.333 -49.6689 40.6689 -65.002 70.002s-23 61.333 -23 96c0 13.333 8.66699 70.333 26 171s37.5 207.834 60.5 321.501s43.833 204.167 62.5 271.5c1.33301 4.66699 4.16602 8.33398 8.49902 11.001s8.83301 4 13.5 4c14 0 21 -5.66699 21 -17
c-23.333 -90 -54.166 -232.667 -92.499 -428s-57.5 -310 -57.5 -344c0 -39.333 12.667 -71.833 38 -97.5s60 -38.5 104 -38.5c54 0 97.333 12.5 130 37.5s56.334 58.833 71.001 101.5c24 72 44.167 141.333 60.5 208s34.833 147.667 55.5 243
c2.66699 10.667 11.167 48.5 25.5 113.5s29.833 125.833 46.5 182.5c3.33301 11.333 8.5 20.666 15.5 27.999s13.5 11 19.5 11c12 0 18 -5.66699 18 -17c0 -0.666992 -3 -11.334 -9 -32.001c-15.333 -44.667 -28.333 -89.334 -39 -134.001
c-6.66699 -26.667 -18.667 -80.667 -36 -162c-26 -122.667 -49.667 -225.334 -71 -308.001s-44 -146 -68 -190c-45.333 -85.333 -118.666 -128 -219.999 -128c-35.333 0 -67 8.66699 -95 26zM476.998 1070c-18.667 24.667 -32.998 51.335 -42.998 80.002
c-2 -2.66699 -4.33301 -6.66699 -7 -12c-8.66699 -18.667 -34.334 -51.334 -77.001 -98.001c-6 -4 -11.667 -6 -17 -6c-12 0 -18 5.33301 -18 16c0 11.333 12 30 36 56c25.333 29.333 40.666 49.666 45.999 60.999c11.333 20 21.5 35.667 30.5 47s18.833 17 29.5 17
c12 0 18 -6.33301 18 -19l-1 -12c0 -16 8 -38 24 -66s33 -48.333 51 -61c2.66699 -4.66699 4 -9.66699 4 -15c0 -6.66699 -2.83301 -12.5 -8.5 -17.5s-12.167 -7.5 -19.5 -7.5c-13.333 0 -29.333 12.333 -48 37z" />
    <glyph glyph-name="Udieresis" unicode="&#xdc;" horiz-adv-x="639" 
d="M137 16c-28 17.333 -49.6689 40.6689 -65.002 70.002s-23 61.333 -23 96c0 13.333 8.66699 70.333 26 171s37.5 207.834 60.5 321.501s43.833 204.167 62.5 271.5c1.33301 4.66699 4.16602 8.33398 8.49902 11.001s8.83301 4 13.5 4c14 0 21 -5.66699 21 -17
c-23.333 -90 -54.166 -232.667 -92.499 -428s-57.5 -310 -57.5 -344c0 -39.333 12.667 -71.833 38 -97.5s60 -38.5 104 -38.5c54 0 97.333 12.5 130 37.5s56.334 58.833 71.001 101.5c24 72 44.167 141.333 60.5 208s34.833 147.667 55.5 243
c2.66699 10.667 11.167 48.5 25.5 113.5s29.833 125.833 46.5 182.5c3.33301 11.333 8.5 20.666 15.5 27.999s13.5 11 19.5 11c12 0 18 -5.66699 18 -17c0 -0.666992 -3 -11.334 -9 -32.001c-15.333 -44.667 -28.333 -89.334 -39 -134.001
c-6.66699 -26.667 -18.667 -80.667 -36 -162c-26 -122.667 -49.667 -225.334 -71 -308.001s-44 -146 -68 -190c-45.333 -85.333 -118.666 -128 -219.999 -128c-35.333 0 -67 8.66699 -95 26zM332.998 1071.5c-5.33301 10.333 -8 20.833 -8 31.5c0 16 4.66699 29.333 14 40
c7.33301 10.667 18 16 32 16c6.66699 0 14.334 -3.66699 23.001 -11v1c10.667 -12.667 16 -24 16 -34s-7.33301 -22.333 -22 -37s-26.334 -22 -35.001 -22c-8 0 -14.667 5.16699 -20 15.5zM543.998 1063c-16 6 -24 17 -24 33c0 14.667 6 28.334 18 41.001s23 19 33 19
c20.667 0 31 -10.333 31 -31c0 -14.667 -5.33301 -28.834 -16 -42.501s-22 -20.5 -34 -20.5z" />
    <glyph glyph-name="Yacute" unicode="&#xdd;" horiz-adv-x="478" 
d="M126.5 3c-2.33301 4 -3.5 8.66602 -3.5 13.999l2 12c14.667 51.333 25.167 91.5 31.5 120.5s12.166 63.5 17.499 103.5l12 76c-28.667 36.667 -65.667 183.334 -111 440.001c-12 72.667 -20.667 128.334 -26 167.001c0 8.66699 2.5 16.167 7.5 22.5s11.167 9.5 18.5 9.5
s13.5 -2 18.5 -6s7.5 -9 7.5 -15c0 -4 -1.66699 -9.33301 -5 -16l12 -89c29.333 -214 62.666 -368 99.999 -462c12.667 26.667 37.334 87.667 74.001 183c36 94 69.667 171.333 101 232s67 115.334 107 164.001c4 5.33301 9.66699 8 17 8c13.333 0 20 -5.66699 20 -17
c0 -6 -10 -23.333 -30 -52c-28 -42.667 -53.5 -84.334 -76.5 -125.001s-45.5 -89 -67.5 -145l-60 -156c-20.667 -56 -38.667 -100 -54 -132c-18 -70 -30 -122.333 -36 -157c-4.66699 -26.667 -18.667 -83.334 -42 -170.001c-2 -6 -5.33301 -10.667 -10 -14
s-10 -4.33301 -16 -3c-3.33301 0.666992 -6.16602 3 -8.49902 7zM247 1053c0 4 3.66797 11.333 11.001 22c12 16.667 27.333 44 46 82l22 46c5.33301 10 12.666 25 21.999 45c7.33301 10 15.666 15 24.999 15c12 0 18 -5.66699 18 -17c0 -6 -2.33301 -13.333 -7 -22
c-2.66699 -3.33301 -5.66699 -8.83301 -9 -16.5s-6.66602 -14.5 -9.99902 -20.5c-12.667 -28.667 -24.5 -53.5 -35.5 -74.5s-23.5 -40.5 -37.5 -58.5c-0.666992 -6 -3.5 -11.5 -8.5 -16.5s-9.5 -7.5 -13.5 -7.5c-15.333 0 -23 7.66699 -23 23z" />
    <glyph glyph-name="Thorn" unicode="&#xde;" horiz-adv-x="628" 
d="M23 -4l-0.000976562 3.00293l1 4l224 1076c2.66699 13.333 4 22.333 4 27c0 8 3.5 15 10.5 21s14.5 9 22.5 9c12 0 18 -5.33301 18 -16c0 -4.66699 -0.333008 -7.66699 -1 -9l-3 -11c0 -26.667 -7.66699 -68.334 -23 -125.001l-6 -22
c-5.33301 -18.667 -9.33301 -37.334 -12 -56.001c59.333 51.333 113.333 77 162 77c87.333 0 146.833 -32.333 178.5 -97s47.5 -137.334 47.5 -218.001c0 -107.333 -21.167 -192.333 -63.5 -255s-105.166 -106.667 -188.499 -132c-71.333 -21.333 -163 -32 -275 -32
l-50 -230c-2.66699 -8 -7.5 -14.5 -14.5 -19.5s-13.5 -7.5 -19.5 -7.5c-8 0 -12 4.33301 -12 13zM345.999 303.003c46.667 11.333 84.333 25.333 113 42c95.333 53.333 143 155 143 305c0 133.333 -31 218.333 -93 255c-24 14.667 -55 22 -93 22
c-38.667 0 -82.334 -15.667 -131.001 -47c-14 -9.33301 -26 -19.333 -36 -30l-121 -565c98.667 0 171.334 6 218.001 18z" />
    <glyph glyph-name="germandbls" unicode="&#xdf;" horiz-adv-x="479" 
d="M-72 -434c0 4.66699 6.33301 42.167 19 112.5s28.167 151 46.5 242s36.5 175.833 54.5 254.5c41.333 176.667 79 309.667 113 399l17 46c26.667 74 51.667 134 75 180s55 85.333 95 118s90.333 49 151 49c47.333 0 71 -19 71 -57c0 -20.667 -13.333 -52.167 -40 -94.5
s-60.667 -86.833 -102 -133.5s-82.333 -86 -123 -118c43.333 -11.333 76 -34.333 98 -69s33 -72.334 33 -113.001c0 -154.667 -36.667 -266.667 -110 -336c-38.667 -36 -88 -54 -148 -54c-13.333 0 -27.666 3.16699 -42.999 9.5s-28.166 14.666 -38.499 24.999
s-15.5 21.5 -15.5 33.5s3.5 21.833 10.5 29.5s14.833 11.5 23.5 11.5c4.66699 0 8.66699 -1.66699 12 -5c3.33301 -5.33301 7.83301 -13.666 13.5 -24.999s12.667 -19.666 21 -24.999s20.166 -8 35.499 -8c45.333 0 81.833 16 109.5 48s47.167 70.667 58.5 116s17 90 17 134
c0 122.667 -29.667 184 -89 184c-18 0 -40.333 -1.33301 -67 -4c-11.333 1.33301 -17 6 -17 14s1.66699 13.667 5 17s8.66602 6.83301 15.999 10.5s13.333 6.83398 18 9.50098c30 16.667 66.667 46.667 110 90s81 87.166 113 131.499s48 75.833 48 94.5
c0 14 -2.66699 24 -8 30s-16.666 9 -33.999 9c-152.667 0 -287 -275.667 -403 -827c-14.667 -69.333 -38.334 -192 -71.001 -368c-5.33301 -32 -14.333 -81 -27 -147c-2.66699 -7.33301 -7.5 -13.833 -14.5 -19.5s-13.833 -8.5 -20.5 -8.5c-8.66699 0 -13 4.66699 -13 14z
" />
    <glyph glyph-name="agrave" unicode="&#xe0;" horiz-adv-x="449" 
d="M312.5 22.5c-13 16.333 -19.501 33.832 -19.501 52.499c0 41.333 11 111.333 33 210c-16.667 -36 -38.167 -72.833 -64.5 -110.5s-52.166 -70.834 -77.499 -99.501s-44 -47.334 -56 -56.001c-16.667 -12.667 -35 -19 -55 -19c-38 0 -57 24 -57 72
c0 46.667 17.667 104.834 53 174.501s77.333 130.167 126 181.5c48.667 50.667 88 76 118 76c30.667 0 48 -13.333 52 -40c2 -8 3 -16.667 3 -26c3.33301 2 7 3 11 3c15.333 0 23 -7.33301 23 -22v-4l-12 -44c-9.33301 -33.333 -19 -82.666 -29 -147.999
s-15 -119.666 -15 -162.999l10 -6c16 -10 24 -20 24 -30c0 -6.66699 -2.33301 -12.667 -7 -18s-10.667 -8 -18 -8c-15.333 0 -29.5 8.16699 -42.5 24.5zM98.999 58.999c68 58 128.331 138.333 180.998 241c22.667 42.667 36.834 70.667 42.501 84s8.5 26.333 8.5 39
c0 6.66699 -1.66699 12.667 -5 18s-7.66602 8 -12.999 8c-6.66699 0 -15.334 -3 -26.001 -9c-26.667 -14 -58.167 -43.667 -94.5 -89s-66.166 -93.333 -89.499 -144c-24.667 -51.333 -37 -97 -37 -137c0 -12 5 -18 15 -18c7.33301 0 13.333 2.33301 18 7zM304.997 590.999
c-26.667 34 -46.166 62.168 -58.499 84.501s-21.833 45.166 -28.5 68.499c0 8 2.83301 15.167 8.5 21.5s11.5 9.5 17.5 9.5c10 0 16.667 -5.66699 20 -17c5.33301 -18.667 13.333 -37.167 24 -55.5s29 -44.166 55 -77.499c2.66699 -5.33301 4 -10 4 -14
c0 -6.66699 -2.66699 -12.834 -8 -18.501s-11 -8.5 -17 -8.5c-6.66699 0 -12.334 2.33301 -17.001 7z" />
    <glyph glyph-name="aacute" unicode="&#xe1;" horiz-adv-x="449" 
d="M312.5 22.5c-13 16.333 -19.501 33.832 -19.501 52.499c0 41.333 11 111.333 33 210c-16.667 -36 -38.167 -72.833 -64.5 -110.5s-52.166 -70.834 -77.499 -99.501s-44 -47.334 -56 -56.001c-16.667 -12.667 -35 -19 -55 -19c-38 0 -57 24 -57 72
c0 46.667 17.667 104.834 53 174.501s77.333 130.167 126 181.5c48.667 50.667 88 76 118 76c30.667 0 48 -13.333 52 -40c2 -8 3 -16.667 3 -26c3.33301 2 7 3 11 3c15.333 0 23 -7.33301 23 -22v-4l-12 -44c-9.33301 -33.333 -19 -82.666 -29 -147.999
s-15 -119.666 -15 -162.999l10 -6c16 -10 24 -20 24 -30c0 -6.66699 -2.33301 -12.667 -7 -18s-10.667 -8 -18 -8c-15.333 0 -29.5 8.16699 -42.5 24.5zM98.999 58.999c68 58 128.331 138.333 180.998 241c22.667 42.667 36.834 70.667 42.501 84s8.5 26.333 8.5 39
c0 6.66699 -1.66699 12.667 -5 18s-7.66602 8 -12.999 8c-6.66699 0 -15.334 -3 -26.001 -9c-26.667 -14 -58.167 -43.667 -94.5 -89s-66.166 -93.333 -89.499 -144c-24.667 -51.333 -37 -97 -37 -137c0 -12 5 -18 15 -18c7.33301 0 13.333 2.33301 18 7zM288.997 578.999
c-5.33301 4 -8 9.66699 -8 17c0 4 3.66699 11.333 11 22c14.667 22 41 73.667 79 155c2.66699 6 6.66699 10 12 12s13.333 3 24 3c12.667 0 19 -5.66699 19 -17c0 -3.33301 -5 -16.666 -15 -39.999s-21.833 -47.833 -35.5 -73.5s-26.167 -45.834 -37.5 -60.501
c-10 -16 -19.667 -24 -29 -24c-8 0 -14.667 2 -20 6z" />
    <glyph glyph-name="acircumflex" unicode="&#xe2;" horiz-adv-x="449" 
d="M312.5 22.5c-13 16.333 -19.501 33.832 -19.501 52.499c0 41.333 11 111.333 33 210c-16.667 -36 -38.167 -72.833 -64.5 -110.5s-52.166 -70.834 -77.499 -99.501s-44 -47.334 -56 -56.001c-16.667 -12.667 -35 -19 -55 -19c-38 0 -57 24 -57 72
c0 46.667 17.667 104.834 53 174.501s77.333 130.167 126 181.5c48.667 50.667 88 76 118 76c30.667 0 48 -13.333 52 -40c2 -8 3 -16.667 3 -26c3.33301 2 7 3 11 3c15.333 0 23 -7.33301 23 -22v-4l-12 -44c-9.33301 -33.333 -19 -82.666 -29 -147.999
s-15 -119.666 -15 -162.999l10 -6c16 -10 24 -20 24 -30c0 -6.66699 -2.33301 -12.667 -7 -18s-10.667 -8 -18 -8c-15.333 0 -29.5 8.16699 -42.5 24.5zM98.999 58.999c68 58 128.331 138.333 180.998 241c22.667 42.667 36.834 70.667 42.501 84s8.5 26.333 8.5 39
c0 6.66699 -1.66699 12.667 -5 18s-7.66602 8 -12.999 8c-6.66699 0 -15.334 -3 -26.001 -9c-26.667 -14 -58.167 -43.667 -94.5 -89s-66.166 -93.333 -89.499 -144c-24.667 -51.333 -37 -97 -37 -137c0 -12 5 -18 15 -18c7.33301 0 13.333 2.33301 18 7zM355.997 613.999
c-18.667 24.667 -32.998 51.335 -42.998 80.002c-2 -2.66699 -4.33301 -6.66699 -7 -12c-8.66699 -18.667 -34.334 -51.334 -77.001 -98.001c-6 -4 -11.667 -6 -17 -6c-12 0 -18 5.33301 -18 16c0 11.333 12 30 36 56c25.333 29.333 40.666 49.666 45.999 60.999
c11.333 20 21.5 35.667 30.5 47s18.833 17 29.5 17c12 0 18 -6.33301 18 -19l-1 -12c0 -16 8 -38 24 -66s33 -48.333 51 -61c2.66699 -4.66699 4 -9.66699 4 -15c0 -6.66699 -2.83301 -12.5 -8.5 -17.5s-12.167 -7.5 -19.5 -7.5c-13.333 0 -29.333 12.333 -48 37z" />
    <glyph glyph-name="atilde" unicode="&#xe3;" horiz-adv-x="449" 
d="M312.5 22.5c-13 16.333 -19.501 33.832 -19.501 52.499c0 41.333 11 111.333 33 210c-16.667 -36 -38.167 -72.833 -64.5 -110.5s-52.166 -70.834 -77.499 -99.501s-44 -47.334 -56 -56.001c-16.667 -12.667 -35 -19 -55 -19c-38 0 -57 24 -57 72
c0 46.667 17.667 104.834 53 174.501s77.333 130.167 126 181.5c48.667 50.667 88 76 118 76c30.667 0 48 -13.333 52 -40c2 -8 3 -16.667 3 -26c3.33301 2 7 3 11 3c15.333 0 23 -7.33301 23 -22v-4l-12 -44c-9.33301 -33.333 -19 -82.666 -29 -147.999
s-15 -119.666 -15 -162.999l10 -6c16 -10 24 -20 24 -30c0 -6.66699 -2.33301 -12.667 -7 -18s-10.667 -8 -18 -8c-15.333 0 -29.5 8.16699 -42.5 24.5zM98.999 58.999c68 58 128.331 138.333 180.998 241c22.667 42.667 36.834 70.667 42.501 84s8.5 26.333 8.5 39
c0 6.66699 -1.66699 12.667 -5 18s-7.66602 8 -12.999 8c-6.66699 0 -15.334 -3 -26.001 -9c-26.667 -14 -58.167 -43.667 -94.5 -89s-66.166 -93.333 -89.499 -144c-24.667 -51.333 -37 -97 -37 -137c0 -12 5 -18 15 -18c7.33301 0 13.333 2.33301 18 7zM359.997 616.499
c-10 5 -20.9971 12.166 -32.9971 21.499c-3.33301 2 -8.83301 5.83301 -16.5 11.5s-14.334 9.83398 -20.001 12.501s-10.834 4 -15.501 4c-16 0 -29.667 -12 -41 -36c-6 -8 -13.667 -12 -23 -12c-12 0 -18 5.66699 -18 17c0 2 0.666992 5.66699 2 11
c23.333 45.333 48.666 68 75.999 68c14 0 32 -6.33301 54 -19c24 -14 41.5 -23.5 52.5 -28.5s22.167 -7.5 33.5 -7.5c12.667 0 19 1.33301 19 4v6l-5 27c0 8.66699 2.83301 16 8.5 22s12.167 9 19.5 9c13.333 0 20 -15.667 20 -47c0 -32 -14 -53.667 -42 -65
c-10 -4 -22 -6 -36 -6c-13.333 0 -25 2.5 -35 7.5z" />
    <glyph glyph-name="adieresis" unicode="&#xe4;" horiz-adv-x="449" 
d="M312.5 22.5c-13 16.333 -19.501 33.832 -19.501 52.499c0 41.333 11 111.333 33 210c-16.667 -36 -38.167 -72.833 -64.5 -110.5s-52.166 -70.834 -77.499 -99.501s-44 -47.334 -56 -56.001c-16.667 -12.667 -35 -19 -55 -19c-38 0 -57 24 -57 72
c0 46.667 17.667 104.834 53 174.501s77.333 130.167 126 181.5c48.667 50.667 88 76 118 76c30.667 0 48 -13.333 52 -40c2 -8 3 -16.667 3 -26c3.33301 2 7 3 11 3c15.333 0 23 -7.33301 23 -22v-4l-12 -44c-9.33301 -33.333 -19 -82.666 -29 -147.999
s-15 -119.666 -15 -162.999l10 -6c16 -10 24 -20 24 -30c0 -6.66699 -2.33301 -12.667 -7 -18s-10.667 -8 -18 -8c-15.333 0 -29.5 8.16699 -42.5 24.5zM98.999 58.999c68 58 128.331 138.333 180.998 241c22.667 42.667 36.834 70.667 42.501 84s8.5 26.333 8.5 39
c0 6.66699 -1.66699 12.667 -5 18s-7.66602 8 -12.999 8c-6.66699 0 -15.334 -3 -26.001 -9c-26.667 -14 -58.167 -43.667 -94.5 -89s-66.166 -93.333 -89.499 -144c-24.667 -51.333 -37 -97 -37 -137c0 -12 5 -18 15 -18c7.33301 0 13.333 2.33301 18 7zM212.997 618.499
c-5.33301 10.333 -7.99902 20.834 -7.99902 31.501c0 13.333 4.66699 26.666 14 39.999c8 11.333 18.667 17 32 17c7.33301 0 15 -4 23 -12v1c10.667 -12.667 16 -24 16 -34s-7.33301 -22.333 -22 -37s-26.334 -22 -35.001 -22c-8 0 -14.667 5.16699 -20 15.5zM383.998 611
c-16 5.33301 -24 16.334 -24 33.001c0 14.667 5.83301 28.167 17.5 40.5s22.5 18.5 32.5 18.5c21.333 0 32 -10.333 32 -31c0 -14.667 -5.33301 -28.834 -16 -42.501s-22 -20.5 -34 -20.5z" />
    <glyph glyph-name="aring" unicode="&#xe5;" horiz-adv-x="449" 
d="M312.5 22.5c-13 16.333 -19.501 33.832 -19.501 52.499c0 41.333 11 111.333 33 210c-16.667 -36 -38.167 -72.833 -64.5 -110.5s-52.166 -70.834 -77.499 -99.501s-44 -47.334 -56 -56.001c-16.667 -12.667 -35 -19 -55 -19c-38 0 -57 24 -57 72
c0 46.667 17.667 104.834 53 174.501s77.333 130.167 126 181.5c48.667 50.667 88 76 118 76c30.667 0 48 -13.333 52 -40c2 -8 3 -16.667 3 -26c3.33301 2 7 3 11 3c15.333 0 23 -7.33301 23 -22v-4l-12 -44c-9.33301 -33.333 -19 -82.666 -29 -147.999
s-15 -119.666 -15 -162.999l10 -6c16 -10 24 -20 24 -30c0 -6.66699 -2.33301 -12.667 -7 -18s-10.667 -8 -18 -8c-15.333 0 -29.5 8.16699 -42.5 24.5zM98.999 58.999c68 58 128.331 138.333 180.998 241c22.667 42.667 36.834 70.667 42.501 84s8.5 26.333 8.5 39
c0 6.66699 -1.66699 12.667 -5 18s-7.66602 8 -12.999 8c-6.66699 0 -15.334 -3 -26.001 -9c-26.667 -14 -58.167 -43.667 -94.5 -89s-66.166 -93.333 -89.499 -144c-24.667 -51.333 -37 -97 -37 -137c0 -12 5 -18 15 -18c7.33301 0 13.333 2.33301 18 7zM235.997 600.999
c-6.66699 9.33301 -10.001 20.667 -10.001 34c0 24 7 46.333 21 67c7.33301 9.33301 15.666 17 24.999 23s18.333 9 27 9c10 0 17.667 -1.33301 23 -4c2.66699 2 6.33398 3 11.001 3c6 0 10.333 -1.33301 13 -4c36 -26 54 -55.333 54 -88c0 -22 -7.66699 -40.333 -23 -55
s-34.666 -22 -57.999 -22c-37.333 0 -65 12.333 -83 37zM352.996 637c0 10.667 -7.66699 23.667 -23 39h-6c-5.33301 0 -10.666 1.66699 -15.999 5c-4.66699 3.33301 -9.66699 5 -15 5c-6 0 -10.833 -3.5 -14.5 -10.5s-5.5 -16.167 -5.5 -27.5
c0 -10.667 5.66699 -20.167 17 -28.5s22.666 -12.5 33.999 -12.5c19.333 0 29 10 29 30z" />
    <glyph glyph-name="ae" unicode="&#xe6;" horiz-adv-x="547" 
d="M279 29c-16 26 -24 58.667 -24 98c0 18 0.666992 31.333 2 40c-32.667 -45.333 -67.334 -87.333 -104.001 -126c-26 -27.333 -50.667 -41 -74 -41c-22.667 -0 -38.834 5.83301 -48.501 17.5s-14.5 29.5 -14.5 53.5c0 48 17.667 106.667 53 176
s77.333 129.666 126 180.999c48.667 50.667 89 76 121 76c17.333 0 29.333 -4 36 -12s11.334 -19.333 14.001 -34c34 35.333 68.333 53 103 53c20 0 35.833 -8.16699 47.5 -24.5s17.5 -36.166 17.5 -59.499c0 -56 -21.167 -101.5 -63.5 -136.5
s-97.166 -66.167 -164.499 -93.5l-2 -77c-0.666992 -56 16.333 -84 51 -84c14 0 27 2.5 39 7.5s27.333 12.5 46 22.5c18 10.667 30 16 36 16c11.333 0 17 -6 17 -18c0 -8.66699 -8.16699 -19 -24.5 -31s-35.5 -22.167 -57.5 -30.5s-40.333 -12.5 -55 -12.5
c-35.333 0 -61 13 -77 39zM347 257c32 16.667 57.667 31.667 77 45s35.333 30.666 48 51.999c4.66699 8.66699 8.66699 19.167 12 31.5s5 23.833 5 34.5c0 12.667 -2.66699 23.167 -8 31.5s-13.333 12.5 -24 12.5c-18 0 -37.333 -12.333 -58 -37
c2.66699 -4.66699 3.66699 -8.16699 3 -10.5s-1 -4.16602 -1 -5.49902l-42 -45c-24.667 -50 -39.667 -92 -45 -126zM150 102c29.333 33.333 60.167 77.498 92.5 132.498s61.5 112.833 87.5 173.5c0.666992 2.66699 1 6.66699 1 12c0 8 -1.5 14.833 -4.5 20.5
s-7.5 8.5 -13.5 8.5c-12.667 0 -31.667 -10.667 -57 -32s-52 -50.5 -80 -87.5s-52.333 -77.833 -73 -122.5c-10.667 -21.333 -19.667 -44.166 -27 -68.499s-11 -44.166 -11 -59.499c0 -18 5.33301 -27 16 -27c16.667 0 39.667 16.667 69 50z" />
    <glyph glyph-name="ccedilla" unicode="&#xe7;" horiz-adv-x="335" 
d="M335 428c0 -6 -2.83203 -11.6689 -8.49902 -17.002s-11.834 -8 -18.501 -8c-14 0 -23 10.333 -27 31s-15 31 -33 31c-24 0 -49.333 -18.5 -76 -55.5s-49.667 -83.833 -69 -140.5c-18.667 -53.333 -28 -101 -28 -143c0 -59.333 21.667 -89 65 -89
c22 0 42.333 10.333 61 31c2 2.66699 5.66699 7.16699 11 13.5s10.333 11 15 14s9 4.5 13 4.5c12.667 0 19 -5.66699 19 -17c0 -14.667 -6.83301 -29.834 -20.5 -45.501s-31.167 -28.167 -52.5 -37.5c0 -5.33301 -2.66699 -12.666 -8 -21.999s-8.66602 -15.333 -9.99902 -18
l-16 -29c12 6 24 9 36 9c22.667 0 41.667 -10.167 57 -30.5s23 -45.166 23 -74.499c0 -33.333 -11.167 -62.166 -33.5 -86.499s-53.166 -36.5 -92.499 -36.5c-20.667 0 -42.334 4.16699 -65.001 12.5s-34 18.166 -34 29.499c0 8.66699 2.66699 15.167 8 19.5s12 6.5 20 6.5
c33.333 -14.667 59.666 -22 78.999 -22s36.5 7.33301 51.5 22s22.5 32 22.5 52c0 23.333 -3.83301 41.166 -11.5 53.499s-19.5 18.5 -35.5 18.5c-25.333 0 -45.333 -11.333 -60 -34c-4.66699 -8 -10.667 -12 -18 -12c-4.66699 0 -8.66699 1.5 -12 4.5s-5 6.83301 -5 11.5
c0 4 0.666992 7 2 9c2 3.33301 7.16699 13.833 15.5 31.5s20.5 42.167 36.5 73.5h-7c-32 0 -57.167 11.833 -75.5 35.5s-27.5 52.167 -27.5 85.5c0 58.667 10.833 119.334 32.5 182.001s50.167 115 85.5 157c34.667 42 72 63 112 63c28.667 0 47.334 -10.333 56.001 -31
c2 -3.33301 3.66699 -6.83301 5 -10.5l4 -10.5c3.33301 -9.33301 6.66602 -14.666 9.99902 -15.999c2.66699 -6.66699 4 -11.667 4 -15z" />
    <glyph glyph-name="egrave" unicode="&#xe8;" horiz-adv-x="324" 
d="M83 0.5c-12 7 -21.666 17.833 -28.999 32.5c-14 26 -21 57.333 -21 94c0 64 9.66699 124.833 29 182.5s45.666 106.167 78.999 145.5c32 37.333 67 56 105 56c20 0 35.833 -8.16699 47.5 -24.5s17.5 -36.166 17.5 -59.499c0 -40.667 -10.5 -76 -31.5 -106
s-49.167 -55 -84.5 -75c-30.667 -18 -68 -36 -112 -54l-2 -72c0 -56 17 -84 51 -84c14 0 27.5 2.66699 40.5 8s27.167 12.666 42.5 21.999c18 10.667 30.667 16 38 16c11.333 0 17 -6 17 -18c0 -8.66699 -8.16699 -19 -24.5 -31s-35.5 -22.167 -57.5 -30.5
s-40.333 -12.5 -55 -12.5c-21.333 0 -38 3.5 -50 10.5zM193.001 288c23.333 14 41.167 31.666 53.5 52.999s18.5 49.333 18.5 84c0 26 -11 39 -33 39c-19.333 0 -42 -17.667 -68 -53c-27.333 -35.333 -49.333 -81.666 -66 -138.999c-4.66699 -16 -7 -26.667 -7 -32
c44.667 18 78.667 34 102 48zM227.002 591.999c-26.667 34 -46.166 62.168 -58.499 84.501s-21.833 45.166 -28.5 68.499c0 8 2.83301 15.167 8.5 21.5s11.5 9.5 17.5 9.5c10 0 16.667 -5.66699 20 -17c5.33301 -18.667 13.333 -37.167 24 -55.5s29 -44.166 55 -77.499
c2.66699 -5.33301 4 -10 4 -14c0 -6.66699 -2.66699 -12.834 -8 -18.501s-11 -8.5 -17 -8.5c-6.66699 0 -12.334 2.33301 -17.001 7z" />
    <glyph glyph-name="eacute" unicode="&#xe9;" horiz-adv-x="324" 
d="M83 0.5c-12 7 -21.666 17.833 -28.999 32.5c-14 26 -21 57.333 -21 94c0 64 9.66699 124.833 29 182.5s45.666 106.167 78.999 145.5c32 37.333 67 56 105 56c20 0 35.833 -8.16699 47.5 -24.5s17.5 -36.166 17.5 -59.499c0 -40.667 -10.5 -76 -31.5 -106
s-49.167 -55 -84.5 -75c-30.667 -18 -68 -36 -112 -54l-2 -72c0 -56 17 -84 51 -84c14 0 27.5 2.66699 40.5 8s27.167 12.666 42.5 21.999c18 10.667 30.667 16 38 16c11.333 0 17 -6 17 -18c0 -8.66699 -8.16699 -19 -24.5 -31s-35.5 -22.167 -57.5 -30.5
s-40.333 -12.5 -55 -12.5c-21.333 0 -38 3.5 -50 10.5zM193.001 288c23.333 14 41.167 31.666 53.5 52.999s18.5 49.333 18.5 84c0 26 -11 39 -33 39c-19.333 0 -42 -17.667 -68 -53c-27.333 -35.333 -49.333 -81.666 -66 -138.999c-4.66699 -16 -7 -26.667 -7 -32
c44.667 18 78.667 34 102 48zM211.002 579.999c-5.33301 4 -8 9.66699 -8 17c0 4 3.66699 11.333 11 22c14.667 22 41 73.667 79 155c2.66699 6 6.66699 10 12 12s13.333 3 24 3c12.667 0 19 -5.66699 19 -17c0 -3.33301 -5 -16.666 -15 -39.999
s-21.833 -47.833 -35.5 -73.5s-26.167 -45.834 -37.5 -60.501c-10 -16 -19.667 -24 -29 -24c-8 0 -14.667 2 -20 6z" />
    </font>
</defs>
</svg>
